<svg xmlns="http://www.w3.org/2000/svg" xmlns:xlink="http://www.w3.org/1999/xlink" width="500" zoomAndPan="magnify" viewBox="0 0 375 374.999991" height="500" preserveAspectRatio="xMidYMid meet" version="1.0"><defs><g/><clipPath id="c194a8adbf"><path d="M 50.839844 130 L 76 130 L 76 208.164062 L 50.839844 208.164062 Z M 50.839844 130 " clip-rule="nonzero"/></clipPath><clipPath id="8787fdf419"><path d="M 176.042969 130.65625 L 200.835938 130.65625 L 200.835938 208.160156 L 176.042969 208.160156 Z M 176.042969 130.65625 " clip-rule="nonzero"/></clipPath><clipPath id="4b60c4286f"><path d="M 114 112.914062 L 138 112.914062 L 138 139 L 114 139 Z M 114 112.914062 " clip-rule="nonzero"/></clipPath></defs><rect x="-37.5" width="450" fill="#ffffff" y="-37.499999" height="449.999989" fill-opacity="1"/><rect x="-37.5" width="450" fill="#000000" y="-37.499999" height="449.999989" fill-opacity="1"/><path fill="#4a87ce" d="M 101.984375 156.347656 C 100.144531 156.347656 98.429688 156.695312 96.839844 157.390625 C 95.246094 158.085938 93.867188 159.023438 92.699219 160.203125 C 91.53125 161.382812 90.605469 162.769531 89.921875 164.359375 C 89.242188 165.949219 88.898438 167.640625 88.898438 169.429688 C 88.898438 171.21875 89.242188 172.910156 89.921875 174.5 C 90.605469 176.089844 91.53125 177.476562 92.699219 178.65625 C 93.867188 179.835938 95.246094 180.773438 96.839844 181.46875 C 98.429688 182.164062 100.144531 182.511719 101.984375 182.511719 C 103.796875 182.511719 105.5 182.164062 107.089844 181.46875 C 108.679688 180.773438 110.066406 179.828125 111.246094 178.636719 C 112.425781 177.445312 113.355469 176.058594 114.042969 174.480469 C 114.722656 172.902344 115.066406 171.21875 115.066406 169.429688 C 115.066406 167.640625 114.722656 165.957031 114.042969 164.378906 C 113.355469 162.800781 112.425781 161.414062 111.246094 160.222656 C 110.066406 159.03125 108.679688 158.085938 107.089844 157.390625 C 105.5 156.695312 103.796875 156.347656 101.984375 156.347656 Z M 122.855469 169.429688 C 122.855469 175.246094 120.820312 180.164062 116.742188 184.191406 C 112.617188 188.265625 107.699219 190.304688 101.984375 190.304688 C 96.214844 190.304688 91.296875 188.265625 87.222656 184.191406 C 83.144531 180.117188 81.109375 175.195312 81.109375 169.429688 C 81.109375 163.664062 83.144531 158.746094 87.222656 154.667969 C 91.296875 150.59375 96.214844 148.554688 101.984375 148.554688 C 107.699219 148.554688 112.617188 150.59375 116.742188 154.667969 C 118.78125 156.707031 120.304688 158.957031 121.308594 161.414062 C 122.316406 163.875 122.832031 166.546875 122.855469 169.429688 " fill-opacity="1" fill-rule="nonzero"/><path fill="#4a87ce" d="M 149.695312 156.347656 C 147.855469 156.347656 146.140625 156.695312 144.550781 157.390625 C 142.960938 158.085938 141.582031 159.023438 140.414062 160.203125 C 139.246094 161.382812 138.320312 162.769531 137.636719 164.359375 C 136.953125 165.949219 136.613281 167.640625 136.613281 169.429688 C 136.613281 171.21875 136.953125 172.910156 137.636719 174.5 C 138.320312 176.089844 139.246094 177.476562 140.414062 178.65625 C 141.582031 179.835938 142.960938 180.773438 144.550781 181.46875 C 146.140625 182.164062 147.855469 182.511719 149.695312 182.511719 C 151.507812 182.511719 153.210938 182.164062 154.800781 181.46875 C 156.390625 180.773438 157.777344 179.828125 158.957031 178.636719 C 160.136719 177.445312 161.070312 176.058594 161.753906 174.480469 C 162.4375 172.902344 162.777344 171.21875 162.777344 169.429688 C 162.777344 167.640625 162.4375 165.957031 161.753906 164.378906 C 161.070312 162.800781 160.136719 161.414062 158.957031 160.222656 C 157.777344 159.03125 156.390625 158.085938 154.800781 157.390625 C 153.210938 156.695312 151.507812 156.347656 149.695312 156.347656 Z M 170.570312 169.429688 C 170.570312 175.246094 168.53125 180.164062 164.457031 184.191406 C 160.332031 188.265625 155.410156 190.304688 149.695312 190.304688 C 143.929688 190.304688 139.007812 188.265625 134.933594 184.191406 C 130.859375 180.117188 128.820312 175.195312 128.820312 169.429688 C 128.820312 163.664062 130.859375 158.746094 134.933594 154.667969 C 139.007812 150.59375 143.929688 148.554688 149.695312 148.554688 C 155.410156 148.554688 160.332031 150.59375 164.457031 154.667969 C 166.492188 156.707031 168.015625 158.957031 169.023438 161.414062 C 170.027344 163.875 170.542969 166.546875 170.570312 169.429688 " fill-opacity="1" fill-rule="nonzero"/><g clip-path="url(#c194a8adbf)"><path fill="#ffffff" d="M 71.714844 130.699219 C 72.832031 130.699219 73.757812 131.078125 74.492188 131.835938 C 75.222656 132.597656 75.589844 133.519531 75.589844 134.613281 C 75.589844 135.734375 75.222656 136.660156 74.492188 137.390625 C 73.757812 138.125 72.832031 138.492188 71.714844 138.492188 C 68.632812 138.492188 67.09375 140.03125 67.09375 143.113281 L 67.09375 160.929688 C 67.09375 164.507812 66.273438 167.34375 64.632812 169.429688 C 66.273438 171.515625 67.09375 174.351562 67.09375 177.929688 L 67.09375 195.746094 C 67.09375 198.828125 68.632812 200.371094 71.714844 200.371094 C 72.832031 200.371094 73.757812 200.734375 74.492188 201.46875 C 75.222656 202.203125 75.589844 203.125 75.589844 204.246094 C 75.589844 205.363281 75.222656 206.296875 74.492188 207.042969 C 73.757812 207.785156 72.832031 208.160156 71.714844 208.160156 C 63.4375 208.160156 59.300781 204.023438 59.300781 195.746094 L 59.300781 177.929688 C 59.300781 174.847656 57.773438 173.304688 54.714844 173.304688 C 53.597656 173.304688 52.671875 172.941406 51.9375 172.207031 C 51.207031 171.472656 50.839844 170.546875 50.839844 169.429688 C 50.839844 168.3125 51.207031 167.386719 51.9375 166.652344 C 52.671875 165.921875 53.597656 165.554688 54.714844 165.554688 C 57.773438 165.554688 59.300781 164.011719 59.300781 160.929688 L 59.300781 143.113281 C 59.300781 134.835938 63.4375 130.699219 71.714844 130.699219 " fill-opacity="1" fill-rule="nonzero"/></g><g clip-path="url(#8787fdf419)"><path fill="#ffffff" d="M 192.375 143.113281 L 192.375 160.929688 C 192.375 164.011719 193.902344 165.554688 196.960938 165.554688 C 198.078125 165.554688 199.003906 165.921875 199.738281 166.652344 C 200.472656 167.386719 200.835938 168.3125 200.835938 169.429688 C 200.835938 170.546875 200.472656 171.472656 199.738281 172.207031 C 199.003906 172.941406 198.078125 173.304688 196.960938 173.304688 C 193.902344 173.304688 192.375 174.847656 192.375 177.929688 L 192.375 195.746094 C 192.375 204.023438 188.238281 208.160156 179.960938 208.160156 C 178.84375 208.160156 177.917969 207.785156 177.183594 207.042969 C 176.453125 206.296875 176.085938 205.363281 176.085938 204.246094 C 176.085938 203.125 176.453125 202.203125 177.183594 201.46875 C 177.917969 200.734375 178.84375 200.371094 179.960938 200.371094 C 183.046875 200.371094 184.585938 198.828125 184.585938 195.746094 L 184.585938 177.929688 C 184.585938 174.351562 185.40625 171.515625 187.046875 169.429688 C 185.40625 167.34375 184.585938 164.507812 184.585938 160.929688 L 184.585938 143.113281 C 184.585938 140.03125 183.046875 138.492188 179.960938 138.492188 C 178.84375 138.492188 177.917969 138.125 177.183594 137.390625 C 176.453125 136.660156 176.085938 135.734375 176.085938 134.613281 C 176.085938 133.519531 176.453125 132.597656 177.183594 131.835938 C 177.917969 131.078125 178.84375 130.699219 179.960938 130.699219 C 188.238281 130.699219 192.375 134.835938 192.375 143.113281 " fill-opacity="1" fill-rule="nonzero"/></g><g clip-path="url(#4b60c4286f)"><path fill="#ffffff" d="M 137.507812 133.789062 C 137.507812 134.4375 137.382812 135.039062 137.132812 135.597656 C 136.882812 136.15625 136.554688 136.648438 136.144531 137.070312 C 135.734375 137.492188 135.242188 137.824219 134.671875 138.058594 C 134.101562 138.296875 133.503906 138.414062 132.882812 138.414062 C 131.738281 138.414062 130.757812 138.015625 129.9375 137.21875 C 129.117188 136.425781 128.449219 135.449219 127.925781 134.292969 C 127.40625 133.140625 127.023438 131.945312 126.789062 130.714844 C 126.554688 129.484375 126.433594 128.335938 126.433594 127.269531 C 126.433594 122.867188 128.3125 118.421875 132.0625 113.921875 C 132.734375 113.25 133.492188 112.917969 134.339844 112.917969 C 135.207031 112.917969 135.953125 113.226562 136.574219 113.847656 C 137.195312 114.46875 137.507812 115.214844 137.507812 116.085938 C 137.507812 116.507812 137.417969 116.941406 137.246094 117.390625 C 136.125 120.125 135.566406 122.71875 135.566406 125.179688 C 135.566406 127.515625 136.078125 129.777344 137.097656 131.964844 C 137.371094 132.585938 137.507812 133.195312 137.507812 133.789062 Z M 125.242188 133.789062 C 125.242188 134.4375 125.117188 135.039062 124.871094 135.597656 C 124.621094 136.15625 124.292969 136.648438 123.882812 137.070312 C 123.472656 137.492188 122.980469 137.824219 122.410156 138.058594 C 121.835938 138.296875 121.242188 138.414062 120.621094 138.414062 C 119.476562 138.414062 118.496094 138.015625 117.675781 137.21875 C 116.855469 136.425781 116.183594 135.449219 115.664062 134.292969 C 115.140625 133.140625 114.761719 131.945312 114.523438 130.714844 C 114.289062 129.484375 114.171875 128.335938 114.171875 127.269531 C 114.171875 122.867188 116.046875 118.421875 119.800781 113.921875 C 120.46875 113.25 121.230469 112.917969 122.074219 112.917969 C 122.941406 112.917969 123.6875 113.226562 124.308594 113.847656 C 124.929688 114.46875 125.242188 115.214844 125.242188 116.085938 C 125.242188 116.507812 125.15625 116.941406 124.980469 117.390625 C 123.863281 120.125 123.304688 122.71875 123.304688 125.179688 C 123.304688 127.515625 123.8125 129.777344 124.832031 131.964844 C 125.105469 132.585938 125.242188 133.195312 125.242188 133.789062 " fill-opacity="1" fill-rule="nonzero"/></g><g fill="#ffffff" fill-opacity="1"><g transform="translate(204.058555, 174.868407)"><g><path d="M 5.234375 -9.859375 L 15.515625 -16.203125 L 15.515625 -11.9375 L 8.8125 -8.15625 L 15.515625 -4.03125 L 15.515625 0.234375 L 5.234375 -6.609375 Z M 5.234375 -9.859375 "/></g></g></g><g fill="#ffffff" fill-opacity="1"><g transform="translate(224.819509, 174.868407)"><g><path d="M 6.734375 0.09375 C 6.242188 0.03125 5.300781 0 3.90625 0 L 2.6875 0 L 2.6875 -20.296875 C 3.34375 -20.265625 4.0625 -20.25 4.84375 -20.25 C 5.625 -20.25 6.175781 -20.285156 6.5 -20.359375 L 11.609375 -11.671875 L 16.53125 -20.359375 C 16.851562 -20.285156 17.46875 -20.25 18.375 -20.25 C 19.289062 -20.25 20.078125 -20.265625 20.734375 -20.296875 L 20.734375 0 L 19.515625 0 C 18.117188 0 17.179688 0.03125 16.703125 0.09375 L 16.703125 -13.546875 L 11.71875 -4.640625 L 6.734375 -12.828125 Z M 6.734375 0.09375 "/></g></g></g><g fill="#ffffff" fill-opacity="1"><g transform="translate(248.244076, 174.868407)"><g/></g></g><g fill="#ffffff" fill-opacity="1"><g transform="translate(258.578892, 174.868407)"><g><path d="M 15.03125 -1.796875 C 13.363281 -0.347656 11.34375 0.375 8.96875 0.375 C 6.632812 0.375 4.707031 -0.316406 3.1875 -1.703125 C 1.6875 -3.054688 0.9375 -4.734375 0.9375 -6.734375 C 0.9375 -8.535156 1.71875 -10.035156 3.28125 -11.234375 C 3.75 -11.597656 4.253906 -11.898438 4.796875 -12.140625 C 4.210938 -13.117188 3.921875 -14.070312 3.921875 -15 C 3.921875 -15.9375 4.070312 -16.734375 4.375 -17.390625 C 4.6875 -18.054688 5.109375 -18.628906 5.640625 -19.109375 C 6.785156 -20.117188 8.257812 -20.625 10.0625 -20.625 C 11.34375 -20.625 12.515625 -20.316406 13.578125 -19.703125 C 13.523438 -18.847656 13.5 -18.1875 13.5 -17.71875 C 13.5 -17.082031 13.503906 -16.679688 13.515625 -16.515625 C 13.535156 -16.347656 13.539062 -16.234375 13.53125 -16.171875 C 13.53125 -16.109375 13.523438 -16.054688 13.515625 -16.015625 C 13.472656 -15.953125 13.460938 -15.878906 13.484375 -15.796875 L 13.40625 -15.6875 C 13 -16.300781 12.210938 -16.738281 11.046875 -17 C 10.691406 -17.082031 10.234375 -17.125 9.671875 -17.125 C 9.117188 -17.125 8.660156 -16.957031 8.296875 -16.625 C 7.941406 -16.289062 7.765625 -15.867188 7.765625 -15.359375 C 7.765625 -14.484375 8.382812 -13.375 9.625 -12.03125 C 10.007812 -11.601562 10.472656 -11.117188 11.015625 -10.578125 L 14.59375 -7.3125 C 14.914062 -8.1875 15.078125 -9.113281 15.078125 -10.09375 C 15.078125 -10.6875 14.925781 -11.179688 14.625 -11.578125 C 14.550781 -11.671875 14.492188 -11.734375 14.453125 -11.765625 L 14.453125 -11.953125 L 16.671875 -11.0625 C 17.097656 -10.894531 17.441406 -10.765625 17.703125 -10.671875 C 17.960938 -10.578125 18.160156 -10.5 18.296875 -10.4375 C 18.523438 -10.34375 18.640625 -10.234375 18.640625 -10.109375 C 18.640625 -8.273438 18.226562 -6.539062 17.40625 -4.90625 C 18.445312 -4.050781 19.113281 -3.566406 19.40625 -3.453125 C 19.695312 -3.335938 19.921875 -3.269531 20.078125 -3.25 C 20.566406 -3.195312 20.847656 -3.21875 20.921875 -3.3125 L 21 -3.234375 L 19.4375 0.203125 C 19.257812 0.316406 18.960938 0.375 18.546875 0.375 C 17.910156 0.375 16.738281 -0.347656 15.03125 -1.796875 Z M 6.03125 -4.359375 C 6.875 -3.628906 7.882812 -3.265625 9.0625 -3.265625 C 10.25 -3.265625 11.3125 -3.59375 12.25 -4.25 L 10.609375 -5.75 C 8.847656 -7.34375 7.453125 -8.734375 6.421875 -9.921875 C 5.316406 -9.117188 4.765625 -8.175781 4.765625 -7.09375 C 4.765625 -6.007812 5.1875 -5.097656 6.03125 -4.359375 Z M 6.03125 -4.359375 "/></g></g></g><g fill="#ffffff" fill-opacity="1"><g transform="translate(279.339846, 174.868407)"><g/></g></g><g fill="#ffffff" fill-opacity="1"><g transform="translate(289.674661, 174.868407)"><g><path d="M 6.734375 0.09375 C 6.242188 0.03125 5.300781 0 3.90625 0 L 2.6875 0 L 2.6875 -20.296875 C 3.34375 -20.265625 4.0625 -20.25 4.84375 -20.25 C 5.625 -20.25 6.175781 -20.285156 6.5 -20.359375 L 11.609375 -11.671875 L 16.53125 -20.359375 C 16.851562 -20.285156 17.46875 -20.25 18.375 -20.25 C 19.289062 -20.25 20.078125 -20.265625 20.734375 -20.296875 L 20.734375 0 L 19.515625 0 C 18.117188 0 17.179688 0.03125 16.703125 0.09375 L 16.703125 -13.546875 L 11.71875 -4.640625 L 6.734375 -12.828125 Z M 6.734375 0.09375 "/></g></g></g><g fill="#ffffff" fill-opacity="1"><g transform="translate(313.099228, 174.868407)"><g><path d="M 5.203125 -4.03125 L 11.890625 -8.15625 L 5.203125 -11.9375 L 5.203125 -16.203125 L 15.484375 -9.859375 L 15.484375 -6.609375 L 5.203125 0.234375 Z M 5.203125 -4.03125 "/></g></g></g><g fill="#ffffff" fill-opacity="1"><g transform="translate(226.711939, 187.900008)"><g><path d="M 1.546875 0 L 1.546875 -6.921875 L 0.125 -6.921875 L 0.125 -7.703125 L 3.8125 -7.703125 L 3.8125 -6.921875 L 2.390625 -6.921875 L 2.390625 0 Z M 1.546875 0 "/></g></g></g><g fill="#ffffff" fill-opacity="1"><g transform="translate(235.069185, 187.900008)"><g><path d="M 3.171875 -4.296875 L 3.171875 -3.515625 L 1.296875 -3.515625 L 1.296875 -0.78125 L 3.609375 -0.78125 L 3.609375 0 L 0.4375 0 L 0.4375 -7.703125 L 3.609375 -7.703125 L 3.609375 -6.921875 L 1.296875 -6.921875 L 1.296875 -4.296875 Z M 3.171875 -4.296875 "/></g></g></g><g fill="#ffffff" fill-opacity="1"><g transform="translate(243.426432, 187.900008)"><g><path d="M 2.09375 -7.78125 C 2.6875 -7.78125 3.125 -7.601562 3.40625 -7.25 C 3.695312 -6.894531 3.84375 -6.425781 3.84375 -5.84375 L 3.84375 -5.140625 L 3.03125 -5.140625 L 3.03125 -5.890625 C 3.03125 -6.234375 2.957031 -6.503906 2.8125 -6.703125 C 2.664062 -6.898438 2.4375 -7 2.125 -7 C 1.8125 -7 1.582031 -6.898438 1.4375 -6.703125 C 1.289062 -6.503906 1.21875 -6.234375 1.21875 -5.890625 L 1.21875 -1.8125 C 1.21875 -1.457031 1.289062 -1.179688 1.4375 -0.984375 C 1.582031 -0.796875 1.8125 -0.703125 2.125 -0.703125 C 2.4375 -0.703125 2.664062 -0.796875 2.8125 -0.984375 C 2.957031 -1.179688 3.03125 -1.457031 3.03125 -1.8125 L 3.03125 -2.8125 L 3.84375 -2.8125 L 3.84375 -1.859375 C 3.84375 -1.273438 3.695312 -0.804688 3.40625 -0.453125 C 3.125 -0.0976562 2.6875 0.078125 2.09375 0.078125 C 1.507812 0.078125 1.078125 -0.0976562 0.796875 -0.453125 C 0.515625 -0.804688 0.375 -1.273438 0.375 -1.859375 L 0.375 -5.84375 C 0.375 -6.132812 0.40625 -6.398438 0.46875 -6.640625 C 0.539062 -6.878906 0.648438 -7.082031 0.796875 -7.25 C 0.941406 -7.414062 1.117188 -7.546875 1.328125 -7.640625 C 1.546875 -7.734375 1.800781 -7.78125 2.09375 -7.78125 Z M 2.09375 -7.78125 "/></g></g></g><g fill="#ffffff" fill-opacity="1"><g transform="translate(252.003518, 187.900008)"><g><path d="M 1.296875 -3.46875 L 1.296875 0 L 0.4375 0 L 0.4375 -7.703125 L 1.296875 -7.703125 L 1.296875 -4.234375 L 3.1875 -4.234375 L 3.1875 -7.703125 L 4.046875 -7.703125 L 4.046875 0 L 3.1875 0 L 3.1875 -3.46875 Z M 1.296875 -3.46875 "/></g></g></g><g fill="#ffffff" fill-opacity="1"><g transform="translate(260.888384, 187.900008)"><g/></g></g><g fill="#ffffff" fill-opacity="1"><g transform="translate(266.992221, 187.900008)"><g><path d="M 2.09375 -7.78125 C 2.6875 -7.78125 3.125 -7.601562 3.40625 -7.25 C 3.695312 -6.894531 3.84375 -6.425781 3.84375 -5.84375 L 3.84375 -5.1875 L 3.03125 -5.1875 L 3.03125 -5.890625 C 3.03125 -6.234375 2.957031 -6.503906 2.8125 -6.703125 C 2.664062 -6.898438 2.4375 -7 2.125 -7 C 1.8125 -7 1.582031 -6.898438 1.4375 -6.703125 C 1.289062 -6.503906 1.21875 -6.234375 1.21875 -5.890625 L 1.21875 -1.8125 C 1.21875 -1.457031 1.289062 -1.179688 1.4375 -0.984375 C 1.582031 -0.796875 1.8125 -0.703125 2.125 -0.703125 C 2.4375 -0.703125 2.664062 -0.796875 2.8125 -0.984375 C 2.957031 -1.179688 3.03125 -1.457031 3.03125 -1.8125 L 3.03125 -3.359375 L 2.234375 -3.359375 L 2.234375 -4.125 L 3.84375 -4.125 L 3.84375 -1.859375 C 3.84375 -1.273438 3.695312 -0.804688 3.40625 -0.453125 C 3.125 -0.0976562 2.6875 0.078125 2.09375 0.078125 C 1.507812 0.078125 1.078125 -0.0976562 0.796875 -0.453125 C 0.515625 -0.804688 0.375 -1.273438 0.375 -1.859375 L 0.375 -5.84375 C 0.375 -6.132812 0.40625 -6.398438 0.46875 -6.640625 C 0.539062 -6.878906 0.648438 -7.082031 0.796875 -7.25 C 0.941406 -7.414062 1.117188 -7.546875 1.328125 -7.640625 C 1.546875 -7.734375 1.800781 -7.78125 2.09375 -7.78125 Z M 2.09375 -7.78125 "/></g></g></g><g fill="#ffffff" fill-opacity="1"><g transform="translate(275.60228, 187.900008)"><g><path d="M 2.15625 -7.703125 C 2.757812 -7.703125 3.195312 -7.550781 3.46875 -7.25 C 3.738281 -6.945312 3.875 -6.507812 3.875 -5.9375 L 3.875 -5.3125 C 3.875 -4.882812 3.796875 -4.539062 3.640625 -4.28125 C 3.484375 -4.019531 3.242188 -3.835938 2.921875 -3.734375 C 3.265625 -3.628906 3.507812 -3.4375 3.65625 -3.15625 C 3.8125 -2.882812 3.890625 -2.539062 3.890625 -2.125 L 3.890625 -0.921875 C 3.890625 -0.753906 3.894531 -0.59375 3.90625 -0.4375 C 3.914062 -0.28125 3.957031 -0.132812 4.03125 0 L 3.171875 0 C 3.117188 -0.113281 3.082031 -0.234375 3.0625 -0.359375 C 3.039062 -0.484375 3.03125 -0.675781 3.03125 -0.9375 L 3.03125 -2.140625 C 3.03125 -2.578125 2.929688 -2.875 2.734375 -3.03125 C 2.535156 -3.195312 2.257812 -3.28125 1.90625 -3.28125 L 1.296875 -3.28125 L 1.296875 0 L 0.4375 0 L 0.4375 -7.703125 Z M 1.9375 -4.0625 C 2.28125 -4.0625 2.546875 -4.132812 2.734375 -4.28125 C 2.929688 -4.425781 3.03125 -4.707031 3.03125 -5.125 L 3.03125 -5.859375 C 3.03125 -6.210938 2.960938 -6.476562 2.828125 -6.65625 C 2.691406 -6.832031 2.460938 -6.921875 2.140625 -6.921875 L 1.296875 -6.921875 L 1.296875 -4.0625 Z M 1.9375 -4.0625 "/></g></g></g><g fill="#ffffff" fill-opacity="1"><g transform="translate(284.333258, 187.900008)"><g><path d="M 0.375 -5.84375 C 0.375 -6.4375 0.519531 -6.90625 0.8125 -7.25 C 1.101562 -7.601562 1.546875 -7.78125 2.140625 -7.78125 C 2.734375 -7.78125 3.175781 -7.601562 3.46875 -7.25 C 3.757812 -6.90625 3.90625 -6.4375 3.90625 -5.84375 L 3.90625 -1.859375 C 3.90625 -1.273438 3.757812 -0.804688 3.46875 -0.453125 C 3.175781 -0.0976562 2.734375 0.078125 2.140625 0.078125 C 1.546875 0.078125 1.101562 -0.0976562 0.8125 -0.453125 C 0.519531 -0.804688 0.375 -1.273438 0.375 -1.859375 Z M 1.21875 -1.8125 C 1.21875 -1.457031 1.289062 -1.179688 1.4375 -0.984375 C 1.59375 -0.796875 1.828125 -0.703125 2.140625 -0.703125 C 2.453125 -0.703125 2.679688 -0.796875 2.828125 -0.984375 C 2.972656 -1.179688 3.046875 -1.457031 3.046875 -1.8125 L 3.046875 -5.890625 C 3.046875 -6.234375 2.972656 -6.503906 2.828125 -6.703125 C 2.679688 -6.898438 2.453125 -7 2.140625 -7 C 1.828125 -7 1.59375 -6.898438 1.4375 -6.703125 C 1.289062 -6.503906 1.21875 -6.234375 1.21875 -5.890625 Z M 1.21875 -1.8125 "/></g></g></g><g fill="#ffffff" fill-opacity="1"><g transform="translate(293.009281, 187.900008)"><g><path d="M 1.25 -1.8125 C 1.25 -1.457031 1.320312 -1.179688 1.46875 -0.984375 C 1.613281 -0.796875 1.84375 -0.703125 2.15625 -0.703125 C 2.46875 -0.703125 2.691406 -0.796875 2.828125 -0.984375 C 2.972656 -1.179688 3.046875 -1.457031 3.046875 -1.8125 L 3.046875 -7.703125 L 3.84375 -7.703125 L 3.84375 -1.859375 C 3.84375 -1.273438 3.703125 -0.800781 3.421875 -0.4375 C 3.148438 -0.0820312 2.71875 0.09375 2.125 0.09375 C 1.539062 0.09375 1.109375 -0.0820312 0.828125 -0.4375 C 0.546875 -0.800781 0.40625 -1.273438 0.40625 -1.859375 L 0.40625 -7.703125 L 1.25 -7.703125 Z M 1.25 -1.8125 "/></g></g></g><g fill="#ffffff" fill-opacity="1"><g transform="translate(301.66332, 187.900008)"><g><path d="M 2.125 -7.703125 C 2.726562 -7.703125 3.164062 -7.535156 3.4375 -7.203125 C 3.707031 -6.867188 3.84375 -6.40625 3.84375 -5.8125 L 3.84375 -4.890625 C 3.84375 -4.273438 3.695312 -3.8125 3.40625 -3.5 C 3.125 -3.1875 2.675781 -3.03125 2.0625 -3.03125 L 1.296875 -3.03125 L 1.296875 0 L 0.4375 0 L 0.4375 -7.703125 Z M 2.0625 -3.8125 C 2.382812 -3.8125 2.617188 -3.890625 2.765625 -4.046875 C 2.921875 -4.203125 3 -4.46875 3 -4.84375 L 3 -5.859375 C 3 -6.210938 2.929688 -6.476562 2.796875 -6.65625 C 2.660156 -6.832031 2.4375 -6.921875 2.125 -6.921875 L 1.296875 -6.921875 L 1.296875 -3.8125 Z M 2.0625 -3.8125 "/></g></g></g></svg>