<?xml version="1.0" encoding="UTF-8"?>
<!DOCTYPE svg PUBLIC "-//W3C//DTD SVG 1.1//EN" "http://www.w3.org/Graphics/SVG/1.1/DTD/svg11.dtd">
<!-- Creator: CorelDRAW (Versión de evaluación) -->
<svg xmlns="http://www.w3.org/2000/svg" xml:space="preserve" width="67.7332mm" height="67.7332mm" version="1.1" style="shape-rendering:geometricPrecision; text-rendering:geometricPrecision; image-rendering:optimizeQuality; fill-rule:evenodd; clip-rule:evenodd"
viewBox="0 0 6773.32 6773.32"
 xmlns:xlink="http://www.w3.org/1999/xlink"
 xmlns:xodm="http://www.corel.com/coreldraw/odm/2003"
 zoomAndPan="magnify">
 <defs>
  <style type="text/css">
   <![CDATA[
    .fil2 {fill:none;fill-rule:nonzero}
    .fil1 {fill:#211D1D;fill-rule:nonzero}
    .fil0 {fill:#4A87CE;fill-rule:nonzero}
    .fil3 {fill:#737373;fill-rule:nonzero}
   ]]>
  </style>
   <clipPath id="id0" style="clip-rule:nonzero">
    <path d="M114.29 1064.43l1090.81 0 0 3410.5 -1090.81 0 0 -3410.5zm0 0z"/>
   </clipPath>
   <clipPath id="id1" style="clip-rule:nonzero">
    <path d="M5577.24 1093.06l1081.78 0 0 3381.7 -1081.78 0 0 -3381.7zm0 0z"/>
   </clipPath>
   <clipPath id="id2" style="clip-rule:nonzero">
    <path d="M2863.15 318.92l1047.18 0 0 1138.2 -1047.18 0 0 -1138.2zm0 0z"/>
   </clipPath>
 </defs>
 <g id="Capa_x0020_1">
  <metadata id="CorelCorpID_0Corel-Layer"/>
  <path class="fil0" d="M2345.87 2214.04c-80.29,0 -155.11,15.17 -224.47,45.51 -69.55,30.34 -129.71,71.25 -180.67,122.72 -50.97,51.47 -91.36,111.97 -121.18,181.35 -29.84,69.37 -44.67,143.17 -44.67,221.23 0,78.06 14.83,151.86 44.67,221.23 29.82,69.37 70.21,129.88 121.18,181.34 50.96,51.48 111.12,92.38 180.67,122.72 69.36,30.34 144.18,45.51 224.47,45.51 79.08,0 153.39,-15.17 222.75,-45.51 69.37,-30.34 129.88,-71.58 181.36,-123.57 51.47,-51.98 92.03,-112.49 121.86,-181.34 29.82,-68.86 44.82,-142.32 44.82,-220.38 0,-78.06 -15,-151.53 -44.82,-220.38 -29.83,-68.85 -70.39,-129.36 -121.86,-181.34 -51.48,-51.99 -111.99,-93.24 -181.36,-123.58 -69.36,-30.34 -143.67,-45.51 -222.75,-45.51zm910.65 570.81c0,253.78 -88.96,468.36 -266.73,644.09 -179.99,177.77 -394.58,266.74 -643.92,266.74 -251.75,0 -466.34,-88.97 -644.11,-266.74 -177.93,-177.77 -266.73,-392.52 -266.73,-644.09 0,-251.57 88.8,-466.15 266.73,-644.09 177.77,-177.77 392.36,-266.74 644.11,-266.74 249.34,0 463.93,88.97 643.92,266.74 88.96,88.96 155.44,187.14 199.24,294.35 43.97,107.37 66.46,223.95 67.49,349.74z"/>
  <path class="fil0" d="M4427.61 2214.04c-80.27,0 -155.09,15.17 -224.47,45.51 -69.36,30.34 -129.53,71.25 -180.49,122.72 -50.96,51.47 -91.35,111.97 -121.18,181.35 -29.82,69.37 -44.65,143.17 -44.65,221.23 0,78.06 14.83,151.86 44.65,221.23 29.83,69.37 70.22,129.88 121.18,181.34 50.96,51.48 111.13,92.38 180.49,122.72 69.38,30.34 144.2,45.51 224.47,45.51 79.09,0 153.4,-15.17 222.77,-45.51 69.37,-30.34 129.88,-71.58 181.34,-123.57 51.48,-51.98 92.22,-112.49 122.04,-181.34 29.83,-68.86 44.66,-142.32 44.66,-220.38 0,-78.06 -14.83,-151.53 -44.66,-220.38 -29.82,-68.85 -70.56,-129.36 -122.04,-181.34 -51.46,-51.99 -111.97,-93.24 -181.34,-123.58 -69.37,-30.34 -143.68,-45.51 -222.77,-45.51zm910.83 570.81c0,253.78 -88.96,468.36 -266.73,644.09 -179.99,177.77 -394.74,266.74 -644.1,266.74 -251.57,0 -466.32,-88.97 -644.09,-266.74 -177.77,-177.77 -266.73,-392.52 -266.73,-644.09 0,-251.57 88.96,-466.15 266.73,-644.09 177.77,-177.77 392.52,-266.74 644.09,-266.74 249.36,0 464.11,88.97 644.1,266.74 88.8,88.96 155.27,187.14 199.24,294.35 43.81,107.37 66.3,223.95 67.49,349.74z"/>
  <g>
  </g>
  <g style="clip-path:url(#id0)">
   <g id="_2343098131472">
    <path class="fil1" d="M1025.12 1094.93c48.75,0 89.15,16.54 121.18,49.61 31.88,33.06 47.89,73.45 47.89,121.17 0,48.92 -16.01,89.31 -47.89,121.19 -32.03,32.04 -72.43,48.06 -121.18,48.06 -134.47,0 -201.63,67.16 -201.63,201.64l0 777.37c0,156.13 -35.79,279.86 -107.37,370.88 71.58,91.02 107.37,214.75 107.37,370.87l0 777.38c0,134.48 67.16,201.8 201.63,201.8 48.75,0 89.15,15.86 121.18,47.9 31.88,32.04 47.89,72.27 47.89,121.17 0,48.76 -16.01,89.49 -47.89,122.04 -32.03,32.39 -72.43,48.75 -121.18,48.75 -361.16,0 -541.66,-180.5 -541.66,-541.66l0 -777.38c0,-134.48 -66.64,-201.8 -200.09,-201.8 -48.75,0 -89.14,-15.84 -121.19,-47.89 -31.87,-32.04 -47.89,-72.44 -47.89,-121.18 0,-48.74 16.02,-89.14 47.89,-121.19 32.05,-31.87 72.44,-47.89 121.19,-47.89 133.45,0 200.09,-67.32 200.09,-201.8l0 -777.37c0,-361.17 180.5,-541.67 541.66,-541.67z"/>
   </g>
  </g>
  <path class="fil2" d="M114.29 1064.43l1090.81 0 0 3410.5 -1090.81 0 0 -3410.5zm0 0z"/>
  <g>
  </g>
  <g style="clip-path:url(#id1)">
   <g id="_2343098199344">
    <path class="fil1" d="M6289.85 1636.6l0 777.37c0,134.48 66.64,201.8 200.09,201.8 48.75,0 89.14,16.02 121.19,47.89 32.03,32.05 47.89,72.45 47.89,121.19 0,48.74 -15.86,89.14 -47.89,121.18 -32.05,32.05 -72.44,47.89 -121.19,47.89 -133.45,0 -200.09,67.32 -200.09,201.8l0 777.38c0,361.16 -180.5,541.66 -541.66,541.66 -48.75,0 -89.15,-16.36 -121.18,-48.75 -31.88,-32.55 -47.91,-73.28 -47.91,-122.04 0,-48.9 16.03,-89.13 47.91,-121.17 32.03,-32.04 72.43,-47.9 121.18,-47.9 134.47,0 201.79,-67.32 201.79,-201.8l0 -777.38c0,-156.12 35.79,-279.85 107.38,-370.87 -71.59,-91.02 -107.38,-214.75 -107.38,-370.88l0 -777.37c0,-134.48 -67.32,-201.64 -201.79,-201.64 -48.75,0 -89.15,-16.02 -121.18,-48.06 -31.88,-31.88 -47.91,-72.27 -47.91,-121.19 0,-47.72 16.03,-88.11 47.91,-121.17 32.03,-33.07 72.43,-49.61 121.18,-49.61 361.16,0 541.66,180.5 541.66,541.67z"/>
   </g>
  </g>
  <path class="fil2" d="M5577.24 1093.06l1081.78 0 0 3381.7 -1081.78 0 0 -3381.7zm0 0z"/>
  <g>
  </g>
  <g style="clip-path:url(#id2)">
   <g id="_2343098198768">
    <path class="fil1" d="M3895.84 1229.76c0,28.28 -5.46,54.53 -16.36,78.91 -10.91,24.37 -25.22,45.85 -43.12,64.25 -17.9,18.42 -39.37,32.9 -64.25,43.13 -24.89,10.39 -50.97,15.51 -78.07,15.51 -49.93,0 -92.71,-17.39 -128.51,-52.16 -35.79,-34.59 -64.93,-77.21 -87.78,-127.66 -22.84,-50.46 -39.37,-102.44 -49.59,-156.12 -10.23,-53.69 -15.51,-103.8 -15.51,-150.33 0,-192.08 81.97,-386.04 245.59,-582.39 29.33,-29.33 62.39,-43.81 99.21,-43.81 38.01,0 70.56,13.47 97.66,40.57 27.1,27.1 40.73,59.65 40.73,97.66 0,18.4 -3.92,37.33 -11.42,56.93 -48.91,119.3 -73.29,232.47 -73.29,339.86 0,101.91 22.16,200.6 66.65,296.04 12.1,27.1 18.06,53.7 18.06,79.61zm-535.18 0c0,28.28 -5.45,54.53 -16.19,78.91 -10.91,24.37 -25.23,45.85 -43.13,64.25 -17.89,18.42 -39.36,32.9 -64.25,43.13 -25.06,10.39 -50.96,15.51 -78.06,15.51 -49.94,0 -92.72,-17.39 -128.51,-52.16 -35.8,-34.59 -65.11,-77.21 -87.78,-127.66 -22.83,-50.46 -39.37,-102.44 -49.76,-156.12 -10.23,-53.69 -15.35,-103.8 -15.35,-150.33 0,-192.08 81.82,-386.04 245.61,-582.39 29.14,-29.33 62.21,-43.81 99.19,-43.81 37.84,0 70.39,13.47 97.49,40.57 27.11,27.1 40.74,59.65 40.74,97.66 0,18.4 -3.75,37.33 -11.41,56.93 -48.76,119.3 -73.12,232.47 -73.12,339.86 0,101.91 22.15,200.6 66.64,296.04 11.93,27.1 17.89,53.7 17.89,79.61z"/>
   </g>
  </g>
  <path class="fil2" d="M2863.15 318.92l1047.18 0 0 1138.2 -1047.18 0 0 -1138.2zm0 0z"/>
  <path class="fil1" d="M784.71 5386.06l448.6 -276.8 0 186.13 -292.47 164.98 292.47 179.99 0 186.12 -448.6 -298.61 0 -141.81zm0 0z"/>
  <path class="fil1" d="M1756.02 5820.34c-21.48,-2.72 -62.56,-4.09 -123.4,-4.09l-53.18 0 0 -885.6c28.63,1.36 60,2.04 94.09,2.04 34.08,0 58.12,-1.53 72.26,-4.77l222.94 379.06 214.75 -379.06c13.98,3.24 40.91,4.77 80.45,4.77 39.89,0 74.32,-0.68 102.95,-2.04l0 885.6 -53.18 0c-61.02,0 -101.92,1.37 -122.72,4.09l0 -595.17 -217.47 388.6 -217.49 -357.24 0 563.81zm0 0z"/>
  <path class="fil1" d="M3591.05 5737.86c-72.78,63.22 -160.9,94.75 -264.52,94.75 -101.93,0 -185.96,-30.17 -252.26,-90.67 -65.45,-58.97 -98.18,-132.26 -98.18,-219.53 0,-78.57 34.09,-144.01 102.28,-196.34 20.44,-15.85 42.43,-28.98 66.12,-39.55 -25.57,-42.6 -38.18,-84.19 -38.18,-124.75 0,-40.91 6.48,-75.69 19.78,-104.32 13.63,-28.97 32.04,-54.02 55.22,-74.99 49.94,-43.97 114.2,-66.13 192.93,-66.13 55.91,0 107.04,13.47 153.41,40.22 -2.39,37.33 -3.42,66.13 -3.42,86.59 0,27.78 0.18,45.33 0.68,52.49 0.86,7.34 1.03,12.27 0.68,15 0,2.73 -0.33,5.11 -0.68,6.82 -1.86,2.72 -2.38,5.96 -1.36,9.55l-3.41 4.76c-17.72,-26.75 -52.16,-45.84 -102.94,-57.27 -15.51,-3.57 -35.45,-5.45 -60,-5.45 -24.21,0 -44.14,7.33 -59.99,21.82 -15.51,14.65 -23.19,33.07 -23.19,55.22 0,38.18 26.94,86.58 81.14,145.22 16.7,18.75 36.98,39.89 60.68,63.4l156.11 142.49c13.98,-38.18 21.14,-78.57 21.14,-121.35 0,-25.92 -6.64,-47.39 -19.77,-64.78 -3.24,-4.08 -5.8,-6.81 -7.5,-8.17l0 -8.18 96.81 38.85c18.58,7.34 33.57,12.96 45,17.04 11.24,4.1 19.94,7.51 25.9,10.23 9.89,4.1 15,8.87 15,14.33 0,80.11 -18.07,155.77 -53.86,227.02 45.34,37.32 74.48,58.46 87.27,63.41 12.62,5.11 22.5,8 29.31,8.85 21.31,2.39 33.58,1.36 36.82,-2.72l3.4 3.4 -68.17 150c-7.84,4.94 -20.79,7.49 -38.86,7.49 -27.78,0 -78.91,-31.53 -153.39,-94.75zm-392.7 -111.81c36.81,31.87 80.79,47.71 132.26,47.71 51.82,0 98.18,-14.31 139.08,-42.95l-71.58 -65.44c-76.87,-69.55 -137.72,-130.22 -182.71,-182.04 -48.24,35.12 -72.27,76.19 -72.27,123.4 0,47.38 18.4,87.1 55.22,119.32zm0 0z"/>
  <path class="fil1" d="M4585.82 5820.34c-21.47,-2.72 -62.55,-4.09 -123.4,-4.09l-53.17 0 0 -885.6c28.63,1.36 60,2.04 94.08,2.04 34.09,0 58.12,-1.53 72.27,-4.77l222.93 379.06 214.76 -379.06c13.98,3.24 40.9,4.77 80.44,4.77 39.88,0 74.31,-0.68 102.95,-2.04l0 885.6 -53.18 0c-61.02,0 -101.92,1.37 -122.71,4.09l0 -595.17 -217.49 388.6 -217.48 -357.24 0 563.81zm0 0z"/>
  <path class="fil1" d="M5541.08 5640.36l291.8 -179.99 -291.8 -164.98 0 -186.13 448.6 276.8 0 141.81 -448.6 298.61 0 -186.12zm0 0z"/>
  <path class="fil3" d="M1729.08 6450.31l0 -302.02 -62.03 0 0 -34.09 160.89 0 0 34.09 -62.03 0 0 302.02 -36.83 0zm0 0z"/>
  <path class="fil3" d="M2164.63 6262.82l0 34.08 -81.8 0 0 119.32 100.89 0 0 34.09 -138.39 0 0 -336.11 138.39 0 0 34.09 -100.89 0 0 114.53 81.8 0zm0 0z"/>
  <path class="fil3" d="M2482.24 6110.79c25.91,0 45,7.84 57.27,23.17 12.61,15.51 19.09,35.97 19.09,61.36l0 30.69 -35.45 0 0 -32.73c0,-15 -3.24,-26.76 -9.54,-35.45 -6.48,-8.52 -16.37,-12.96 -30.01,-12.96 -13.63,0 -23.68,4.44 -29.99,12.96 -6.48,8.69 -9.55,20.45 -9.55,35.45l0 177.95c0,15.51 3.07,27.6 9.55,36.12 6.31,8.19 16.36,12.27 29.99,12.27 13.64,0 23.53,-4.08 30.01,-12.27 6.3,-8.52 9.54,-20.61 9.54,-36.12l0 -43.64 35.45 0 0 41.58c0,25.57 -6.48,46.02 -19.09,61.36 -12.27,15.51 -31.36,23.18 -57.27,23.18 -25.56,0 -44.32,-7.67 -56.58,-23.18 -12.27,-15.34 -18.41,-35.79 -18.41,-61.36l0 -173.85c0,-12.6 1.36,-24.19 4.1,-34.76 3.06,-10.39 7.82,-19.26 14.31,-26.6 6.3,-7.14 13.97,-12.95 23.17,-17.04 9.55,-4.08 20.63,-6.13 33.41,-6.13zm0 0z"/>
  <path class="fil3" d="M2821.71 6298.96l0 151.35 -37.5 0 0 -336.11 37.5 0 0 151.35 82.5 0 0 -151.35 37.49 0 0 336.11 -37.49 0 0 -151.35 -82.5 0zm0 0z"/>
  <path class="fil3" d="M3510.48 6110.79c25.91,0 45,7.84 57.27,23.17 12.61,15.51 19.09,35.97 19.09,61.36l0 28.64 -35.46 0 0 -30.68c0,-15 -3.23,-26.76 -9.53,-35.45 -6.49,-8.52 -16.37,-12.96 -30.01,-12.96 -13.63,0 -23.68,4.44 -29.99,12.96 -6.48,8.69 -9.55,20.45 -9.55,35.45l0 177.95c0,15.51 3.07,27.6 9.55,36.12 6.31,8.19 16.36,12.27 29.99,12.27 13.64,0 23.52,-4.08 30.01,-12.27 6.3,-8.52 9.53,-20.61 9.53,-36.12l0 -67.5 -34.77 0 0 -33.41 70.23 0 0 98.85c0,25.57 -6.48,46.02 -19.09,61.36 -12.27,15.51 -31.36,23.18 -57.27,23.18 -25.57,0 -44.32,-7.67 -56.59,-23.18 -12.26,-15.34 -18.4,-35.79 -18.4,-61.36l0 -173.85c0,-12.6 1.36,-24.19 4.08,-34.76 3.07,-10.39 7.84,-19.26 14.32,-26.6 6.31,-7.14 13.98,-12.95 23.18,-17.04 9.55,-4.08 20.63,-6.13 33.41,-6.13zm0 0z"/>
  <path class="fil3" d="M3888.89 6114.2c26.24,0 45.34,6.64 57.26,19.76 11.77,13.3 17.73,32.4 17.73,57.28l0 27.26c0,18.75 -3.4,33.75 -10.23,45.01 -6.82,11.42 -17.38,19.42 -31.35,23.86 15,4.6 25.56,12.95 32.04,25.22 6.82,11.93 10.22,26.94 10.22,44.99l0 52.51c0,7.32 0.17,14.31 0.69,21.12 0.33,6.83 2.21,13.3 5.45,19.1l-37.5 0c-2.38,-4.95 -3.92,-10.23 -4.77,-15.68 -1.03,-5.46 -1.36,-13.81 -1.36,-25.22l0 -52.51c0,-19.08 -4.44,-32.04 -12.96,-38.86 -8.69,-7.16 -20.79,-10.91 -36.13,-10.91l-26.59 0 0 143.18 -37.49 0 0 -336.11 74.99 0zm-9.55 158.85c15,0 26.59,-3.07 34.77,-9.54 8.52,-6.31 12.96,-18.59 12.96,-36.82l0 -32.05c0,-15.33 -3.07,-26.92 -8.87,-34.76 -5.96,-7.67 -16.02,-11.59 -29.99,-11.59l-36.82 0 0 124.76 27.95 0zm0 0z"/>
  <path class="fil3" d="M4192.12 6195.32c0,-25.9 6.31,-46.35 19.09,-61.36 12.61,-15.33 32.04,-23.17 57.95,-23.17 25.9,0 45.17,7.84 57.95,23.17 12.62,15.01 19.1,35.46 19.1,61.36l0 173.85c0,25.57 -6.48,46.02 -19.1,61.36 -12.78,15.51 -32.05,23.18 -57.95,23.18 -25.91,0 -45.34,-7.67 -57.95,-23.18 -12.78,-15.34 -19.09,-35.79 -19.09,-61.36l0 -173.85zm36.82 175.91c0,15.51 3.07,27.6 9.54,36.12 6.83,8.19 17.04,12.27 30.68,12.27 13.63,0 23.52,-4.08 30,-12.27 6.31,-8.52 9.55,-20.61 9.55,-36.12l0 -177.95c0,-15 -3.24,-26.76 -9.55,-35.45 -6.48,-8.52 -16.37,-12.96 -30,-12.96 -13.64,0 -23.85,4.44 -30.68,12.96 -6.47,8.69 -9.54,20.45 -9.54,35.45l0 177.95zm0 0z"/>
  <path class="fil3" d="M4608.86 6371.23c0,15.51 3.07,27.6 9.55,36.12 6.29,8.19 16.36,12.27 29.99,12.27 13.63,0 23.35,-4.08 29.31,-12.27 6.31,-8.52 9.55,-20.61 9.55,-36.12l0 -257.03 34.77 0 0 254.97c0,25.57 -6.13,46.2 -18.4,62.04 -11.94,15.51 -30.69,23.19 -56.59,23.19 -25.56,0 -44.31,-7.68 -56.58,-23.19 -12.29,-15.84 -18.42,-36.47 -18.42,-62.04l0 -254.97 36.82 0 0 257.03zm0 0z"/>
  <path class="fil3" d="M5024.63 6114.2c26.25,0 45.35,7.32 57.27,21.82 11.76,14.65 17.73,34.76 17.73,60.68l0 40.22c0,26.92 -6.48,47.03 -19.09,60.68 -12.27,13.63 -31.88,20.44 -58.63,20.44l-33.4 0 0 132.27 -37.51 0 0 -336.11 73.63 0zm-2.72 169.75c13.98,0 24.21,-3.4 30.68,-10.22 6.81,-6.82 10.22,-18.41 10.22,-34.77l0 -44.32c0,-15.33 -3.06,-26.92 -8.86,-34.76 -5.97,-7.67 -15.67,-11.59 -29.32,-11.59l-36.12 0 0 135.66 33.4 0zm0 0z"/>
 </g>
</svg>
