<svg xmlns="http://www.w3.org/2000/svg" xmlns:xlink="http://www.w3.org/1999/xlink" width="1366" zoomAndPan="magnify" viewBox="0 0 1024.5 576" height="768" preserveAspectRatio="xMidYMid meet" version="1.0"><defs><g/><clipPath id="efa462a73f"><path d="M 394.554688 200 L 433 200 L 433 319.667969 L 394.554688 319.667969 Z M 394.554688 200 " clip-rule="nonzero"/></clipPath><clipPath id="54a77ef596"><path d="M 586.648438 200.71875 L 624.6875 200.71875 L 624.6875 319.664062 L 586.648438 319.664062 Z M 586.648438 200.71875 " clip-rule="nonzero"/></clipPath><clipPath id="921f8400fb"><path d="M 491 173.492188 L 528 173.492188 L 528 213 L 491 213 Z M 491 173.492188 " clip-rule="nonzero"/></clipPath><clipPath id="4f878f180f"><path d="M 440.664062 380.914062 L 583.09375 380.914062 L 583.09375 390.660156 L 440.664062 390.660156 Z M 440.664062 380.914062 " clip-rule="nonzero"/></clipPath></defs><path fill="#4a87ce" d="M 473.019531 240.144531 C 470.195312 240.144531 467.566406 240.679688 465.125 241.75 C 462.683594 242.816406 460.570312 244.257812 458.777344 246.066406 C 456.984375 247.878906 455.566406 250.003906 454.515625 252.445312 C 453.46875 254.886719 452.945312 257.480469 452.945312 260.226562 C 452.945312 262.972656 453.46875 265.566406 454.515625 268.007812 C 455.566406 270.445312 456.984375 272.574219 458.777344 274.382812 C 460.570312 276.195312 462.683594 277.636719 465.125 278.703125 C 467.566406 279.773438 470.195312 280.304688 473.019531 280.304688 C 475.800781 280.304688 478.414062 279.773438 480.855469 278.703125 C 483.292969 277.636719 485.417969 276.1875 487.230469 274.355469 C 489.042969 272.527344 490.46875 270.398438 491.519531 267.976562 C 492.566406 265.554688 493.09375 262.972656 493.09375 260.226562 C 493.09375 257.480469 492.566406 254.898438 491.519531 252.476562 C 490.46875 250.054688 489.042969 247.925781 487.230469 246.09375 C 485.417969 244.265625 483.292969 242.816406 480.855469 241.75 C 478.414062 240.679688 475.800781 240.144531 473.019531 240.144531 Z M 505.046875 260.226562 C 505.046875 269.148438 501.917969 276.703125 495.667969 282.878906 C 489.335938 289.132812 481.789062 292.261719 473.019531 292.261719 C 464.171875 292.261719 456.625 289.132812 450.371094 282.878906 C 444.117188 276.625 440.992188 269.074219 440.992188 260.226562 C 440.992188 251.378906 444.117188 243.828125 450.371094 237.570312 C 456.625 231.316406 464.171875 228.191406 473.019531 228.191406 C 481.789062 228.191406 489.335938 231.316406 495.667969 237.570312 C 498.792969 240.699219 501.128906 244.152344 502.671875 247.925781 C 504.214844 251.703125 505.007812 255.800781 505.046875 260.226562 " fill-opacity="1" fill-rule="nonzero"/><path fill="#4a87ce" d="M 546.222656 240.144531 C 543.402344 240.144531 540.769531 240.679688 538.328125 241.75 C 535.890625 242.816406 533.773438 244.257812 531.980469 246.066406 C 530.1875 247.878906 528.769531 250.003906 527.722656 252.445312 C 526.671875 254.886719 526.148438 257.480469 526.148438 260.226562 C 526.148438 262.972656 526.671875 265.566406 527.722656 268.007812 C 528.769531 270.445312 530.1875 272.574219 531.980469 274.382812 C 533.773438 276.195312 535.890625 277.636719 538.328125 278.703125 C 540.769531 279.773438 543.402344 280.304688 546.222656 280.304688 C 549.003906 280.304688 551.617188 279.773438 554.058594 278.703125 C 556.496094 277.636719 558.621094 276.1875 560.433594 274.355469 C 562.246094 272.527344 563.675781 270.398438 564.722656 267.976562 C 565.769531 265.554688 566.296875 262.972656 566.296875 260.226562 C 566.296875 257.480469 565.769531 254.898438 564.722656 252.476562 C 563.675781 250.054688 562.246094 247.925781 560.433594 246.09375 C 558.621094 244.265625 556.496094 242.816406 554.058594 241.75 C 551.617188 240.679688 549.003906 240.144531 546.222656 240.144531 Z M 578.25 260.226562 C 578.25 269.148438 575.121094 276.703125 568.867188 282.878906 C 562.539062 289.132812 554.992188 292.261719 546.222656 292.261719 C 537.375 292.261719 529.824219 289.132812 523.574219 282.878906 C 517.320312 276.625 514.195312 269.074219 514.195312 260.226562 C 514.195312 251.378906 517.320312 243.828125 523.574219 237.570312 C 529.824219 231.316406 537.375 228.191406 546.222656 228.191406 C 554.992188 228.191406 562.539062 231.316406 568.867188 237.570312 C 571.996094 240.699219 574.332031 244.152344 575.875 247.925781 C 577.417969 251.703125 578.207031 255.800781 578.25 260.226562 " fill-opacity="1" fill-rule="nonzero"/><g clip-path="url(#efa462a73f)"><path fill="#211d1d" d="M 426.582031 200.789062 C 428.296875 200.789062 429.714844 201.371094 430.839844 202.53125 C 431.964844 203.695312 432.527344 205.117188 432.527344 206.792969 C 432.527344 208.511719 431.964844 209.933594 430.839844 211.054688 C 429.714844 212.183594 428.296875 212.746094 426.582031 212.746094 C 421.851562 212.746094 419.488281 215.109375 419.488281 219.839844 L 419.488281 247.183594 C 419.488281 252.675781 418.230469 257.023438 415.714844 260.226562 C 418.230469 263.429688 419.488281 267.777344 419.488281 273.269531 L 419.488281 300.613281 C 419.488281 305.34375 421.851562 307.707031 426.582031 307.707031 C 428.296875 307.707031 429.714844 308.269531 430.839844 309.394531 C 431.964844 310.519531 432.527344 311.941406 432.527344 313.65625 C 432.527344 315.375 431.964844 316.804688 430.839844 317.949219 C 429.714844 319.09375 428.296875 319.664062 426.582031 319.664062 C 413.882812 319.664062 407.535156 313.3125 407.535156 300.613281 L 407.535156 273.269531 C 407.535156 268.539062 405.191406 266.175781 400.5 266.175781 C 398.785156 266.175781 397.363281 265.613281 396.238281 264.488281 C 395.113281 263.363281 394.554688 261.941406 394.554688 260.226562 C 394.554688 258.511719 395.113281 257.089844 396.238281 255.964844 C 397.363281 254.839844 398.785156 254.277344 400.5 254.277344 C 405.191406 254.277344 407.535156 251.910156 407.535156 247.183594 L 407.535156 219.839844 C 407.535156 207.136719 413.882812 200.789062 426.582031 200.789062 " fill-opacity="1" fill-rule="nonzero"/></g><g clip-path="url(#54a77ef596)"><path fill="#211d1d" d="M 611.707031 219.839844 L 611.707031 247.183594 C 611.707031 251.910156 614.050781 254.277344 618.738281 254.277344 C 620.457031 254.277344 621.875 254.839844 623 255.964844 C 624.125 257.089844 624.6875 258.511719 624.6875 260.226562 C 624.6875 261.941406 624.125 263.363281 623 264.488281 C 621.875 265.613281 620.457031 266.175781 618.738281 266.175781 C 614.050781 266.175781 611.707031 268.539062 611.707031 273.269531 L 611.707031 300.613281 C 611.707031 313.3125 605.355469 319.664062 592.660156 319.664062 C 590.945312 319.664062 589.523438 319.09375 588.398438 317.949219 C 587.273438 316.804688 586.714844 315.375 586.714844 313.65625 C 586.714844 311.941406 587.273438 310.519531 588.398438 309.394531 C 589.523438 308.269531 590.945312 307.707031 592.660156 307.707031 C 597.390625 307.707031 599.753906 305.34375 599.753906 300.613281 L 599.753906 273.269531 C 599.753906 267.777344 601.011719 263.429688 603.527344 260.226562 C 601.011719 257.023438 599.753906 252.675781 599.753906 247.183594 L 599.753906 219.839844 C 599.753906 215.109375 597.390625 212.746094 592.660156 212.746094 C 590.945312 212.746094 589.523438 212.183594 588.398438 211.054688 C 587.273438 209.933594 586.714844 208.511719 586.714844 206.792969 C 586.714844 205.117188 587.273438 203.695312 588.398438 202.53125 C 589.523438 201.371094 590.945312 200.789062 592.660156 200.789062 C 605.355469 200.789062 611.707031 207.136719 611.707031 219.839844 " fill-opacity="1" fill-rule="nonzero"/></g><g clip-path="url(#921f8400fb)"><path fill="#211d1d" d="M 527.519531 205.53125 C 527.519531 206.523438 527.328125 207.445312 526.949219 208.304688 C 526.566406 209.164062 526.0625 209.917969 525.433594 210.566406 C 524.804688 211.214844 524.050781 211.71875 523.175781 212.082031 C 522.296875 212.445312 521.382812 212.625 520.429688 212.625 C 518.675781 212.625 517.167969 212.015625 515.910156 210.792969 C 514.652344 209.574219 513.625 208.078125 512.820312 206.304688 C 512.023438 204.53125 511.441406 202.699219 511.078125 200.8125 C 510.714844 198.921875 510.535156 197.160156 510.535156 195.519531 C 510.535156 188.769531 513.414062 181.945312 519.171875 175.039062 C 520.199219 174.007812 521.363281 173.496094 522.660156 173.496094 C 523.992188 173.496094 525.136719 173.972656 526.089844 174.925781 C 527.042969 175.878906 527.519531 177.023438 527.519531 178.359375 C 527.519531 179.007812 527.386719 179.671875 527.121094 180.359375 C 525.402344 184.554688 524.546875 188.539062 524.546875 192.316406 C 524.546875 195.902344 525.328125 199.371094 526.890625 202.726562 C 527.3125 203.679688 527.519531 204.617188 527.519531 205.53125 Z M 508.707031 205.53125 C 508.707031 206.523438 508.515625 207.445312 508.132812 208.304688 C 507.75 209.164062 507.246094 209.917969 506.617188 210.566406 C 505.988281 211.214844 505.234375 211.71875 504.359375 212.082031 C 503.480469 212.445312 502.566406 212.625 501.613281 212.625 C 499.859375 212.625 498.355469 212.015625 497.09375 210.792969 C 495.835938 209.574219 494.808594 208.078125 494.007812 206.304688 C 493.207031 204.53125 492.625 202.699219 492.261719 200.8125 C 491.902344 198.921875 491.71875 197.160156 491.71875 195.519531 C 491.71875 188.769531 494.597656 181.945312 500.355469 175.039062 C 501.382812 174.007812 502.546875 173.496094 503.84375 173.496094 C 505.175781 173.496094 506.320312 173.972656 507.273438 174.925781 C 508.226562 175.878906 508.707031 177.023438 508.707031 178.359375 C 508.707031 179.007812 508.570312 179.671875 508.304688 180.359375 C 506.589844 184.554688 505.730469 188.539062 505.730469 192.316406 C 505.730469 195.902344 506.511719 199.371094 508.078125 202.726562 C 508.496094 203.679688 508.707031 204.617188 508.707031 205.53125 " fill-opacity="1" fill-rule="nonzero"/></g><g fill="#211d1d" fill-opacity="1"><g transform="translate(410.106819, 369.91862)"><g><path d="M 8.03125 -15.140625 L 23.8125 -24.890625 L 23.8125 -18.328125 L 13.53125 -12.53125 L 23.8125 -6.1875 L 23.8125 0.34375 L 8.03125 -10.140625 Z M 8.03125 -15.140625 "/></g></g></g><g fill="#211d1d" fill-opacity="1"><g transform="translate(441.980091, 369.91862)"><g><path d="M 10.328125 0.140625 C 9.578125 0.046875 8.132812 0 6 0 L 4.140625 0 L 4.140625 -31.171875 C 5.128906 -31.109375 6.222656 -31.078125 7.421875 -31.078125 C 8.628906 -31.078125 9.484375 -31.140625 9.984375 -31.265625 L 17.828125 -17.921875 L 25.375 -31.265625 C 25.875 -31.140625 26.820312 -31.078125 28.21875 -31.078125 C 29.625 -31.078125 30.828125 -31.109375 31.828125 -31.171875 L 31.828125 0 L 29.953125 0 C 27.816406 0 26.378906 0.046875 25.640625 0.140625 L 25.640625 -20.796875 L 18 -7.125 L 10.328125 -19.703125 Z M 10.328125 0.140625 "/></g></g></g><g fill="#211d1d" fill-opacity="1"><g transform="translate(477.942677, 369.91862)"><g/></g></g><g fill="#211d1d" fill-opacity="1"><g transform="translate(493.80921, 369.91862)"><g><path d="M 23.09375 -2.75 C 20.519531 -0.53125 17.410156 0.578125 13.765625 0.578125 C 10.179688 0.578125 7.222656 -0.488281 4.890625 -2.625 C 2.597656 -4.6875 1.453125 -7.253906 1.453125 -10.328125 C 1.453125 -13.097656 2.648438 -15.40625 5.046875 -17.25 C 5.765625 -17.8125 6.535156 -18.273438 7.359375 -18.640625 C 6.472656 -20.140625 6.03125 -21.601562 6.03125 -23.03125 C 6.03125 -24.46875 6.265625 -25.691406 6.734375 -26.703125 C 7.203125 -27.722656 7.847656 -28.597656 8.671875 -29.328125 C 10.429688 -30.890625 12.691406 -31.671875 15.453125 -31.671875 C 17.410156 -31.671875 19.207031 -31.203125 20.84375 -30.265625 C 20.769531 -28.941406 20.734375 -27.921875 20.734375 -27.203125 C 20.734375 -26.222656 20.742188 -25.609375 20.765625 -25.359375 C 20.785156 -25.109375 20.789062 -24.929688 20.78125 -24.828125 C 20.78125 -24.722656 20.769531 -24.640625 20.75 -24.578125 C 20.6875 -24.484375 20.671875 -24.375 20.703125 -24.25 L 20.59375 -24.09375 C 19.96875 -25.03125 18.757812 -25.703125 16.96875 -26.109375 C 16.414062 -26.234375 15.710938 -26.296875 14.859375 -26.296875 C 14.003906 -26.296875 13.300781 -26.035156 12.75 -25.515625 C 12.195312 -25.003906 11.921875 -24.359375 11.921875 -23.578125 C 11.921875 -22.234375 12.867188 -20.53125 14.765625 -18.46875 C 15.359375 -17.8125 16.078125 -17.066406 16.921875 -16.234375 L 22.40625 -11.21875 C 22.90625 -12.570312 23.15625 -14 23.15625 -15.5 C 23.15625 -16.414062 22.921875 -17.175781 22.453125 -17.78125 C 22.347656 -17.925781 22.265625 -18.019531 22.203125 -18.0625 L 22.203125 -18.34375 L 25.59375 -16.984375 C 26.25 -16.722656 26.773438 -16.519531 27.171875 -16.375 C 27.578125 -16.238281 27.882812 -16.125 28.09375 -16.03125 C 28.445312 -15.875 28.625 -15.703125 28.625 -15.515625 C 28.625 -12.710938 27.992188 -10.050781 26.734375 -7.53125 C 28.328125 -6.21875 29.347656 -5.472656 29.796875 -5.296875 C 30.242188 -5.128906 30.585938 -5.03125 30.828125 -5 C 31.566406 -4.90625 32 -4.9375 32.125 -5.09375 L 32.25 -4.953125 L 29.84375 0.296875 C 29.570312 0.484375 29.117188 0.578125 28.484375 0.578125 C 27.503906 0.578125 25.707031 -0.53125 23.09375 -2.75 Z M 9.25 -6.703125 C 10.539062 -5.585938 12.09375 -5.03125 13.90625 -5.03125 C 15.726562 -5.03125 17.363281 -5.523438 18.8125 -6.515625 L 16.28125 -8.828125 C 13.59375 -11.273438 11.453125 -13.410156 9.859375 -15.234375 C 8.160156 -14.003906 7.3125 -12.554688 7.3125 -10.890625 C 7.3125 -9.222656 7.957031 -7.828125 9.25 -6.703125 Z M 9.25 -6.703125 "/></g></g></g><g fill="#211d1d" fill-opacity="1"><g transform="translate(525.682482, 369.91862)"><g/></g></g><g fill="#211d1d" fill-opacity="1"><g transform="translate(541.549016, 369.91862)"><g><path d="M 10.328125 0.140625 C 9.578125 0.046875 8.132812 0 6 0 L 4.140625 0 L 4.140625 -31.171875 C 5.128906 -31.109375 6.222656 -31.078125 7.421875 -31.078125 C 8.628906 -31.078125 9.484375 -31.140625 9.984375 -31.265625 L 17.828125 -17.921875 L 25.375 -31.265625 C 25.875 -31.140625 26.820312 -31.078125 28.21875 -31.078125 C 29.625 -31.078125 30.828125 -31.109375 31.828125 -31.171875 L 31.828125 0 L 29.953125 0 C 27.816406 0 26.378906 0.046875 25.640625 0.140625 L 25.640625 -20.796875 L 18 -7.125 L 10.328125 -19.703125 Z M 10.328125 0.140625 "/></g></g></g><g fill="#211d1d" fill-opacity="1"><g transform="translate(577.511602, 369.91862)"><g><path d="M 7.984375 -6.1875 L 18.25 -12.53125 L 7.984375 -18.328125 L 7.984375 -24.890625 L 23.765625 -15.140625 L 23.765625 -10.140625 L 7.984375 0.34375 Z M 7.984375 -6.1875 "/></g></g></g><g fill="#211d1d" fill-opacity="1"><g transform="translate(441.987212, 434.229193)"><g><path d="M 6.328125 0 L 6.328125 -28.25 L 0.53125 -28.25 L 0.53125 -31.4375 L 15.578125 -31.4375 L 15.578125 -28.25 L 9.796875 -28.25 L 9.796875 0 Z M 6.328125 0 "/></g></g></g><g fill="#211d1d" fill-opacity="1"><g transform="translate(454.379405, 434.229193)"><g><path d="M 12.984375 -17.515625 L 12.984375 -14.375 L 5.296875 -14.375 L 5.296875 -3.1875 L 14.734375 -3.1875 L 14.734375 0 L 1.796875 0 L 1.796875 -31.4375 L 14.734375 -31.4375 L 14.734375 -28.25 L 5.296875 -28.25 L 5.296875 -17.515625 Z M 12.984375 -17.515625 "/></g></g></g><g fill="#211d1d" fill-opacity="1"><g transform="translate(466.771597, 434.229193)"><g><path d="M 8.578125 -31.75 C 11.003906 -31.75 12.789062 -31.03125 13.9375 -29.59375 C 15.09375 -28.15625 15.671875 -26.238281 15.671875 -23.84375 L 15.671875 -21.015625 L 12.34375 -21.015625 L 12.34375 -24.03125 C 12.34375 -25.46875 12.050781 -26.582031 11.46875 -27.375 C 10.882812 -28.164062 9.953125 -28.5625 8.671875 -28.5625 C 7.410156 -28.5625 6.476562 -28.164062 5.875 -27.375 C 5.28125 -26.582031 4.984375 -25.46875 4.984375 -24.03125 L 4.984375 -7.40625 C 4.984375 -5.96875 5.28125 -4.851562 5.875 -4.0625 C 6.476562 -3.269531 7.410156 -2.875 8.671875 -2.875 C 9.953125 -2.875 10.882812 -3.269531 11.46875 -4.0625 C 12.050781 -4.851562 12.34375 -5.96875 12.34375 -7.40625 L 12.34375 -11.5 L 15.671875 -11.5 L 15.671875 -7.59375 C 15.671875 -5.195312 15.09375 -3.28125 13.9375 -1.84375 C 12.789062 -0.40625 11.003906 0.3125 8.578125 0.3125 C 6.179688 0.3125 4.40625 -0.40625 3.25 -1.84375 C 2.101562 -3.28125 1.53125 -5.195312 1.53125 -7.59375 L 1.53125 -23.84375 C 1.53125 -25.039062 1.671875 -26.125 1.953125 -27.09375 C 2.234375 -28.070312 2.664062 -28.90625 3.25 -29.59375 C 3.832031 -30.28125 4.566406 -30.8125 5.453125 -31.1875 C 6.335938 -31.5625 7.378906 -31.75 8.578125 -31.75 Z M 8.578125 -31.75 "/></g></g></g><g fill="#211d1d" fill-opacity="1"><g transform="translate(480.061829, 434.229193)"><g><path d="M 5.296875 -14.140625 L 5.296875 0 L 1.796875 0 L 1.796875 -31.4375 L 5.296875 -31.4375 L 5.296875 -17.28125 L 13.015625 -17.28125 L 13.015625 -31.4375 L 16.53125 -31.4375 L 16.53125 0 L 13.015625 0 L 13.015625 -14.140625 Z M 5.296875 -14.140625 "/></g></g></g><g fill="#211d1d" fill-opacity="1"><g transform="translate(494.610058, 434.229193)"><g/></g></g><g fill="#211d1d" fill-opacity="1"><g transform="translate(497.797394, 434.229193)"><g/></g></g><g fill="#211d1d" fill-opacity="1"><g transform="translate(500.98473, 434.229193)"><g/></g></g><g fill="#211d1d" fill-opacity="1"><g transform="translate(504.172066, 434.229193)"><g/></g></g><g fill="#211d1d" fill-opacity="1"><g transform="translate(507.359401, 434.229193)"><g/></g></g><g fill="#211d1d" fill-opacity="1"><g transform="translate(510.557396, 434.229193)"><g><path d="M 8.578125 -31.75 C 11.003906 -31.75 12.789062 -31.03125 13.9375 -29.59375 C 15.09375 -28.15625 15.671875 -26.238281 15.671875 -23.84375 L 15.671875 -21.15625 L 12.34375 -21.15625 L 12.34375 -24.03125 C 12.34375 -25.46875 12.050781 -26.582031 11.46875 -27.375 C 10.882812 -28.164062 9.953125 -28.5625 8.671875 -28.5625 C 7.410156 -28.5625 6.476562 -28.164062 5.875 -27.375 C 5.28125 -26.582031 4.984375 -25.46875 4.984375 -24.03125 L 4.984375 -7.40625 C 4.984375 -5.96875 5.28125 -4.851562 5.875 -4.0625 C 6.476562 -3.269531 7.410156 -2.875 8.671875 -2.875 C 9.953125 -2.875 10.882812 -3.269531 11.46875 -4.0625 C 12.050781 -4.851562 12.34375 -5.96875 12.34375 -7.40625 L 12.34375 -13.703125 L 9.109375 -13.703125 L 9.109375 -16.84375 L 15.671875 -16.84375 L 15.671875 -7.59375 C 15.671875 -5.195312 15.09375 -3.28125 13.9375 -1.84375 C 12.789062 -0.40625 11.003906 0.3125 8.578125 0.3125 C 6.179688 0.3125 4.40625 -0.40625 3.25 -1.84375 C 2.101562 -3.28125 1.53125 -5.195312 1.53125 -7.59375 L 1.53125 -23.84375 C 1.53125 -25.039062 1.671875 -26.125 1.953125 -27.09375 C 2.234375 -28.070312 2.664062 -28.90625 3.25 -29.59375 C 3.832031 -30.28125 4.566406 -30.8125 5.453125 -31.1875 C 6.335938 -31.5625 7.378906 -31.75 8.578125 -31.75 Z M 8.578125 -31.75 "/></g></g></g><g fill="#211d1d" fill-opacity="1"><g transform="translate(523.982332, 434.229193)"><g><path d="M 8.796875 -31.4375 C 11.285156 -31.4375 13.078125 -30.820312 14.171875 -29.59375 C 15.265625 -28.363281 15.8125 -26.582031 15.8125 -24.25 L 15.8125 -21.6875 C 15.8125 -19.945312 15.492188 -18.539062 14.859375 -17.46875 C 14.234375 -16.394531 13.25 -15.644531 11.90625 -15.21875 C 13.34375 -14.800781 14.359375 -14.03125 14.953125 -12.90625 C 15.554688 -11.78125 15.859375 -10.367188 15.859375 -8.671875 L 15.859375 -3.765625 C 15.859375 -3.078125 15.882812 -2.410156 15.9375 -1.765625 C 16 -1.128906 16.179688 -0.539062 16.484375 0 L 12.9375 0 C 12.726562 -0.445312 12.578125 -0.929688 12.484375 -1.453125 C 12.390625 -1.984375 12.34375 -2.769531 12.34375 -3.8125 L 12.34375 -8.75 C 12.34375 -10.519531 11.945312 -11.738281 11.15625 -12.40625 C 10.363281 -13.082031 9.234375 -13.421875 7.765625 -13.421875 L 5.296875 -13.421875 L 5.296875 0 L 1.796875 0 L 1.796875 -31.4375 Z M 7.90625 -16.609375 C 9.3125 -16.609375 10.398438 -16.898438 11.171875 -17.484375 C 11.953125 -18.066406 12.34375 -19.210938 12.34375 -20.921875 L 12.34375 -23.9375 C 12.34375 -25.375 12.066406 -26.453125 11.515625 -27.171875 C 10.960938 -27.890625 10.03125 -28.25 8.71875 -28.25 L 5.296875 -28.25 L 5.296875 -16.609375 Z M 7.90625 -16.609375 "/></g></g></g><g fill="#211d1d" fill-opacity="1"><g transform="translate(537.901184, 434.229193)"><g><path d="M 1.53125 -23.84375 C 1.53125 -26.269531 2.117188 -28.191406 3.296875 -29.609375 C 4.484375 -31.035156 6.289062 -31.75 8.71875 -31.75 C 11.132812 -31.75 12.941406 -31.035156 14.140625 -29.609375 C 15.335938 -28.191406 15.9375 -26.269531 15.9375 -23.84375 L 15.9375 -7.59375 C 15.9375 -5.195312 15.335938 -3.28125 14.140625 -1.84375 C 12.941406 -0.40625 11.132812 0.3125 8.71875 0.3125 C 6.289062 0.3125 4.484375 -0.40625 3.296875 -1.84375 C 2.117188 -3.28125 1.53125 -5.195312 1.53125 -7.59375 Z M 4.984375 -7.40625 C 4.984375 -5.96875 5.289062 -4.851562 5.90625 -4.0625 C 6.519531 -3.269531 7.457031 -2.875 8.71875 -2.875 C 10 -2.875 10.9375 -3.269531 11.53125 -4.0625 C 12.132812 -4.851562 12.4375 -5.96875 12.4375 -7.40625 L 12.4375 -24.03125 C 12.4375 -25.46875 12.132812 -26.582031 11.53125 -27.375 C 10.9375 -28.164062 10 -28.5625 8.71875 -28.5625 C 7.457031 -28.5625 6.519531 -28.164062 5.90625 -27.375 C 5.289062 -26.582031 4.984375 -25.46875 4.984375 -24.03125 Z M 4.984375 -7.40625 "/></g></g></g><g fill="#211d1d" fill-opacity="1"><g transform="translate(551.59553, 434.229193)"><g><path d="M 5.125 -7.40625 C 5.125 -5.96875 5.414062 -4.851562 6 -4.0625 C 6.582031 -3.269531 7.515625 -2.875 8.796875 -2.875 C 10.054688 -2.875 10.976562 -3.269531 11.5625 -4.0625 C 12.144531 -4.851562 12.4375 -5.96875 12.4375 -7.40625 L 12.4375 -31.4375 L 15.71875 -31.4375 L 15.71875 -7.59375 C 15.71875 -5.195312 15.144531 -3.269531 14 -1.8125 C 12.863281 -0.363281 11.085938 0.359375 8.671875 0.359375 C 6.273438 0.359375 4.503906 -0.363281 3.359375 -1.8125 C 2.222656 -3.269531 1.65625 -5.195312 1.65625 -7.59375 L 1.65625 -31.4375 L 5.125 -31.4375 Z M 5.125 -7.40625 "/></g></g></g><g fill="#211d1d" fill-opacity="1"><g transform="translate(565.200072, 434.229193)"><g><path d="M 8.671875 -31.4375 C 11.148438 -31.4375 12.941406 -30.753906 14.046875 -29.390625 C 15.160156 -28.023438 15.71875 -26.144531 15.71875 -23.75 L 15.71875 -19.984375 C 15.71875 -17.472656 15.125 -15.578125 13.9375 -14.296875 C 12.757812 -13.023438 10.910156 -12.390625 8.390625 -12.390625 L 5.296875 -12.390625 L 5.296875 0 L 1.796875 0 L 1.796875 -31.4375 Z M 8.390625 -15.53125 C 9.710938 -15.53125 10.6875 -15.851562 11.3125 -16.5 C 11.945312 -17.144531 12.265625 -18.234375 12.265625 -19.765625 L 12.265625 -23.9375 C 12.265625 -25.375 11.984375 -26.453125 11.421875 -27.171875 C 10.867188 -27.890625 9.953125 -28.25 8.671875 -28.25 L 5.296875 -28.25 L 5.296875 -15.53125 Z M 8.390625 -15.53125 "/></g></g></g><g clip-path="url(#4f878f180f)"><path fill="#4a87ce" d="M 656.515625 402.035156 C 654.671875 416.054688 645.566406 420.554688 632.46875 420.453125 C 632.265625 420.453125 632.058594 420.453125 631.855469 420.453125 C 597.578125 425.058594 558.902344 421.066406 524.113281 421.375 C 485.644531 421.679688 447.070312 421.785156 408.597656 421.785156 C 333.289062 421.785156 257.984375 421.375 182.679688 421.988281 C 163.75 422.089844 159.246094 403.570312 159.65625 384.949219 C 159.554688 384.335938 159.453125 383.722656 159.347656 383.105469 C 159.246094 381.777344 159.144531 380.550781 159.246094 379.21875 C 158.941406 378.09375 158.839844 376.96875 158.941406 375.535156 C 159.859375 360.902344 160.78125 344.328125 173.46875 338.292969 C 175.207031 336.859375 177.5625 335.9375 180.632812 336.246094 C 180.835938 336.246094 180.9375 336.246094 181.144531 336.246094 C 181.757812 336.144531 182.269531 336.039062 182.882812 336.039062 C 261.359375 336.039062 340.042969 337.0625 418.726562 337.269531 C 455.457031 337.371094 492.089844 337.269531 528.820312 336.960938 C 562.382812 336.757812 596.863281 333.789062 630.21875 336.550781 C 644.746094 337.78125 653.855469 340.441406 655.695312 356.199219 C 657.332031 371.136719 658.457031 387.199219 656.515625 402.035156 Z M 656.515625 402.035156 " fill-opacity="1" fill-rule="nonzero"/></g><path stroke-linecap="butt" transform="matrix(0.749634, -0.000000000000002045, 0.000000000000002045, 0.749634, 486.122683, 319.723)" fill="none" stroke-linejoin="miter" d="M 14.99999 2.000517 L 47.896247 2.000517 " stroke="#000000" stroke-width="4" stroke-opacity="1" stroke-miterlimit="4"/><path stroke-linecap="round" transform="matrix(0.749634, -0.000000000000002045, 0.000000000000002045, 0.749634, 486.122683, 319.723)" fill="none" stroke-linejoin="round" d="M 1.998856 -4.002412 L 13.999502 -4.002412 L 13.999502 7.998235 L 1.998856 7.998235 Z M 1.998856 -4.002412 " stroke="#000000" stroke-width="4" stroke-opacity="1" stroke-miterlimit="4"/><path stroke-linecap="round" transform="matrix(0.749634, -0.000000000000002045, 0.000000000000002045, 0.749634, 486.122683, 319.723)" fill="none" stroke-linejoin="round" d="M 60.897381 -4.002412 L 48.896735 -4.002412 L 48.896735 7.998235 L 60.897381 7.998235 Z M 60.897381 -4.002412 " stroke="#000000" stroke-width="4" stroke-opacity="1" stroke-miterlimit="4"/></svg>