<svg xmlns="http://www.w3.org/2000/svg" xmlns:xlink="http://www.w3.org/1999/xlink" width="1366" zoomAndPan="magnify" viewBox="0 0 1024.5 576" height="768" preserveAspectRatio="xMidYMid meet" version="1.0"><defs><clipPath id="509504dc1f"><path d="M 0 0.140625 L 1024 0.140625 L 1024 575.859375 L 0 575.859375 Z M 0 0.140625 " clip-rule="nonzero"/></clipPath><clipPath id="8de68cecc7"><path d="M 68.90625 105 L 216 105 L 216 563.117188 L 68.90625 563.117188 Z M 68.90625 105 " clip-rule="nonzero"/></clipPath><clipPath id="5888959423"><path d="M 808.496094 105.011719 L 954.953125 105.011719 L 954.953125 563.09375 L 808.496094 563.09375 Z M 808.496094 105.011719 " clip-rule="nonzero"/></clipPath><clipPath id="58cc6607a0"><path d="M 443 0.140625 L 581 0.140625 L 581 151 L 443 151 Z M 443 0.140625 " clip-rule="nonzero"/></clipPath></defs><g clip-path="url(#509504dc1f)"><path fill="#ffffff" d="M 0 0.140625 L 1024 0.140625 L 1024 575.859375 L 0 575.859375 Z M 0 0.140625 " fill-opacity="1" fill-rule="nonzero"/><path fill="#ffffff" d="M 0 0.140625 L 1024 0.140625 L 1024 575.859375 L 0 575.859375 Z M 0 0.140625 " fill-opacity="1" fill-rule="nonzero"/></g><path fill="#4a87ce" d="M 371.011719 256.851562 C 360.144531 256.851562 350.015625 258.910156 340.621094 263.019531 C 331.222656 267.132812 323.078125 272.679688 316.179688 279.65625 C 309.277344 286.632812 303.808594 294.820312 299.777344 304.21875 C 295.738281 313.621094 293.71875 323.609375 293.71875 334.183594 C 293.71875 344.757812 295.738281 354.746094 299.777344 364.148438 C 303.808594 373.546875 309.277344 381.738281 316.179688 388.710938 C 323.078125 395.691406 331.222656 401.238281 340.621094 405.347656 C 350.015625 409.457031 360.144531 411.515625 371.011719 411.515625 C 381.722656 411.515625 391.78125 409.457031 401.175781 405.347656 C 410.566406 401.238281 418.753906 395.652344 425.726562 388.601562 C 432.699219 381.550781 438.199219 373.367188 442.242188 364.035156 C 446.273438 354.707031 448.296875 344.757812 448.296875 334.183594 C 448.296875 323.609375 446.273438 313.660156 442.242188 304.332031 C 438.199219 295.003906 432.699219 286.8125 425.726562 279.765625 C 418.753906 272.714844 410.566406 267.132812 401.175781 263.019531 C 391.78125 258.910156 381.722656 256.851562 371.011719 256.851562 Z M 494.316406 334.183594 C 494.316406 368.550781 482.273438 397.632812 458.207031 421.425781 C 433.832031 445.519531 404.769531 457.5625 371.011719 457.5625 C 336.949219 457.5625 307.882812 445.519531 283.8125 421.425781 C 259.734375 397.34375 247.699219 368.257812 247.699219 334.183594 C 247.699219 300.109375 259.734375 271.027344 283.8125 246.9375 C 307.882812 222.851562 336.949219 210.804688 371.011719 210.804688 C 404.769531 210.804688 433.832031 222.851562 458.207031 246.9375 C 470.242188 258.980469 479.230469 272.273438 485.175781 286.8125 C 491.125 301.355469 494.164062 317.144531 494.316406 334.183594 " fill-opacity="1" fill-rule="nonzero"/><path fill="#4a87ce" d="M 652.851562 256.851562 C 641.992188 256.851562 631.859375 258.910156 622.46875 263.019531 C 613.070312 267.132812 604.921875 272.679688 598.027344 279.65625 C 591.121094 286.632812 585.65625 294.820312 581.621094 304.21875 C 577.582031 313.621094 575.566406 323.609375 575.566406 334.183594 C 575.566406 344.757812 577.582031 354.746094 581.621094 364.148438 C 585.65625 373.546875 591.121094 381.738281 598.027344 388.710938 C 604.921875 395.691406 613.070312 401.238281 622.46875 405.347656 C 631.859375 409.457031 641.992188 411.515625 652.851562 411.515625 C 663.5625 411.515625 673.617188 409.457031 683.023438 405.347656 C 692.410156 401.238281 700.597656 395.652344 707.570312 388.601562 C 714.542969 381.550781 720.050781 373.367188 724.082031 364.035156 C 728.117188 354.707031 730.140625 344.757812 730.140625 334.183594 C 730.140625 323.609375 728.117188 313.660156 724.082031 304.332031 C 720.050781 295.003906 714.542969 286.8125 707.570312 279.765625 C 700.597656 272.714844 692.410156 267.132812 683.023438 263.019531 C 673.617188 258.910156 663.5625 256.851562 652.851562 256.851562 Z M 776.160156 334.183594 C 776.160156 368.550781 764.121094 397.632812 740.046875 421.425781 C 715.679688 445.519531 686.613281 457.5625 652.851562 457.5625 C 618.792969 457.5625 589.726562 445.519531 565.660156 421.425781 C 541.582031 397.34375 529.546875 368.257812 529.546875 334.183594 C 529.546875 300.109375 541.582031 271.027344 565.660156 246.9375 C 589.726562 222.851562 618.792969 210.804688 652.851562 210.804688 C 686.613281 210.804688 715.679688 222.851562 740.046875 246.9375 C 752.082031 258.980469 761.074219 272.273438 767.023438 286.8125 C 772.964844 301.355469 776.007812 317.144531 776.160156 334.183594 " fill-opacity="1" fill-rule="nonzero"/><g clip-path="url(#8de68cecc7)"><path fill="#211d1d" d="M 192.210938 105.273438 C 198.816406 105.273438 204.285156 107.515625 208.617188 111.992188 C 212.945312 116.476562 215.113281 121.945312 215.113281 128.40625 C 215.113281 135.015625 212.945312 140.492188 208.617188 144.820312 C 204.285156 149.152344 198.816406 151.320312 192.210938 151.320312 C 174.007812 151.320312 164.910156 160.425781 164.910156 178.640625 L 164.910156 283.949219 C 164.910156 305.101562 160.0625 321.847656 150.375 334.183594 C 160.0625 346.519531 164.910156 363.265625 164.910156 384.414062 L 164.910156 489.726562 C 164.910156 507.9375 174.007812 517.050781 192.210938 517.050781 C 198.816406 517.050781 204.285156 519.210938 208.617188 523.550781 C 212.945312 527.878906 215.113281 533.347656 215.113281 539.960938 C 215.113281 546.570312 212.945312 552.082031 208.617188 556.488281 C 204.285156 560.890625 198.816406 563.09375 192.210938 563.09375 C 143.328125 563.09375 118.886719 538.636719 118.886719 489.726562 L 118.886719 384.414062 C 118.886719 366.207031 109.859375 357.09375 91.804688 357.09375 C 85.199219 357.09375 79.730469 354.929688 75.398438 350.597656 C 71.066406 346.269531 68.90625 340.792969 68.90625 334.183594 C 68.90625 327.574219 71.066406 322.101562 75.398438 317.769531 C 79.730469 313.441406 85.199219 311.269531 91.804688 311.269531 C 109.859375 311.269531 118.886719 302.164062 118.886719 283.949219 L 118.886719 178.640625 C 118.886719 129.726562 143.328125 105.273438 192.210938 105.273438 " fill-opacity="1" fill-rule="nonzero"/></g><g clip-path="url(#5888959423)"><path fill="#211d1d" d="M 904.972656 178.640625 L 904.972656 283.949219 C 904.972656 302.164062 914 311.269531 932.050781 311.269531 C 938.664062 311.269531 944.128906 313.441406 948.457031 317.769531 C 952.792969 322.101562 954.953125 327.574219 954.953125 334.183594 C 954.953125 340.792969 952.792969 346.269531 948.457031 350.597656 C 944.128906 354.929688 938.664062 357.09375 932.050781 357.09375 C 914 357.09375 904.972656 366.207031 904.972656 384.414062 L 904.972656 489.726562 C 904.972656 538.636719 880.535156 563.09375 831.644531 563.09375 C 825.039062 563.09375 819.574219 560.890625 815.242188 556.488281 C 810.914062 552.082031 808.753906 546.570312 808.753906 539.960938 C 808.753906 533.347656 810.914062 527.878906 815.242188 523.550781 C 819.574219 519.210938 825.039062 517.050781 831.644531 517.050781 C 849.855469 517.050781 858.957031 507.9375 858.957031 489.726562 L 858.957031 384.414062 C 858.957031 363.265625 863.796875 346.519531 873.484375 334.183594 C 863.796875 321.847656 858.957031 305.101562 858.957031 283.949219 L 858.957031 178.640625 C 858.957031 160.425781 849.855469 151.320312 831.644531 151.320312 C 825.039062 151.320312 819.574219 149.152344 815.242188 144.820312 C 810.914062 140.492188 808.753906 135.015625 808.753906 128.40625 C 808.753906 121.945312 810.914062 116.476562 815.242188 111.992188 C 819.574219 107.515625 825.039062 105.273438 831.644531 105.273438 C 880.535156 105.273438 904.972656 129.726562 904.972656 178.640625 " fill-opacity="1" fill-rule="nonzero"/></g><g clip-path="url(#58cc6607a0)"><path fill="#211d1d" d="M 580.851562 123.539062 C 580.851562 127.359375 580.113281 130.917969 578.644531 134.226562 C 577.179688 137.527344 575.238281 140.433594 572.816406 142.929688 C 570.394531 145.425781 567.488281 147.371094 564.117188 148.765625 C 560.734375 150.164062 557.21875 150.859375 553.546875 150.859375 C 546.789062 150.859375 540.996094 148.511719 536.152344 143.808594 C 531.304688 139.109375 527.34375 133.34375 524.257812 126.515625 C 521.179688 119.683594 518.9375 112.632812 517.546875 105.363281 C 516.148438 98.09375 515.453125 91.296875 515.453125 84.984375 C 515.453125 58.984375 526.535156 32.699219 548.699219 6.109375 C 552.664062 2.140625 557.140625 0.160156 562.136719 0.160156 C 567.261719 0.160156 571.675781 2 575.34375 5.671875 C 579.011719 9.34375 580.851562 13.75 580.851562 18.890625 C 580.851562 21.390625 580.332031 23.957031 579.3125 26.597656 C 572.699219 42.757812 569.402344 58.105469 569.402344 72.648438 C 569.402344 86.457031 572.40625 99.820312 578.429688 112.746094 C 580.042969 116.417969 580.851562 120.015625 580.851562 123.539062 Z M 508.410156 123.539062 C 508.410156 127.359375 507.671875 130.917969 506.207031 134.226562 C 504.734375 137.527344 502.789062 140.433594 500.371094 142.929688 C 497.949219 145.425781 495.046875 147.371094 491.671875 148.765625 C 488.292969 150.164062 484.773438 150.859375 481.105469 150.859375 C 474.347656 150.859375 468.554688 148.511719 463.707031 143.808594 C 458.867188 139.109375 454.902344 133.34375 451.816406 126.515625 C 448.734375 119.683594 446.496094 112.632812 445.101562 105.363281 C 443.707031 98.09375 443.011719 91.296875 443.011719 84.984375 C 443.011719 58.984375 454.089844 32.699219 476.257812 6.109375 C 480.222656 2.140625 484.699219 0.160156 489.691406 0.160156 C 494.824219 0.160156 499.230469 2 502.902344 5.671875 C 506.570312 9.34375 508.410156 13.75 508.410156 18.890625 C 508.410156 21.390625 507.890625 23.957031 506.867188 26.597656 C 500.261719 42.757812 496.957031 58.105469 496.957031 72.648438 C 496.957031 86.457031 499.964844 99.820312 505.984375 112.746094 C 507.597656 116.417969 508.410156 120.015625 508.410156 123.539062 " fill-opacity="1" fill-rule="nonzero"/></g></svg>