<svg xmlns="http://www.w3.org/2000/svg" xmlns:xlink="http://www.w3.org/1999/xlink" width="500" zoomAndPan="magnify" viewBox="0 0 375 374.999991" height="500" preserveAspectRatio="xMidYMid meet" version="1.0"><defs><g/><clipPath id="d5d02044ef"><path d="M 111 130 L 136 130 L 136 208.164062 L 111 208.164062 Z M 111 130 " clip-rule="nonzero"/></clipPath><clipPath id="86ad2616de"><path d="M 236.203125 130.65625 L 260.996094 130.65625 L 260.996094 208.160156 L 236.203125 208.160156 Z M 236.203125 130.65625 " clip-rule="nonzero"/></clipPath><clipPath id="eb6d81fa95"><path d="M 174 112.914062 L 198 112.914062 L 198 139 L 174 139 Z M 174 112.914062 " clip-rule="nonzero"/></clipPath></defs><rect x="-37.5" width="450" fill="#ffffff" y="-37.499999" height="449.999989" fill-opacity="1"/><rect x="-37.5" width="450" fill="#ffffff" y="-37.499999" height="449.999989" fill-opacity="1"/><path fill="#4a87ce" d="M 162.144531 156.347656 C 160.304688 156.347656 158.589844 156.695312 157 157.390625 C 155.40625 158.085938 154.027344 159.023438 152.859375 160.203125 C 151.691406 161.382812 150.765625 162.769531 150.082031 164.359375 C 149.398438 165.949219 149.058594 167.640625 149.058594 169.429688 C 149.058594 171.21875 149.398438 172.910156 150.082031 174.5 C 150.765625 176.089844 151.691406 177.476562 152.859375 178.65625 C 154.027344 179.835938 155.40625 180.773438 157 181.46875 C 158.589844 182.164062 160.304688 182.511719 162.144531 182.511719 C 163.957031 182.511719 165.660156 182.164062 167.25 181.46875 C 168.839844 180.773438 170.226562 179.828125 171.40625 178.636719 C 172.585938 177.445312 173.515625 176.058594 174.199219 174.480469 C 174.882812 172.902344 175.226562 171.21875 175.226562 169.429688 C 175.226562 167.640625 174.882812 165.957031 174.199219 164.378906 C 173.515625 162.800781 172.585938 161.414062 171.40625 160.222656 C 170.226562 159.03125 168.839844 158.085938 167.25 157.390625 C 165.660156 156.695312 163.957031 156.347656 162.144531 156.347656 Z M 183.015625 169.429688 C 183.015625 175.246094 180.976562 180.164062 176.902344 184.191406 C 172.777344 188.265625 167.859375 190.304688 162.144531 190.304688 C 156.375 190.304688 151.457031 188.265625 147.382812 184.191406 C 143.304688 180.117188 141.269531 175.195312 141.269531 169.429688 C 141.269531 163.664062 143.304688 158.746094 147.382812 154.667969 C 151.457031 150.59375 156.375 148.554688 162.144531 148.554688 C 167.859375 148.554688 172.777344 150.59375 176.902344 154.667969 C 178.941406 156.707031 180.464844 158.957031 181.46875 161.414062 C 182.476562 163.875 182.992188 166.546875 183.015625 169.429688 " fill-opacity="1" fill-rule="nonzero"/><path fill="#4a87ce" d="M 209.855469 156.347656 C 208.015625 156.347656 206.300781 156.695312 204.710938 157.390625 C 203.121094 158.085938 201.742188 159.023438 200.574219 160.203125 C 199.40625 161.382812 198.480469 162.769531 197.796875 164.359375 C 197.113281 165.949219 196.773438 167.640625 196.773438 169.429688 C 196.773438 171.21875 197.113281 172.910156 197.796875 174.5 C 198.480469 176.089844 199.40625 177.476562 200.574219 178.65625 C 201.742188 179.835938 203.121094 180.773438 204.710938 181.46875 C 206.300781 182.164062 208.015625 182.511719 209.855469 182.511719 C 211.667969 182.511719 213.371094 182.164062 214.960938 181.46875 C 216.550781 180.773438 217.9375 179.828125 219.117188 178.636719 C 220.296875 177.445312 221.230469 176.058594 221.914062 174.480469 C 222.597656 172.902344 222.9375 171.21875 222.9375 169.429688 C 222.9375 167.640625 222.597656 165.957031 221.914062 164.378906 C 221.230469 162.800781 220.296875 161.414062 219.117188 160.222656 C 217.9375 159.03125 216.550781 158.085938 214.960938 157.390625 C 213.371094 156.695312 211.667969 156.347656 209.855469 156.347656 Z M 230.730469 169.429688 C 230.730469 175.246094 228.691406 180.164062 224.617188 184.191406 C 220.492188 188.265625 215.570312 190.304688 209.855469 190.304688 C 204.089844 190.304688 199.167969 188.265625 195.09375 184.191406 C 191.019531 180.117188 188.980469 175.195312 188.980469 169.429688 C 188.980469 163.664062 191.019531 158.746094 195.09375 154.667969 C 199.167969 150.59375 204.089844 148.554688 209.855469 148.554688 C 215.570312 148.554688 220.492188 150.59375 224.617188 154.667969 C 226.652344 156.707031 228.175781 158.957031 229.183594 161.414062 C 230.1875 163.875 230.703125 166.546875 230.730469 169.429688 " fill-opacity="1" fill-rule="nonzero"/><g clip-path="url(#d5d02044ef)"><path fill="#211d1d" d="M 131.875 130.699219 C 132.992188 130.699219 133.917969 131.078125 134.652344 131.835938 C 135.382812 132.59375 135.75 133.519531 135.75 134.613281 C 135.75 135.734375 135.382812 136.660156 134.652344 137.390625 C 133.917969 138.125 132.992188 138.492188 131.875 138.492188 C 128.792969 138.492188 127.253906 140.03125 127.253906 143.113281 L 127.253906 160.929688 C 127.253906 164.507812 126.433594 167.34375 124.792969 169.429688 C 126.433594 171.515625 127.253906 174.351562 127.253906 177.929688 L 127.253906 195.746094 C 127.253906 198.828125 128.792969 200.371094 131.875 200.371094 C 132.992188 200.371094 133.917969 200.734375 134.652344 201.46875 C 135.382812 202.203125 135.75 203.125 135.75 204.246094 C 135.75 205.363281 135.382812 206.296875 134.652344 207.042969 C 133.917969 207.785156 132.992188 208.160156 131.875 208.160156 C 123.597656 208.160156 119.460938 204.023438 119.460938 195.746094 L 119.460938 177.929688 C 119.460938 174.847656 117.933594 173.304688 114.875 173.304688 C 113.757812 173.304688 112.832031 172.941406 112.097656 172.207031 C 111.367188 171.472656 111 170.546875 111 169.429688 C 111 168.3125 111.367188 167.386719 112.097656 166.652344 C 112.832031 165.921875 113.757812 165.554688 114.875 165.554688 C 117.933594 165.554688 119.460938 164.011719 119.460938 160.929688 L 119.460938 143.113281 C 119.460938 134.835938 123.597656 130.699219 131.875 130.699219 " fill-opacity="1" fill-rule="nonzero"/></g><g clip-path="url(#86ad2616de)"><path fill="#211d1d" d="M 252.535156 143.113281 L 252.535156 160.929688 C 252.535156 164.011719 254.0625 165.554688 257.121094 165.554688 C 258.238281 165.554688 259.164062 165.921875 259.898438 166.652344 C 260.632812 167.386719 260.996094 168.3125 260.996094 169.429688 C 260.996094 170.546875 260.632812 171.472656 259.898438 172.207031 C 259.164062 172.941406 258.238281 173.304688 257.121094 173.304688 C 254.0625 173.304688 252.535156 174.847656 252.535156 177.929688 L 252.535156 195.746094 C 252.535156 204.023438 248.398438 208.160156 240.121094 208.160156 C 239.003906 208.160156 238.078125 207.785156 237.34375 207.042969 C 236.613281 206.296875 236.246094 205.363281 236.246094 204.246094 C 236.246094 203.125 236.613281 202.203125 237.34375 201.46875 C 238.078125 200.734375 239.003906 200.371094 240.121094 200.371094 C 243.203125 200.371094 244.746094 198.828125 244.746094 195.746094 L 244.746094 177.929688 C 244.746094 174.351562 245.566406 171.515625 247.207031 169.429688 C 245.566406 167.34375 244.746094 164.507812 244.746094 160.929688 L 244.746094 143.113281 C 244.746094 140.03125 243.203125 138.492188 240.121094 138.492188 C 239.003906 138.492188 238.078125 138.125 237.34375 137.390625 C 236.613281 136.660156 236.246094 135.734375 236.246094 134.613281 C 236.246094 133.519531 236.613281 132.59375 237.34375 131.835938 C 238.078125 131.078125 239.003906 130.699219 240.121094 130.699219 C 248.398438 130.699219 252.535156 134.835938 252.535156 143.113281 " fill-opacity="1" fill-rule="nonzero"/></g><g clip-path="url(#eb6d81fa95)"><path fill="#211d1d" d="M 197.667969 133.789062 C 197.667969 134.4375 197.542969 135.039062 197.292969 135.597656 C 197.042969 136.15625 196.714844 136.648438 196.304688 137.070312 C 195.894531 137.492188 195.402344 137.824219 194.832031 138.058594 C 194.261719 138.296875 193.664062 138.414062 193.042969 138.414062 C 191.898438 138.414062 190.917969 138.015625 190.097656 137.21875 C 189.277344 136.425781 188.609375 135.449219 188.085938 134.292969 C 187.5625 133.136719 187.183594 131.945312 186.949219 130.714844 C 186.714844 129.484375 186.59375 128.335938 186.59375 127.269531 C 186.59375 122.867188 188.472656 118.421875 192.222656 113.921875 C 192.894531 113.25 193.652344 112.917969 194.496094 112.917969 C 195.367188 112.917969 196.113281 113.226562 196.734375 113.847656 C 197.355469 114.46875 197.667969 115.214844 197.667969 116.085938 C 197.667969 116.507812 197.578125 116.941406 197.40625 117.390625 C 196.285156 120.125 195.726562 122.71875 195.726562 125.179688 C 195.726562 127.515625 196.234375 129.777344 197.253906 131.964844 C 197.53125 132.585938 197.667969 133.195312 197.667969 133.789062 Z M 185.402344 133.789062 C 185.402344 134.4375 185.277344 135.039062 185.03125 135.597656 C 184.78125 136.15625 184.453125 136.648438 184.042969 137.070312 C 183.632812 137.492188 183.140625 137.824219 182.570312 138.058594 C 181.996094 138.296875 181.402344 138.414062 180.78125 138.414062 C 179.636719 138.414062 178.65625 138.015625 177.835938 137.21875 C 177.015625 136.425781 176.34375 135.449219 175.824219 134.292969 C 175.300781 133.136719 174.921875 131.945312 174.683594 130.714844 C 174.449219 129.484375 174.332031 128.335938 174.332031 127.269531 C 174.332031 122.867188 176.207031 118.421875 179.960938 113.921875 C 180.628906 113.25 181.386719 112.917969 182.234375 112.917969 C 183.101562 112.917969 183.847656 113.226562 184.46875 113.847656 C 185.089844 114.46875 185.402344 115.214844 185.402344 116.085938 C 185.402344 116.507812 185.316406 116.941406 185.140625 117.390625 C 184.023438 120.125 183.464844 122.71875 183.464844 125.179688 C 183.464844 127.515625 183.972656 129.777344 184.992188 131.964844 C 185.265625 132.585938 185.402344 133.195312 185.402344 133.789062 " fill-opacity="1" fill-rule="nonzero"/></g><g fill="#211d1d" fill-opacity="1"><g transform="translate(121.130842, 238.905306)"><g><path d="M 5.234375 -9.859375 L 15.515625 -16.203125 L 15.515625 -11.9375 L 8.8125 -8.15625 L 15.515625 -4.03125 L 15.515625 0.234375 L 5.234375 -6.609375 Z M 5.234375 -9.859375 "/></g></g></g><g fill="#211d1d" fill-opacity="1"><g transform="translate(141.891796, 238.905306)"><g><path d="M 6.734375 0.09375 C 6.242188 0.03125 5.300781 0 3.90625 0 L 2.6875 0 L 2.6875 -20.296875 C 3.34375 -20.265625 4.0625 -20.25 4.84375 -20.25 C 5.625 -20.25 6.175781 -20.285156 6.5 -20.359375 L 11.609375 -11.671875 L 16.53125 -20.359375 C 16.851562 -20.285156 17.46875 -20.25 18.375 -20.25 C 19.289062 -20.25 20.078125 -20.265625 20.734375 -20.296875 L 20.734375 0 L 19.515625 0 C 18.117188 0 17.179688 0.03125 16.703125 0.09375 L 16.703125 -13.546875 L 11.71875 -4.640625 L 6.734375 -12.828125 Z M 6.734375 0.09375 "/></g></g></g><g fill="#211d1d" fill-opacity="1"><g transform="translate(165.316363, 238.905306)"><g/></g></g><g fill="#211d1d" fill-opacity="1"><g transform="translate(175.651179, 238.905306)"><g><path d="M 15.03125 -1.796875 C 13.363281 -0.347656 11.34375 0.375 8.96875 0.375 C 6.632812 0.375 4.707031 -0.316406 3.1875 -1.703125 C 1.6875 -3.054688 0.9375 -4.734375 0.9375 -6.734375 C 0.9375 -8.535156 1.71875 -10.035156 3.28125 -11.234375 C 3.75 -11.597656 4.253906 -11.898438 4.796875 -12.140625 C 4.210938 -13.117188 3.921875 -14.070312 3.921875 -15 C 3.921875 -15.9375 4.070312 -16.734375 4.375 -17.390625 C 4.6875 -18.054688 5.109375 -18.628906 5.640625 -19.109375 C 6.785156 -20.117188 8.257812 -20.625 10.0625 -20.625 C 11.34375 -20.625 12.515625 -20.316406 13.578125 -19.703125 C 13.523438 -18.847656 13.5 -18.1875 13.5 -17.71875 C 13.5 -17.082031 13.503906 -16.679688 13.515625 -16.515625 C 13.535156 -16.347656 13.539062 -16.234375 13.53125 -16.171875 C 13.53125 -16.109375 13.523438 -16.054688 13.515625 -16.015625 C 13.472656 -15.953125 13.460938 -15.878906 13.484375 -15.796875 L 13.40625 -15.6875 C 13 -16.300781 12.210938 -16.738281 11.046875 -17 C 10.691406 -17.082031 10.234375 -17.125 9.671875 -17.125 C 9.117188 -17.125 8.660156 -16.957031 8.296875 -16.625 C 7.941406 -16.289062 7.765625 -15.867188 7.765625 -15.359375 C 7.765625 -14.484375 8.382812 -13.375 9.625 -12.03125 C 10.007812 -11.601562 10.472656 -11.117188 11.015625 -10.578125 L 14.59375 -7.3125 C 14.914062 -8.1875 15.078125 -9.113281 15.078125 -10.09375 C 15.078125 -10.6875 14.925781 -11.179688 14.625 -11.578125 C 14.550781 -11.671875 14.492188 -11.734375 14.453125 -11.765625 L 14.453125 -11.953125 L 16.671875 -11.0625 C 17.097656 -10.894531 17.441406 -10.765625 17.703125 -10.671875 C 17.960938 -10.578125 18.160156 -10.5 18.296875 -10.4375 C 18.523438 -10.34375 18.640625 -10.234375 18.640625 -10.109375 C 18.640625 -8.273438 18.226562 -6.539062 17.40625 -4.90625 C 18.445312 -4.050781 19.113281 -3.566406 19.40625 -3.453125 C 19.695312 -3.335938 19.921875 -3.269531 20.078125 -3.25 C 20.566406 -3.195312 20.847656 -3.21875 20.921875 -3.3125 L 21 -3.234375 L 19.4375 0.203125 C 19.257812 0.316406 18.960938 0.375 18.546875 0.375 C 17.910156 0.375 16.738281 -0.347656 15.03125 -1.796875 Z M 6.03125 -4.359375 C 6.875 -3.628906 7.882812 -3.265625 9.0625 -3.265625 C 10.25 -3.265625 11.3125 -3.59375 12.25 -4.25 L 10.609375 -5.75 C 8.847656 -7.34375 7.453125 -8.734375 6.421875 -9.921875 C 5.316406 -9.117188 4.765625 -8.175781 4.765625 -7.09375 C 4.765625 -6.007812 5.1875 -5.097656 6.03125 -4.359375 Z M 6.03125 -4.359375 "/></g></g></g><g fill="#211d1d" fill-opacity="1"><g transform="translate(196.412133, 238.905306)"><g/></g></g><g fill="#211d1d" fill-opacity="1"><g transform="translate(206.746948, 238.905306)"><g><path d="M 6.734375 0.09375 C 6.242188 0.03125 5.300781 0 3.90625 0 L 2.6875 0 L 2.6875 -20.296875 C 3.34375 -20.265625 4.0625 -20.25 4.84375 -20.25 C 5.625 -20.25 6.175781 -20.285156 6.5 -20.359375 L 11.609375 -11.671875 L 16.53125 -20.359375 C 16.851562 -20.285156 17.46875 -20.25 18.375 -20.25 C 19.289062 -20.25 20.078125 -20.265625 20.734375 -20.296875 L 20.734375 0 L 19.515625 0 C 18.117188 0 17.179688 0.03125 16.703125 0.09375 L 16.703125 -13.546875 L 11.71875 -4.640625 L 6.734375 -12.828125 Z M 6.734375 0.09375 "/></g></g></g><g fill="#211d1d" fill-opacity="1"><g transform="translate(230.171515, 238.905306)"><g><path d="M 5.203125 -4.03125 L 11.890625 -8.15625 L 5.203125 -11.9375 L 5.203125 -16.203125 L 15.484375 -9.859375 L 15.484375 -6.609375 L 5.203125 0.234375 Z M 5.203125 -4.03125 "/></g></g></g><g fill="#737373" fill-opacity="1"><g transform="translate(146.461959, 253.436921)"><g><path d="M 1.546875 0 L 1.546875 -6.921875 L 0.125 -6.921875 L 0.125 -7.703125 L 3.8125 -7.703125 L 3.8125 -6.921875 L 2.390625 -6.921875 L 2.390625 0 Z M 1.546875 0 "/></g></g></g><g fill="#737373" fill-opacity="1"><g transform="translate(154.819205, 253.436921)"><g><path d="M 3.171875 -4.296875 L 3.171875 -3.515625 L 1.296875 -3.515625 L 1.296875 -0.78125 L 3.609375 -0.78125 L 3.609375 0 L 0.4375 0 L 0.4375 -7.703125 L 3.609375 -7.703125 L 3.609375 -6.921875 L 1.296875 -6.921875 L 1.296875 -4.296875 Z M 3.171875 -4.296875 "/></g></g></g><g fill="#737373" fill-opacity="1"><g transform="translate(163.176451, 253.436921)"><g><path d="M 2.09375 -7.78125 C 2.6875 -7.78125 3.125 -7.601562 3.40625 -7.25 C 3.695312 -6.894531 3.84375 -6.425781 3.84375 -5.84375 L 3.84375 -5.140625 L 3.03125 -5.140625 L 3.03125 -5.890625 C 3.03125 -6.234375 2.957031 -6.503906 2.8125 -6.703125 C 2.664062 -6.898438 2.4375 -7 2.125 -7 C 1.8125 -7 1.582031 -6.898438 1.4375 -6.703125 C 1.289062 -6.503906 1.21875 -6.234375 1.21875 -5.890625 L 1.21875 -1.8125 C 1.21875 -1.457031 1.289062 -1.179688 1.4375 -0.984375 C 1.582031 -0.796875 1.8125 -0.703125 2.125 -0.703125 C 2.4375 -0.703125 2.664062 -0.796875 2.8125 -0.984375 C 2.957031 -1.179688 3.03125 -1.457031 3.03125 -1.8125 L 3.03125 -2.8125 L 3.84375 -2.8125 L 3.84375 -1.859375 C 3.84375 -1.273438 3.695312 -0.804688 3.40625 -0.453125 C 3.125 -0.0976562 2.6875 0.078125 2.09375 0.078125 C 1.507812 0.078125 1.078125 -0.0976562 0.796875 -0.453125 C 0.515625 -0.804688 0.375 -1.273438 0.375 -1.859375 L 0.375 -5.84375 C 0.375 -6.132812 0.40625 -6.398438 0.46875 -6.640625 C 0.539062 -6.878906 0.648438 -7.082031 0.796875 -7.25 C 0.941406 -7.414062 1.117188 -7.546875 1.328125 -7.640625 C 1.546875 -7.734375 1.800781 -7.78125 2.09375 -7.78125 Z M 2.09375 -7.78125 "/></g></g></g><g fill="#737373" fill-opacity="1"><g transform="translate(171.753537, 253.436921)"><g><path d="M 1.296875 -3.46875 L 1.296875 0 L 0.4375 0 L 0.4375 -7.703125 L 1.296875 -7.703125 L 1.296875 -4.234375 L 3.1875 -4.234375 L 3.1875 -7.703125 L 4.046875 -7.703125 L 4.046875 0 L 3.1875 0 L 3.1875 -3.46875 Z M 1.296875 -3.46875 "/></g></g></g><g fill="#737373" fill-opacity="1"><g transform="translate(180.638403, 253.436921)"><g/></g></g><g fill="#737373" fill-opacity="1"><g transform="translate(186.742241, 253.436921)"><g><path d="M 2.09375 -7.78125 C 2.6875 -7.78125 3.125 -7.601562 3.40625 -7.25 C 3.695312 -6.894531 3.84375 -6.425781 3.84375 -5.84375 L 3.84375 -5.1875 L 3.03125 -5.1875 L 3.03125 -5.890625 C 3.03125 -6.234375 2.957031 -6.503906 2.8125 -6.703125 C 2.664062 -6.898438 2.4375 -7 2.125 -7 C 1.8125 -7 1.582031 -6.898438 1.4375 -6.703125 C 1.289062 -6.503906 1.21875 -6.234375 1.21875 -5.890625 L 1.21875 -1.8125 C 1.21875 -1.457031 1.289062 -1.179688 1.4375 -0.984375 C 1.582031 -0.796875 1.8125 -0.703125 2.125 -0.703125 C 2.4375 -0.703125 2.664062 -0.796875 2.8125 -0.984375 C 2.957031 -1.179688 3.03125 -1.457031 3.03125 -1.8125 L 3.03125 -3.359375 L 2.234375 -3.359375 L 2.234375 -4.125 L 3.84375 -4.125 L 3.84375 -1.859375 C 3.84375 -1.273438 3.695312 -0.804688 3.40625 -0.453125 C 3.125 -0.0976562 2.6875 0.078125 2.09375 0.078125 C 1.507812 0.078125 1.078125 -0.0976562 0.796875 -0.453125 C 0.515625 -0.804688 0.375 -1.273438 0.375 -1.859375 L 0.375 -5.84375 C 0.375 -6.132812 0.40625 -6.398438 0.46875 -6.640625 C 0.539062 -6.878906 0.648438 -7.082031 0.796875 -7.25 C 0.941406 -7.414062 1.117188 -7.546875 1.328125 -7.640625 C 1.546875 -7.734375 1.800781 -7.78125 2.09375 -7.78125 Z M 2.09375 -7.78125 "/></g></g></g><g fill="#737373" fill-opacity="1"><g transform="translate(195.3523, 253.436921)"><g><path d="M 2.15625 -7.703125 C 2.757812 -7.703125 3.195312 -7.550781 3.46875 -7.25 C 3.738281 -6.945312 3.875 -6.507812 3.875 -5.9375 L 3.875 -5.3125 C 3.875 -4.882812 3.796875 -4.539062 3.640625 -4.28125 C 3.484375 -4.019531 3.242188 -3.835938 2.921875 -3.734375 C 3.265625 -3.628906 3.507812 -3.4375 3.65625 -3.15625 C 3.8125 -2.882812 3.890625 -2.539062 3.890625 -2.125 L 3.890625 -0.921875 C 3.890625 -0.753906 3.894531 -0.59375 3.90625 -0.4375 C 3.914062 -0.28125 3.957031 -0.132812 4.03125 0 L 3.171875 0 C 3.117188 -0.113281 3.082031 -0.234375 3.0625 -0.359375 C 3.039062 -0.484375 3.03125 -0.675781 3.03125 -0.9375 L 3.03125 -2.140625 C 3.03125 -2.578125 2.929688 -2.875 2.734375 -3.03125 C 2.535156 -3.195312 2.257812 -3.28125 1.90625 -3.28125 L 1.296875 -3.28125 L 1.296875 0 L 0.4375 0 L 0.4375 -7.703125 Z M 1.9375 -4.0625 C 2.28125 -4.0625 2.546875 -4.132812 2.734375 -4.28125 C 2.929688 -4.425781 3.03125 -4.707031 3.03125 -5.125 L 3.03125 -5.859375 C 3.03125 -6.210938 2.960938 -6.476562 2.828125 -6.65625 C 2.691406 -6.832031 2.460938 -6.921875 2.140625 -6.921875 L 1.296875 -6.921875 L 1.296875 -4.0625 Z M 1.9375 -4.0625 "/></g></g></g><g fill="#737373" fill-opacity="1"><g transform="translate(204.083278, 253.436921)"><g><path d="M 0.375 -5.84375 C 0.375 -6.4375 0.519531 -6.90625 0.8125 -7.25 C 1.101562 -7.601562 1.546875 -7.78125 2.140625 -7.78125 C 2.734375 -7.78125 3.175781 -7.601562 3.46875 -7.25 C 3.757812 -6.90625 3.90625 -6.4375 3.90625 -5.84375 L 3.90625 -1.859375 C 3.90625 -1.273438 3.757812 -0.804688 3.46875 -0.453125 C 3.175781 -0.0976562 2.734375 0.078125 2.140625 0.078125 C 1.546875 0.078125 1.101562 -0.0976562 0.8125 -0.453125 C 0.519531 -0.804688 0.375 -1.273438 0.375 -1.859375 Z M 1.21875 -1.8125 C 1.21875 -1.457031 1.289062 -1.179688 1.4375 -0.984375 C 1.59375 -0.796875 1.828125 -0.703125 2.140625 -0.703125 C 2.453125 -0.703125 2.679688 -0.796875 2.828125 -0.984375 C 2.972656 -1.179688 3.046875 -1.457031 3.046875 -1.8125 L 3.046875 -5.890625 C 3.046875 -6.234375 2.972656 -6.503906 2.828125 -6.703125 C 2.679688 -6.898438 2.453125 -7 2.140625 -7 C 1.828125 -7 1.59375 -6.898438 1.4375 -6.703125 C 1.289062 -6.503906 1.21875 -6.234375 1.21875 -5.890625 Z M 1.21875 -1.8125 "/></g></g></g><g fill="#737373" fill-opacity="1"><g transform="translate(212.7593, 253.436921)"><g><path d="M 1.25 -1.8125 C 1.25 -1.457031 1.320312 -1.179688 1.46875 -0.984375 C 1.613281 -0.796875 1.84375 -0.703125 2.15625 -0.703125 C 2.46875 -0.703125 2.691406 -0.796875 2.828125 -0.984375 C 2.972656 -1.179688 3.046875 -1.457031 3.046875 -1.8125 L 3.046875 -7.703125 L 3.84375 -7.703125 L 3.84375 -1.859375 C 3.84375 -1.273438 3.703125 -0.800781 3.421875 -0.4375 C 3.148438 -0.0820312 2.71875 0.09375 2.125 0.09375 C 1.539062 0.09375 1.109375 -0.0820312 0.828125 -0.4375 C 0.546875 -0.800781 0.40625 -1.273438 0.40625 -1.859375 L 0.40625 -7.703125 L 1.25 -7.703125 Z M 1.25 -1.8125 "/></g></g></g><g fill="#737373" fill-opacity="1"><g transform="translate(221.413339, 253.436921)"><g><path d="M 2.125 -7.703125 C 2.726562 -7.703125 3.164062 -7.535156 3.4375 -7.203125 C 3.707031 -6.867188 3.84375 -6.40625 3.84375 -5.8125 L 3.84375 -4.890625 C 3.84375 -4.273438 3.695312 -3.8125 3.40625 -3.5 C 3.125 -3.1875 2.675781 -3.03125 2.0625 -3.03125 L 1.296875 -3.03125 L 1.296875 0 L 0.4375 0 L 0.4375 -7.703125 Z M 2.0625 -3.8125 C 2.382812 -3.8125 2.617188 -3.890625 2.765625 -4.046875 C 2.921875 -4.203125 3 -4.46875 3 -4.84375 L 3 -5.859375 C 3 -6.210938 2.929688 -6.476562 2.796875 -6.65625 C 2.660156 -6.832031 2.4375 -6.921875 2.125 -6.921875 L 1.296875 -6.921875 L 1.296875 -3.8125 Z M 2.0625 -3.8125 "/></g></g></g></svg>