<?xml version="1.0" encoding="UTF-8" standalone="no"?>
<!-- Created with Inkscape (http://www.inkscape.org/) -->

<svg
   width="300"
   height="300"
   viewBox="0 0 79.374998 79.375"
   version="1.1"
   id="svg1"
   xml:space="preserve"
   xmlns:inkscape="http://www.inkscape.org/namespaces/inkscape"
   xmlns:sodipodi="http://sodipodi.sourceforge.net/DTD/sodipodi-0.dtd"
   xmlns="http://www.w3.org/2000/svg"
   xmlns:svg="http://www.w3.org/2000/svg"><sodipodi:namedview
     id="namedview1"
     pagecolor="#ffffff"
     bordercolor="#000000"
     borderopacity="0.25"
     inkscape:showpageshadow="2"
     inkscape:pageopacity="0.0"
     inkscape:pagecheckerboard="0"
     inkscape:deskcolor="#d1d1d1"
     inkscape:document-units="mm" /><defs
     id="defs1" /><g
     inkscape:label="Capa 1"
     inkscape:groupmode="layer"
     id="layer1"><g
       id="g78"
       transform="matrix(1.2042282,0,0,1.2042282,-625.22239,185.88297)"
       inkscape:export-filename="jb.svg"
       inkscape:export-xdpi="96"
       inkscape:export-ydpi="96"><g
         id="g86"
         transform="translate(-0.92051951,-2.1441)"><path
           style="fill:#333333;fill-opacity:1;stroke-width:0.740162"
           d="m 532.15938,-100.92511 c 0,-0.11414 1.55,-3.81408 1.75708,-4.19429 0.0997,-0.18297 0.23418,-0.74455 0.29891,-1.24796 0.0677,-0.52649 0.35982,-1.27515 0.6877,-1.76251 l 0.56998,-0.84723 -2.18832,-0.11908 -2.18832,-0.11921 -1.10767,0.92181 c -2.98433,2.4836 -6.15232,3.63325 -6.15232,2.23266 0,-0.2341 -0.28345,-0.51439 -0.77061,-0.76199 -1.07136,-0.54454 -1.30893,-0.98468 -0.74478,-1.37981 0.24107,-0.16886 0.43829,-0.38742 0.43829,-0.48571 0,-0.0983 -0.47908,-0.48517 -1.06463,-0.85975 -0.58555,-0.37457 -1.16146,-0.86198 -1.27982,-1.08311 -0.20235,-0.3781 -0.16217,-0.40206 0.67426,-0.40206 1.54578,0 4.78606,-0.574 5.84264,-1.03498 0.55945,-0.24409 1.50186,-0.70249 2.09426,-1.01866 l 1.07709,-0.57485 -0.67636,-0.1056 c -0.50742,-0.0792 -0.84163,-0.32256 -1.33816,-0.97445 -0.64126,-0.84186 -0.69203,-0.86727 -1.63281,-0.81735 -0.90535,0.0481 -1.02005,-6.6e-4 -1.69726,-0.72094 -0.39945,-0.42486 -1.26413,-1.33926 -1.92149,-2.03198 -1.43933,-1.51677 -1.93499,-2.74522 -1.79261,-4.44286 0.051,-0.60805 0.005,-1.29732 -0.10025,-1.53174 -0.26072,-0.57587 -0.033,-1.37358 0.54495,-1.90923 l 0.4765,-0.44162 -0.38651,-0.7581 c -0.72588,-1.42377 -0.28265,-3.77304 0.82316,-4.36309 0.28052,-0.14969 0.66183,-0.67086 0.89555,-1.22406 0.48504,-1.14807 1.12,-1.51156 1.68679,-0.96565 0.27441,0.26431 0.42406,0.87876 0.60353,2.47802 0.13123,1.1696 0.41523,2.57337 0.63103,3.11946 0.78228,1.97945 3.03528,4.45609 5.44332,5.98366 0.64227,0.40744 1.18309,0.72283 1.20183,0.70088 0.0187,-0.022 0.13283,-1.06509 0.2536,-2.31809 0.19362,-2.00953 0.60132,-3.91596 1.39737,-6.53437 0.22992,-0.75621 0.19327,-0.89087 -1.05889,-3.88953 -0.71337,-1.7084 -1.29705,-3.14045 -1.29705,-3.18231 0,-0.0419 12.07321,-0.0761 26.82935,-0.0761 h 26.82936 v 18.40845 18.40846 h -26.82936 c -14.75614,0 -26.82935,-0.0338 -26.82935,-0.0752 z m 52.28787,-18.33332 v -17.03762 h -25.06684 c -13.78677,0 -25.06684,0.0497 -25.06684,0.1104 0,0.0607 0.36509,1.00804 0.81131,2.10522 0.76027,1.86937 1.53871,3.09382 1.53871,2.42031 0,-0.50922 0.84124,-2.37957 1.27934,-2.8444 0.3631,-0.38524 0.50154,-0.42455 0.8459,-0.24026 0.22646,0.12121 0.48101,0.48767 0.56569,0.8144 l 0.15392,0.59404 0.87862,-0.68208 c 1.68703,-1.30964 2.71013,-1.05625 1.69758,0.42044 -1.0218,1.49021 -2.6655,6.96112 -2.67488,8.90314 -0.004,0.71983 0.71727,3.14278 1.08121,3.6347 0.0239,0.0323 0.37103,-0.16371 0.77146,-0.43546 1.46852,-0.99657 3.24202,-0.78422 3.8644,0.46272 0.50308,1.00789 1.28201,1.19884 2.94412,0.72168 0.78742,-0.22604 1.32189,-0.48582 1.32189,-0.64249 0,-0.33082 0.43042,-0.34119 0.75577,-0.0182 0.19785,0.19641 0.21809,0.16736 0.10239,-0.14687 -0.0793,-0.21542 -0.22954,-0.44886 -0.33388,-0.51879 -0.27164,-0.18201 -0.005,-0.75414 0.35081,-0.75414 0.16495,0 0.29991,0.13216 0.29991,0.29376 0,0.16157 0.11013,0.30071 0.24479,0.30921 0.19453,0.012 0.19427,0.0358 -10e-4,0.11467 -0.27076,0.1092 -0.14041,0.4574 0.17121,0.4574 0.10773,0 0.14137,-0.0881 0.0748,-0.19584 -0.0665,-0.10773 -0.0107,-0.19582 0.12375,-0.19582 0.13838,0 0.0878,-0.11481 -0.11628,-0.26406 -0.24405,-0.17845 -0.30538,-0.35301 -0.18918,-0.53854 0.0945,-0.15097 0.14653,-0.42872 0.11547,-0.6172 -0.0328,-0.19947 0.0666,-0.34273 0.23811,-0.34273 0.41895,0 0.5872,0.36061 0.31902,0.68375 -0.1505,0.18134 -0.16556,0.38678 -0.0443,0.60353 0.16052,0.28683 0.1989,0.26946 0.30195,-0.13662 0.15423,-0.60783 0.87567,-1.07371 1.18382,-0.7645 0.16519,0.16578 0.0969,0.32398 -0.26788,0.6206 -0.26928,0.21894 -0.37882,0.34078 -0.24342,0.27075 0.13599,-0.0704 0.29975,0.012 0.36588,0.1846 0.108,0.28155 0.14312,0.27987 0.36039,-0.0172 0.17892,-0.24469 0.27854,-0.26794 0.38812,-0.0906 0.0858,0.13879 -0.004,0.36016 -0.21491,0.52939 -0.34894,0.28013 -0.34786,0.28704 0.0294,0.18728 0.46564,-0.12321 0.69035,0.0148 1.09253,0.67082 0.83313,1.35887 0.24338,2.5177 -1.24967,2.45551 -1.13483,-0.0473 -2.54245,-0.90301 -2.34631,-1.42636 0.11494,-0.30648 0.0914,-0.31326 -0.2165,-0.0626 -0.2545,0.20719 -0.38235,0.2213 -0.48598,0.0535 -0.10306,-0.1668 -0.34743,-0.17365 -0.91529,-0.0256 -1.36881,0.35666 -1.40573,0.37822 -1.01945,0.59507 0.18848,0.10586 0.34271,0.32266 0.34271,0.48186 0,0.23856 -0.2199,0.26695 -1.24989,0.16143 -1.69042,-0.17319 -2.40187,0.21563 -2.51225,1.37297 -0.0559,0.5868 0.0358,0.96565 0.34385,1.41957 0.23109,0.34053 0.53083,1.0144 0.66608,1.49748 0.20831,0.744 0.19712,1.04618 -0.073,1.97568 -0.25161,0.86551 -0.40265,1.09734 -0.71492,1.09734 -0.53989,0 -1.35762,-0.44758 -1.9225,-1.05228 l -0.46893,-0.50198 -1.01137,0.924 c -0.90234,0.82439 -3.29359,2.19693 -3.82749,2.19693 -0.12816,0 -0.14785,0.1997 -0.0531,0.53855 0.0829,0.2962 0.15061,1.11369 0.15061,1.81667 0,1.03918 -0.0846,1.38564 -0.45273,1.85327 -0.51556,0.65497 -2.36121,2.04239 -2.72958,2.0519 -0.13463,0.004 -0.24479,0.0873 -0.24479,0.18613 0,0.0989 -0.0535,0.31921 -0.11894,0.48959 -0.108,0.28148 2.17261,0.30978 24.96893,0.30978 h 25.08779 z m -28.00436,10.83982 c -0.43753,-0.16974 -0.78335,-0.67711 -0.78335,-1.1493 0,-0.59951 0.73595,-1.20646 1.81148,-1.4939 0.96681,-0.25841 1.1336,-0.52354 0.63991,-1.01722 -0.28955,-0.28955 -0.99118,-0.23655 -1.19306,0.0901 -0.0586,0.0946 -0.27748,0.17218 -0.48654,0.17218 -0.60541,0 -0.47156,-0.72599 0.19767,-1.07206 0.79883,-0.4131 1.62437,-0.37355 2.23541,0.10706 0.47992,0.3775 0.516,0.51445 0.516,1.95835 0,1.24942 0.0574,1.55247 0.29375,1.55247 0.1656,0 0.29375,0.17517 0.29375,0.40155 0,0.35288 -0.1128,0.39776 -0.93022,0.37026 -0.51162,-0.0172 -1.23865,0.0195 -1.61564,0.0816 -0.37697,0.0621 -0.8176,0.0615 -0.97916,-0.001 z m 1.95834,-1.55683 c 0,-0.53262 -0.0874,-0.55612 -0.94994,-0.25543 -0.3869,0.13487 -0.61674,0.34773 -0.61674,0.57118 0,0.4571 0.34994,0.57272 1.02814,0.33972 0.38669,-0.13283 0.53854,-0.31769 0.53854,-0.65547 z m 10.84421,1.55696 c -1.0901,-0.23541 -1.78402,-2.11835 -1.27038,-3.44709 0.25635,-0.66315 1.29096,-1.32051 2.07834,-1.32051 0.78737,0 1.82198,0.65736 2.07833,1.32051 0.33247,0.86007 0.10707,2.35935 -0.43562,2.89768 -0.47125,0.46745 -1.62869,0.72694 -2.45067,0.54941 z m 1.80357,-1.47167 c 0.43129,-0.83404 0.10386,-2.06015 -0.5971,-2.23609 -0.78345,-0.19663 -1.25388,0.0797 -1.49277,0.87707 -0.18277,0.61004 -0.16547,0.84828 0.0986,1.35902 0.26557,0.51354 0.43559,0.6193 0.99562,0.6193 0.56003,0 0.73005,-0.10573 0.99561,-0.6193 z m 2.50171,1.32567 c -1.25118,-0.56523 -1.42371,-3.05825 -0.28221,-4.07817 1.08895,-0.97299 3.05159,-0.57021 2.9159,0.59841 -0.076,0.65416 -0.72587,0.83474 -0.88019,0.24456 -0.12575,-0.4809 -0.77985,-0.54446 -1.34566,-0.13069 -0.27719,0.20268 -0.38014,0.51275 -0.38014,1.14491 0,1.27849 0.33518,1.57906 1.58655,1.42272 1.13138,-0.14136 1.43796,0.0597 0.87196,0.57193 -0.50202,0.45433 -1.73344,0.56645 -2.48621,0.22637 z m 4.04231,-0.0702 c -0.82166,-0.41047 -1.21504,-1.3478 -1.04776,-2.49658 0.15319,-1.05188 0.36527,-1.40959 1.04384,-1.76048 0.99187,-0.51292 1.91196,-0.38527 2.66727,0.37005 0.58636,0.58636 0.66583,0.7873 0.66583,1.68334 0,2.11463 -1.50854,3.11318 -3.32918,2.20367 z m 1.96701,-0.94034 c 0.13884,-0.16731 0.25246,-0.69135 0.25246,-1.16457 0,-0.47322 -0.11361,-0.99727 -0.25246,-1.16457 -0.33076,-0.39854 -1.15781,-0.3883 -1.60888,0.0199 -0.45713,0.4137 -0.4889,1.86717 -0.0505,2.30568 0.39469,0.39469 1.33299,0.39669 1.65926,0.004 z m -29.38386,0.78762 c 0,-0.16494 0.13216,-0.35062 0.29374,-0.41262 0.2384,-0.0914 0.29376,-0.55284 0.29376,-2.44794 0,-1.89508 -0.0554,-2.35645 -0.29376,-2.44792 -0.16156,-0.0621 -0.29374,-0.27954 -0.29374,-0.48344 0,-0.33637 0.16388,-0.37072 1.7688,-0.37072 2.15342,0 2.98649,0.29416 3.28877,1.16128 0.22762,0.65297 0.0284,1.52308 -0.41875,1.82984 -0.16555,0.11347 -0.10559,0.24853 0.20808,0.4685 0.35295,0.24753 0.44063,0.49627 0.44063,1.25009 0,0.7834 -0.0865,1.00908 -0.51599,1.34695 -0.45012,0.35406 -0.7877,0.40588 -2.64378,0.40588 -1.78017,0 -2.12776,-0.049 -2.12776,-0.2999 z m 3.91669,-0.8751 c 0.21542,-0.21542 0.39166,-0.47979 0.39166,-0.58751 0,-0.50473 -0.80652,-0.97917 -1.66459,-0.97917 h -0.88125 v 0.97917 0.97918 h 0.88125 c 0.62014,0 0.9973,-0.11601 1.27293,-0.39167 z m -0.11187,-2.85359 c 0.70658,-0.70657 0.10226,-1.45477 -1.17501,-1.45477 h -0.86726 v 0.88125 0.88126 h 0.86726 c 0.52732,0 0.98791,-0.12068 1.17501,-0.30774 z m 6.37861,3.72869 c 0,-0.16494 0.13216,-0.35062 0.29376,-0.41262 0.22392,-0.086 0.29376,-0.45192 0.29376,-1.53957 0,-1.08766 -0.0698,-1.45365 -0.29376,-1.53958 -0.16156,-0.0621 -0.29376,-0.29174 -0.29376,-0.51054 0,-0.32476 0.12696,-0.39782 0.69157,-0.39782 0.44267,0 0.73331,0.1088 0.80754,0.30221 0.1036,0.26989 0.15342,0.26831 0.46613,-0.0147 0.19979,-0.18082 0.58885,-0.28956 0.90602,-0.25325 0.44144,0.0506 0.56862,0.17449 0.61783,0.60218 0.0569,0.49438 0.008,0.53855 -0.60613,0.53855 -0.93735,0 -1.31627,0.49117 -1.31627,1.70613 0,0.82518 0.0651,1.00692 0.39167,1.0923 0.21541,0.0563 0.39166,0.24287 0.39166,0.4145 0,0.25089 -0.23043,0.3121 -1.17501,0.3121 -0.9246,0 -1.17501,-0.0639 -1.17501,-0.29991 z m 3.72087,-0.012 c 0,-0.17163 0.17624,-0.35817 0.39166,-0.4145 0.34634,-0.0906 0.39168,-0.26713 0.39168,-1.5255 0,-1.27815 -0.0417,-1.43397 -0.40871,-1.52995 -0.66631,-0.17425 -0.39609,-0.80828 0.37615,-0.88254 0.51235,-0.0493 0.67105,0.0194 0.75088,0.32461 0.0996,0.38082 0.1072,0.38103 0.47479,0.0135 0.37535,-0.37533 1.43876,-0.51385 1.62548,-0.21171 0.055,0.089 0.0499,0.3534 -0.0107,0.58751 -0.0849,0.32453 -0.25942,0.42565 -0.73473,0.42565 -0.34288,0 -0.72917,0.10573 -0.85842,0.23501 -0.3546,0.35459 -0.30713,2.4371 0.0587,2.57751 0.16157,0.0621 0.29376,0.24766 0.29376,0.4126 0,0.236 -0.25041,0.29991 -1.17501,0.29991 -0.94457,0 -1.175,-0.0613 -1.175,-0.31209 z m 0.78334,-13.69493 c 0,-0.16423 0.22032,-0.38237 0.48958,-0.48475 0.48314,-0.18367 0.48959,-0.21586 0.48959,-2.44308 0,-1.87562 -0.0497,-2.25695 -0.29375,-2.25695 -0.16319,0 -0.29375,-0.17406 -0.29375,-0.39167 0,-0.32638 0.13056,-0.39166 0.78334,-0.39166 h 0.78334 v 2.82561 c 0,3.17147 -0.10079,3.4411 -1.28692,3.4411 -0.47112,0 -0.67143,-0.089 -0.67143,-0.2986 z m 9.00838,0.19855 c 0,-0.055 0.18627,-0.49631 0.41392,-0.98062 l 0.41391,-0.88056 -0.48368,-1.0267 c -0.26603,-0.56467 -0.60218,-1.35716 -0.74701,-1.76106 -0.14483,-0.40391 -0.37779,-0.73439 -0.51772,-0.73439 -0.13993,0 -0.25441,-0.17624 -0.25441,-0.39167 0,-0.34419 0.13055,-0.39166 1.07709,-0.39166 0.94653,0 1.07709,0.0474 1.07709,0.39166 0,0.21543 -0.12735,0.39167 -0.2829,0.39167 -0.23011,0 -0.20696,0.18273 0.12401,0.97918 0.22381,0.53854 0.47502,0.97917 0.55824,0.97917 0.24922,0 0.81042,-1.84883 0.58412,-1.92427 -0.11013,-0.0367 -0.20015,-0.23563 -0.20015,-0.44207 0,-0.3244 0.14617,-0.37534 1.07709,-0.37534 0.9243,0 1.0771,0.0523 1.0771,0.36883 0,0.20286 -0.15423,0.41139 -0.34271,0.46343 -0.1885,0.0521 -0.51156,0.52497 -0.71789,1.05097 -0.35758,0.9115 -0.98141,2.36609 -1.60697,3.74702 -0.21144,0.46672 -0.41644,0.63646 -0.76873,0.63646 -0.26423,0 -0.48041,-0.045 -0.48041,-0.10012 z m -18.01378,-1.71142 c 0.005,-0.47128 0.29977,-0.70306 0.97342,-0.76741 0.94369,-0.0901 1.17134,-0.64089 1.17487,-2.84234 0.003,-1.62764 -0.0343,-1.81008 -0.38878,-1.92259 -0.21541,-0.0684 -0.39166,-0.29462 -0.39166,-0.50278 0,-0.3316 0.14408,-0.37847 1.16345,-0.37847 1.29662,0 1.66447,0.27715 1.03953,0.7832 -0.36015,0.29162 -0.41261,0.58419 -0.4718,2.63103 -0.0662,2.29104 -0.0697,2.30531 -0.65409,2.77256 -0.43379,0.34677 -0.8309,0.46989 -1.51772,0.47061 -0.61573,6.4e-4 -0.9292,-0.0818 -0.92722,-0.24381 z m 5.07409,-0.005 c -0.45036,-0.34841 -0.76872,-1.42386 -0.76872,-2.59684 0,-0.73216 -0.0844,-1.05928 -0.29376,-1.13965 -0.16157,-0.0621 -0.29375,-0.24768 -0.29375,-0.41261 0,-0.22489 0.22045,-0.29991 0.88127,-0.29991 h 0.88124 v 1.73853 c 0,1.98856 0.21787,2.38324 1.13775,2.06098 0.49446,-0.17322 0.53046,-0.26776 0.58556,-1.53816 0.0461,-1.0622 -0.007,-1.39016 -0.24479,-1.52344 -0.63744,-0.35674 -0.339,-0.73791 0.57776,-0.73791 h 0.88124 v 1.95835 c 0,1.61019 0.0522,1.95834 0.29375,1.95834 0.1632,0 0.29376,0.17408 0.29376,0.39168 0,0.31578 -0.13056,0.39167 -0.67387,0.39167 -0.37062,0 -0.72847,-0.0884 -0.79522,-0.19637 -0.0812,-0.13122 -0.243,-0.13122 -0.48827,0 -0.49929,0.26721 -1.5972,0.23681 -1.97395,-0.0546 z m 7.57221,-0.005 c -0.37776,-0.27623 -0.68114,-1.50178 -0.69485,-2.80705 -0.005,-0.53454 -0.1088,-0.8498 -0.30229,-0.92406 -0.16157,-0.0621 -0.29375,-0.24768 -0.29375,-0.41262 0,-0.22489 0.22045,-0.2999 0.88126,-0.2999 h 0.88126 v 1.62716 c 0,1.97999 0.25448,2.48187 1.10699,2.18315 0.5314,-0.1862 0.56036,-0.25899 0.61631,-1.54897 0.0461,-1.06221 -0.007,-1.39015 -0.24479,-1.52345 -0.63744,-0.35672 -0.339,-0.73789 0.57776,-0.73789 h 0.88125 v 1.95835 c 0,1.61019 0.0522,1.95833 0.29376,1.95833 0.16318,0 0.29374,0.17409 0.29374,0.39168 0,0.31579 -0.13056,0.39167 -0.67387,0.39167 -0.37062,0 -0.72847,-0.0884 -0.79522,-0.19636 -0.0812,-0.13122 -0.243,-0.13122 -0.48827,0 -0.51684,0.2766 -1.62346,0.24402 -2.03929,-0.0601 z m -2.43407,-5.20316 c -0.14406,-0.0913 -0.23218,-0.37637 -0.19583,-0.63346 0.0794,-0.56171 0.88384,-0.65567 1.2084,-0.14115 0.37313,0.59154 -0.38563,1.17199 -1.01257,0.77461 z"
           id="path85" /><path
           style="fill:#b0b3c3;fill-opacity:1;stroke-width:0.740162"
           d="m 532.46824,-101.58366 c 0.17309,-0.40429 0.49795,-1.21976 0.7219,-1.81215 0.22396,-0.59242 0.52429,-1.21623 0.66739,-1.38627 0.14311,-0.17005 0.2602,-0.57757 0.2602,-0.90559 0,-0.88186 0.53118,-2.23004 1.12133,-2.84604 l 0.51862,-0.54131 h -1.47806 c -0.81293,0 -1.8649,-0.0481 -2.3377,-0.10679 -0.82216,-0.10213 -0.92365,-0.0547 -2.32838,1.08662 -1.92851,1.56705 -3.97919,2.59437 -5.01033,2.51004 -0.65856,-0.0539 -0.7604,-0.12388 -0.72149,-0.49579 0.0357,-0.34069 -0.13651,-0.51351 -0.80703,-0.81011 -1.09358,-0.48373 -1.23782,-0.73767 -0.72756,-1.28082 0.2267,-0.24132 0.41219,-0.49807 0.41219,-0.57054 0,-0.0725 -0.35551,-0.35622 -0.79001,-0.63052 -0.91373,-0.57681 -1.56001,-1.18355 -1.56001,-1.46456 0,-0.10773 0.44578,-0.19582 0.99062,-0.19582 2.532,0 4.91298,-0.59523 7.33235,-1.83304 l 1.56668,-0.80154 -0.73374,-0.12055 c -0.84897,-0.13947 -1.38612,-0.56539 -1.7153,-1.3601 -0.21896,-0.52863 -0.28664,-0.55606 -1.14394,-0.46383 -1.06989,0.11508 -1.96747,-0.34276 -2.55015,-1.30089 -0.19934,-0.32779 -0.70806,-0.89182 -1.13051,-1.2534 -0.42243,-0.3616 -1.02691,-1.12969 -1.34327,-1.70688 -0.50144,-0.91486 -0.576,-1.25454 -0.58126,-2.64876 -0.004,-0.87963 -0.0722,-1.66541 -0.15293,-1.74618 -0.34003,-0.34003 -0.11347,-1.13332 0.49831,-1.74515 0.62011,-0.62008 0.63226,-0.66117 0.3123,-1.05629 -0.4416,-0.54535 -0.6466,-2.14596 -0.39265,-3.0657 0.21623,-0.78312 1.09816,-1.85202 1.52806,-1.85202 0.14141,0 0.25711,-0.20071 0.25711,-0.44602 0,-0.44072 0.46812,-1.27927 0.86991,-1.55829 0.76764,-0.53307 1.48012,0.46298 1.48012,2.0692 0,3.26959 1.84734,6.45121 5.18962,8.93794 1.35595,1.00886 2.65139,1.66822 2.36402,1.20325 -0.1855,-0.30014 0.25434,-4.07614 0.69367,-5.95515 0.23187,-0.99165 0.62447,-2.26376 0.87243,-2.82691 0.24798,-0.56316 0.36926,-1.00379 0.2695,-0.97919 -0.14683,0.0362 -1.08618,-2.0625 -2.54379,-5.68341 l -0.17739,-0.44062 h 26.82552 26.82551 l -0.0499,18.3595 -0.0499,18.35949 -26.78331,0.0497 -26.78333,0.0497 z m 51.97901,-17.67477 v -17.23346 h -25.1876 -25.18758 l 0.10293,0.44063 c 0.25391,1.08648 1.61999,4.01421 2.01046,4.30876 0.42693,0.32203 0.43658,0.3122 0.87457,-0.88999 0.55767,-1.53071 0.92612,-2.09687 1.36457,-2.09687 0.42788,0 0.71269,0.32997 0.88812,1.02892 l 0.13482,0.53715 0.71322,-0.55887 c 0.92979,-0.72856 1.47571,-1.0072 1.97328,-1.0072 0.52408,0 0.50992,0.17274 -0.0797,0.97191 -1.02065,1.38342 -2.39757,5.8295 -2.58489,8.34666 -0.0977,1.31391 -0.0461,1.79675 0.30364,2.8396 0.62559,1.86501 0.66382,1.90148 1.37032,1.30701 1.23826,-1.04191 3.39177,-0.82684 3.92836,0.39235 0.40469,0.91954 1.39633,1.16009 2.90543,0.70481 0.61701,-0.18616 1.22552,-0.46243 1.35225,-0.61396 0.1362,-0.16285 0.3896,-0.22495 0.6198,-0.15189 0.59626,0.18923 1.29726,-0.0617 1.50694,-0.53943 0.21265,-0.48448 0.94477,-0.49441 1.47704,-0.02 0.17005,0.15154 0.47849,0.27609 0.68542,0.27678 0.78154,0.003 1.36482,1.86309 0.81688,2.60565 -0.416,0.56373 -1.76104,0.48671 -2.68525,-0.15378 -0.43494,-0.30141 -0.79216,-0.69026 -0.79382,-0.86411 -10e-4,-0.17384 -0.0934,-0.44826 -0.20399,-0.60982 -0.16558,-0.24197 -0.19094,-0.22471 -0.14388,0.0978 0.0458,0.31392 -0.0401,0.38054 -0.43246,0.33564 -0.60436,-0.0692 -2.35002,0.33291 -2.35002,0.54125 0,0.0838 0.19828,0.29945 0.44062,0.47913 0.42385,0.31425 0.39349,0.32268 -0.79625,0.22137 -1.34702,-0.11467 -2.20845,0.17277 -2.57609,0.8597 -0.26732,0.4995 -0.25791,1.71547 0.0145,1.88387 0.39293,0.24285 0.95012,1.73624 0.95449,2.5583 0.005,0.93537 -0.47707,2.22739 -0.83063,2.22632 -0.34924,-7.4e-4 -1.33875,-0.63802 -1.89925,-1.22256 l -0.48206,-0.50277 -1.08461,0.99282 c -0.59654,0.54605 -1.72719,1.29844 -2.51256,1.67199 l -1.42796,0.67917 0.15317,0.90459 c 0.38093,2.24967 -0.0673,3.28343 -1.95848,4.5172 -1.61065,1.05074 -1.7034,1.13705 -1.7034,1.58474 0,0.37938 0.29925,0.38394 25.16475,0.38394 h 25.16476 z m -27.95826,10.76376 c -0.56788,-0.22815 -0.90137,-1.05921 -0.62915,-1.56786 0.25978,-0.48541 0.79594,-0.76389 1.81613,-0.94332 0.67084,-0.11801 0.81127,-0.21548 0.75882,-0.52677 -0.0354,-0.2101 -0.18788,-0.50931 -0.33887,-0.66492 -0.23911,-0.24644 -0.36503,-0.23971 -0.97721,0.0522 -0.72143,0.34405 -1.06749,0.29883 -1.06749,-0.13943 0,-0.51909 1.54035,-0.97756 2.30611,-0.68642 0.81571,0.31013 1.01012,0.74734 1.01685,2.28668 0.004,1.08271 0.0769,1.45306 0.29998,1.53866 0.57884,0.22212 0.31932,0.65832 -0.39167,0.65832 -0.37699,0 -0.68543,-0.0836 -0.68543,-0.18584 0,-0.10226 -0.30561,-0.0582 -0.67913,0.0979 -0.77106,0.32218 -0.82102,0.325 -1.42894,0.0808 z m 1.67724,-0.81535 c 0.12923,-0.12923 0.235,-0.44871 0.235,-0.7099 0,-0.43094 -0.0587,-0.46316 -0.63384,-0.34813 -0.77414,0.15483 -1.22267,0.56978 -1.06367,0.9841 0.14069,0.36663 1.12029,0.41616 1.46251,0.0739 z m 11.26577,0.88384 c -0.63635,-0.12655 -1.40905,-0.99749 -1.54958,-1.74659 -0.1722,-0.9179 0.0376,-1.59695 0.69718,-2.25654 0.46597,-0.46596 0.72662,-0.5624 1.52002,-0.5624 0.80013,0 1.04671,0.093 1.49952,0.56564 0.70746,0.73843 0.87034,1.86922 0.4092,2.84097 -0.18777,0.3957 -0.48414,0.79411 -0.65858,0.88535 -0.44955,0.23511 -1.41706,0.37313 -1.91776,0.27357 z m 1.22855,-0.79871 c 0.36535,-0.24396 0.66577,-0.96984 0.66577,-1.60867 0,-0.64537 -0.73186,-1.57065 -1.24232,-1.57065 -0.56717,0 -1.13165,0.68409 -1.24173,1.50483 -0.0933,0.69587 -0.0354,0.88938 0.3951,1.31988 0.5019,0.50192 1.01215,0.62905 1.42318,0.35461 z m 3.01579,0.59019 c -1.2735,-0.63618 -1.54708,-2.82774 -0.48551,-3.88931 0.35335,-0.35335 0.68145,-0.4677 1.34184,-0.4677 0.48078,0 1.01354,0.0535 1.18392,0.11881 0.41782,0.16033 0.43207,1.44781 0.016,1.44781 -0.16156,0 -0.29375,-0.17032 -0.29375,-0.37847 0,-0.93845 -1.6272,-0.52261 -1.87888,0.48015 -0.36038,1.4359 0.5236,2.53276 1.66139,2.06147 0.5861,-0.24277 1.00082,-0.15641 1.00082,0.20842 0,0.20418 -1.17893,0.762 -1.60935,0.76148 -0.13808,-1.6e-4 -0.55951,-0.15439 -0.93649,-0.34271 z m 4.36401,0.20568 c -0.23868,-0.0462 -0.65727,-0.34938 -0.93022,-0.67378 -0.3995,-0.47477 -0.49627,-0.79981 -0.49627,-1.66691 0,-0.92939 0.0785,-1.15564 0.57244,-1.64956 0.46829,-0.4683 0.73784,-0.57244 1.48164,-0.57244 1.11161,0 1.57298,0.22974 1.9585,0.97525 0.71475,1.38217 0.10546,3.15006 -1.21175,3.51583 -0.40952,0.11374 -0.78863,0.19525 -0.84248,0.1812 -0.0539,-0.014 -0.2932,-0.0634 -0.53186,-0.1096 z m 1.51103,-1.03767 c 0.44021,-0.4402 0.51896,-1.4647 0.17126,-2.22782 -0.28553,-0.62668 -1.05041,-0.82029 -1.66076,-0.42038 -0.39912,0.26153 -0.46885,0.46506 -0.46885,1.36869 0,0.87488 0.0765,1.11506 0.43525,1.36632 0.58579,0.41031 1.05258,0.3837 1.5231,-0.0868 z m -29.3752,0.79022 c 0,-0.10386 0.17624,-0.28326 0.39167,-0.39855 0.35781,-0.19151 0.39166,-0.41004 0.39166,-2.52886 0,-2.16278 -0.0287,-2.33828 -0.42508,-2.60149 -0.74141,-0.49226 -0.25936,-0.74469 1.42211,-0.74469 2.32463,0 3.31134,0.54406 3.31134,1.82586 0,0.26442 -0.16522,0.6848 -0.36716,0.93418 -0.36219,0.44728 -0.36085,0.45838 0.098,0.81925 0.71591,0.56313 0.64932,1.71423 -0.13746,2.37625 -0.56387,0.47448 -0.73346,0.507 -2.64376,0.507 -1.18065,0 -2.04124,-0.0797 -2.04124,-0.18895 z m 4.00062,-0.90213 c 0.36524,-0.36524 0.40227,-1.08606 0.0728,-1.41561 -0.12922,-0.12922 -0.70206,-0.23499 -1.27292,-0.23499 h -1.03792 v 0.97917 0.97918 h 0.96519 c 0.61632,0 1.07641,-0.11121 1.27293,-0.30775 z m -0.32334,-2.7388 c 0.47351,-0.33166 0.57415,-1.04459 0.20024,-1.41848 -0.12922,-0.12922 -0.65801,-0.235 -1.17501,-0.235 h -0.94 v 0.97917 0.97917 h 0.73976 c 0.40688,0 0.93563,-0.13719 1.17501,-0.30486 z m 6.50611,3.53613 c 0,-0.16156 0.13216,-0.29375 0.29376,-0.29375 0.23673,0 0.29376,-0.30531 0.29376,-1.57282 0,-1.21741 -0.0664,-1.5983 -0.29376,-1.68555 -0.16156,-0.0621 -0.29376,-0.23549 -0.29376,-0.38552 0,-0.41596 1.30221,-0.35726 1.551,0.0698 0.10974,0.18849 0.20229,0.24118 0.20557,0.11708 0.008,-0.27743 0.9542,-0.60949 1.4372,-0.50401 0.23479,0.0513 0.3338,0.22028 0.29375,0.50142 -0.0475,0.33372 -0.1725,0.41099 -0.58656,0.36271 -0.88645,-0.10333 -1.33427,0.54165 -1.33427,1.92178 0,0.91389 0.0653,1.17501 0.29375,1.17501 0.16156,0 0.29375,0.13216 0.29375,0.29374 0,0.22552 -0.25024,0.29376 -1.07709,0.29376 -0.82686,0 -1.0771,-0.0682 -1.0771,-0.29376 z m 3.9167,0 c 0,-0.16156 0.13216,-0.29375 0.29375,-0.29375 0.2363,0 0.29376,-0.30231 0.29376,-1.54572 0,-1.19333 -0.067,-1.57143 -0.29376,-1.65845 -0.59272,-0.22745 -0.32607,-0.71252 0.39168,-0.71252 0.50723,0 0.68541,0.0842 0.68541,0.3241 0,0.29275 0.0331,0.295 0.34271,0.0231 0.76273,-0.66976 1.72569,-0.56887 1.58232,0.16579 -0.0523,0.26814 -0.21051,0.35197 -0.58201,0.30847 -0.8323,-0.0974 -1.14718,0.40656 -1.14718,1.83624 0,0.98849 0.0632,1.25894 0.29374,1.25894 0.16157,0 0.29376,0.13216 0.29376,0.29374 0,0.22551 -0.25022,0.29375 -1.07709,0.29375 -0.82686,0 -1.07709,-0.0682 -1.07709,-0.29375 z m -14.10009,-12.4355 c 0,-0.10773 0.13216,-0.19584 0.29374,-0.19584 0.16157,0 0.29376,0.0881 0.29376,0.19584 0,0.10773 -0.13216,0.19583 -0.29376,0.19583 -0.16156,0 -0.29374,-0.0881 -0.29374,-0.19583 z m -0.25705,-0.51815 c -0.25537,-0.25538 -0.13349,-0.46103 0.27336,-0.46103 0.2279,0 0.37377,0.10266 0.33047,0.23255 -0.0953,0.28619 -0.42238,0.40991 -0.60383,0.22848 z m 2.01956,-0.65686 c 0,-0.10773 0.12482,-0.19584 0.27743,-0.19584 0.15258,0 0.31678,-0.11013 0.36485,-0.24479 0.0481,-0.13463 0.15406,-0.18289 0.23547,-0.1072 0.17065,0.15855 -0.35489,0.7437 -0.66792,0.7437 -0.11548,0 -0.20983,-0.0881 -0.20983,-0.19583 z m 13.2619,0.0757 c -0.28255,-0.28256 -0.13029,-0.63748 0.29965,-0.69854 0.42472,-0.0603 0.44262,-0.14571 0.4958,-2.36364 0.0453,-1.88663 0.005,-2.30107 -0.22384,-2.30107 -0.30023,0 -0.56523,-0.47375 -0.37271,-0.66626 0.0643,-0.0643 0.41082,-0.11707 0.76986,-0.11707 h 0.65278 v 2.81562 c 0,2.02029 -0.0694,2.87327 -0.2459,3.0197 -0.34385,0.28537 -1.20637,0.48053 -1.37564,0.31126 z m 8.93079,-0.30401 c 0.62409,-1.52382 0.61815,-1.65808 -0.14958,-3.38106 -0.40462,-0.90807 -0.8592,-1.69846 -1.01015,-1.75638 -0.15097,-0.0579 -0.27448,-0.24028 -0.27448,-0.40522 0,-0.22885 0.22925,-0.29991 0.96761,-0.29991 1.03966,0 1.4218,0.27441 0.90668,0.65106 -0.29142,0.21309 -0.27851,0.33313 0.14881,1.38347 0.50871,1.25035 0.51031,1.25003 1.08813,-0.21592 0.33399,-0.8473 0.35091,-1.0175 0.1104,-1.1098 -0.15624,-0.0599 -0.28409,-0.24858 -0.28409,-0.41914 0,-0.25061 0.1944,-0.29878 1.01274,-0.25095 1.01807,0.0595 1.4737,0.41693 0.8029,0.62985 -0.23773,0.0754 -0.73405,0.99615 -1.46049,2.70933 -0.89367,2.10758 -1.18163,2.60735 -1.53291,2.66049 -0.29899,0.0453 -0.3995,-0.0152 -0.32554,-0.19582 z m -23.13433,-0.37388 c 0.0386,-0.11574 0.1539,-0.21053 0.25622,-0.21053 0.10226,0 0.21762,0.0948 0.25622,0.21053 0.0386,0.11574 -0.0768,0.21052 -0.25622,0.21052 -0.17952,0 -0.29481,-0.0948 -0.25622,-0.21052 z m 5.12858,-1.05304 c -0.16734,-0.43607 0.0623,-0.65177 0.58716,-0.55145 0.31174,0.0595 0.61636,-0.0505 0.88593,-0.32002 0.3669,-0.36688 0.41085,-0.6388 0.41085,-2.54217 0,-1.96664 -0.0303,-2.13926 -0.39168,-2.23376 -0.83361,-0.218 -0.37201,-0.53076 0.78334,-0.53076 0.91389,0 1.17501,0.0653 1.17501,0.29375 0,0.16156 -0.13216,0.29376 -0.29375,0.29376 -0.24198,0 -0.2938,0.35372 -0.29406,2.0073 -3.3e-4,2.23549 -0.30853,3.18452 -1.1747,3.61733 -0.66374,0.33164 -1.55467,0.31371 -1.6881,-0.034 z m 4.79907,-0.086 c -0.39411,-0.31912 -0.46794,-0.58352 -0.53323,-1.90938 -0.0513,-1.04189 -0.16359,-1.58956 -0.3476,-1.69559 -0.14949,-0.0861 -0.2718,-0.28973 -0.2718,-0.45245 0,-0.22211 0.18303,-0.28069 0.73439,-0.23506 l 0.73438,0.0607 0.0562,1.80958 c 0.0546,1.75387 0.0716,1.81341 0.55299,1.93425 0.2732,0.0685 0.71053,0.0272 0.97186,-0.0918 0.43628,-0.19879 0.47514,-0.32724 0.47514,-1.57059 0,-1.02298 -0.0718,-1.38164 -0.29375,-1.46681 -0.16157,-0.0621 -0.29375,-0.25299 -0.29375,-0.42444 0,-0.24046 0.16788,-0.29783 0.73437,-0.25094 l 0.73438,0.0607 0.0567,1.84454 c 0.0438,1.42426 0.12869,1.89715 0.37263,2.0755 0.17374,0.12709 0.25317,0.33248 0.1765,0.45653 -0.19779,0.32001 -1.0026,0.27964 -1.28831,-0.0646 -0.21272,-0.25633 -0.28912,-0.25633 -0.65506,0 -0.56743,0.39744 -1.3676,0.36393 -1.91616,-0.0802 z m 7.63755,0 c -0.39409,-0.31912 -0.46794,-0.58352 -0.53324,-1.90938 -0.0513,-1.04189 -0.16358,-1.58956 -0.34758,-1.69559 -0.53833,-0.31017 -0.30174,-0.72465 0.41362,-0.72465 h 0.68542 l 0.0195,1.41982 c 0.0268,1.94581 0.17156,2.38513 0.81084,2.45999 1.05269,0.12335 1.32382,-0.22726 1.32382,-1.71157 0,-1.01312 -0.0722,-1.37067 -0.29375,-1.45571 -0.59273,-0.22745 -0.32608,-0.71253 0.39166,-0.71253 h 0.68544 v 1.93551 c 0,1.80309 0.0282,1.94289 0.4123,2.04333 0.22675,0.0593 0.37408,0.2238 0.32737,0.36555 -0.12429,0.377 -0.91624,0.43364 -1.29437,0.0926 -0.28369,-0.25587 -0.37646,-0.25794 -0.70671,-0.0157 -0.52866,0.38774 -1.35153,0.34793 -1.89434,-0.0916 z m -2.65431,-5.42189 c -0.0653,-0.16991 0.0256,-0.45317 0.20198,-0.62947 0.29682,-0.29681 0.34424,-0.29681 0.64107,0 0.40037,0.40038 0.21661,0.93841 -0.32054,0.93841 -0.22218,0 -0.4573,-0.13903 -0.52251,-0.30894 z"
           id="path84" /><path
           style="fill:#333333;fill-opacity:1;stroke-width:0.740162"
           d="m 534.43219,-103.70623 c -0.28131,-0.7331 -0.32367,-2.38014 -0.0814,-3.16788 0.31039,-1.00944 1.44153,-2.49154 2.12527,-2.78463 0.34678,-0.14866 0.57501,-0.47484 0.75223,-1.07502 0.13992,-0.47388 0.41792,-1.16668 0.61776,-1.53955 l 0.36336,-0.67795 -0.62554,0.31206 c -1.05917,0.52838 -2.97385,0.43036 -4.29836,-0.22004 -0.61934,-0.30413 -1.12606,-0.66373 -1.12606,-0.79911 0,-0.30908 1.4191,-1.3389 2.4229,-1.75826 0.41705,-0.17424 1.04867,-0.31678 1.40355,-0.31678 0.71911,0 2.33844,0.6345 2.9095,1.14003 0.24936,0.22075 0.39724,0.25494 0.45023,0.10413 0.39791,-1.1328 5.34669,-4.76914 6.49044,-4.76914 0.8964,0 0.77523,0.43371 -0.26195,0.9376 -0.48468,0.23549 -0.88124,0.50328 -0.88124,0.5951 0,0.0918 -0.22032,0.26732 -0.48959,0.39001 -0.51252,0.23351 -0.66538,0.62287 -0.24479,0.62352 0.34155,5.2e-4 1.48729,1.73346 1.73198,2.61963 0.1116,0.40414 0.14758,1.01546 0.08,1.35846 -0.16456,0.83496 -0.50631,1.70074 -0.67135,1.70074 -0.26735,0 -1.88743,-1.13339 -2.36459,-1.65425 -0.43181,-0.47134 -0.48631,-0.69548 -0.4619,-1.89912 0.0276,-1.36019 0.0263,-1.36354 -0.37262,-1.0109 -1.49993,1.32565 -3.2249,3.62465 -3.57158,4.76009 -0.0822,0.26928 -0.31484,0.72445 -0.51695,1.0115 -0.29211,0.4149 -0.327,0.62829 -0.17014,1.04087 0.10853,0.28544 0.19732,1.03894 0.19732,1.67443 0,1.01721 -0.074,1.23965 -0.61788,1.85917 -0.63735,0.7259 -2.14778,1.85576 -2.48085,1.85576 -0.10373,0 -0.24215,-0.13969 -0.30767,-0.31042 z m 15.93981,-5.05721 c 0,-0.17137 0.13216,-0.31158 0.29376,-0.31158 0.24604,0 0.29375,-0.41343 0.29375,-2.54586 0,-2.13241 -0.0476,-2.54584 -0.29375,-2.54584 -0.1632,0 -0.29376,-0.17408 -0.29376,-0.39168 0,-0.35079 0.12776,-0.39078 1.22398,-0.38314 1.78118,0.012 2.91775,0.27854 3.32208,0.77788 0.51528,0.63634 0.44528,1.49383 -0.16837,2.06255 -0.28499,0.26413 -0.41718,0.48023 -0.29375,0.48023 0.42601,0 1.00777,0.78506 1.00777,1.35993 0,0.32693 -0.20448,0.8145 -0.47227,1.12605 -0.4537,0.52786 -0.5538,0.55209 -2.54586,0.61625 -1.79333,0.0578 -2.07358,0.0247 -2.07358,-0.24479 z m 3.87753,-0.74242 c 0.12922,-0.12922 0.235,-0.46414 0.235,-0.74417 0,-0.75156 -0.3505,-0.97917 -1.50792,-0.97917 h -1.03792 v 0.97917 0.97918 h 1.03792 c 0.57085,0 1.14368,-0.10573 1.27292,-0.23501 z m -0.26857,-2.81442 c 0.38963,-0.38964 0.39676,-1.1371 0.0139,-1.45486 -0.16163,-0.13414 -0.69039,-0.28858 -1.17501,-0.3432 l -0.88115,-0.0993 v 1.10256 1.10256 h 0.86728 c 0.5273,0 0.98789,-0.12068 1.17499,-0.30774 z m 2.07715,3.45397 c -0.54972,-1.02717 0.11213,-1.89558 1.5944,-2.09222 0.51951,-0.0689 0.94335,-0.18004 0.94188,-0.24695 -0.0218,-0.98991 -0.63021,-1.3493 -1.65623,-0.97829 -0.84819,0.3067 -1.13841,0.0662 -0.52254,-0.43314 0.29592,-0.2399 0.7666,-0.3748 1.30768,-0.3748 1.25967,0 1.65711,0.59344 1.65711,2.47434 0,1.15153 0.0593,1.44235 0.29375,1.44235 0.16156,0 0.29375,0.13216 0.29375,0.29375 0,0.35971 -0.98715,0.40327 -1.33168,0.0587 -0.18277,-0.18278 -0.28723,-0.18278 -0.47,0 -0.12922,0.12923 -0.61084,0.23501 -1.0702,0.23501 -0.62532,0 -0.88614,-0.0952 -1.03792,-0.37879 z m 2.18083,-0.53282 c 0.5308,-0.48037 0.46467,-1.04674 -0.12229,-1.04674 -1.03693,0 -1.84442,0.74329 -1.34741,1.24029 0.24515,0.24515 1.11089,0.1311 1.46966,-0.19355 z m 2.12063,0.70963 c 0,-0.11106 0.13216,-0.2527 0.29376,-0.3147 0.22884,-0.0878 0.29376,-0.47602 0.29376,-1.75637 0,-1.33046 -0.0559,-1.64364 -0.29376,-1.64364 -0.16156,0 -0.29376,-0.13216 -0.29376,-0.29376 0,-0.42411 1.28799,-0.40047 1.4519,0.0267 0.11387,0.29665 0.14919,0.29665 0.477,0 0.34637,-0.31346 1.21968,-0.43575 1.45208,-0.20335 0.25895,0.25895 -0.12615,0.66629 -0.62988,0.66629 -0.85162,0 -1.18441,0.54081 -1.18441,1.92479 0,0.94371 0.0643,1.20855 0.29375,1.20855 0.16156,0 0.29375,0.13216 0.29375,0.29376 0,0.22551 -0.25024,0.29375 -1.07709,0.29375 -0.60936,0 -1.0771,-0.0877 -1.0771,-0.20199 z m 3.9167,-0.0917 c 0,-0.16155 0.13216,-0.29374 0.29375,-0.29374 0.23673,0 0.29376,-0.30532 0.29376,-1.57283 0,-1.21741 -0.0664,-1.59829 -0.29376,-1.68555 -0.16157,-0.0621 -0.29375,-0.23548 -0.29375,-0.38552 0,-0.38161 1.11026,-0.35373 1.32686,0.0334 0.15536,0.2776 0.19499,0.2776 0.42539,0 0.13972,-0.16838 0.55171,-0.30613 0.9155,-0.30613 0.53088,0 0.66144,0.0773 0.66144,0.39167 0,0.30462 -0.13056,0.39166 -0.5875,0.39166 -0.93055,0 -1.37085,0.59534 -1.37085,1.85354 0,0.86978 0.0733,1.10947 0.39168,1.27982 0.68396,0.36604 0.42558,0.5875 -0.68543,0.5875 -0.82686,0 -1.07709,-0.0682 -1.07709,-0.29376 z m 4.43944,-0.10679 c -1.05781,-0.83208 -1.05893,-2.8701 -0.003,-3.70145 0.68154,-0.53609 1.99325,-0.53975 2.66997,-0.008 1.11272,0.87526 1.11773,2.83552 0.009,3.70728 -0.68522,0.53899 -1.99323,0.53977 -2.67741,10e-4 z m 2.24168,-0.60133 c 0.34507,-0.34507 0.3985,-0.57989 0.31933,-1.40372 -0.14603,-1.51981 -1.07005,-1.97589 -2.03935,-1.00659 -0.4375,0.43749 -0.49097,0.62444 -0.40265,1.40789 0.15541,1.37882 1.23597,1.88912 2.12267,1.00242 z m 2.38584,0.70755 c -0.23113,-0.1619 -0.52512,-0.61206 -0.65326,-1.00037 -0.53881,-1.63261 0.38893,-3.20947 1.88825,-3.20947 1.22177,0 1.44813,0.14101 1.44813,0.9022 0,0.77919 -0.32138,0.87485 -0.5875,0.17489 -0.13069,-0.3438 -0.33337,-0.48959 -0.68057,-0.48959 -0.78338,0 -1.27778,0.64406 -1.27778,1.66459 0,1.37193 0.90627,2.03182 1.99224,1.45063 0.28831,-0.1543 0.45931,-0.15451 0.61307,-7.4e-4 0.63698,0.63697 -1.89013,1.10494 -2.74258,0.50786 z m 3.84307,-0.27809 c -0.4932,-0.49319 -0.57244,-0.72076 -0.57244,-1.64388 0,-0.91207 0.0845,-1.16192 0.56815,-1.67966 0.47359,-0.50696 0.71558,-0.60821 1.45374,-0.60821 1.66924,0 2.6275,1.41868 2.11459,3.13062 -0.28208,0.94152 -0.93899,1.37357 -2.0884,1.37357 -0.73717,0 -1.00843,-0.10519 -1.47564,-0.57244 z m 2.45189,-0.4503 c 0.44398,-0.63385 0.39589,-2.01957 -0.0868,-2.50227 -0.49202,-0.49203 -1.00087,-0.49754 -1.59395,-0.0174 -0.60182,0.48734 -0.65213,1.92062 -0.0893,2.5426 0.49699,0.54918 1.37725,0.53773 1.77001,-0.0231 z m -43.1225,-9.01378 c -0.10773,-0.13464 -0.26225,-0.46511 -0.34342,-0.73438 -0.24871,-0.82508 -0.8796,-1.56663 -1.33349,-1.56741 -0.23502,-4e-4 -0.71371,-0.17536 -1.06376,-0.38879 -0.63167,-0.38515 -0.63646,-0.39971 -0.63646,-1.93645 0,-2.77801 1.25769,-7.73155 2.17344,-8.56028 0.35931,-0.32517 0.39783,-0.32071 0.84323,0.0977 l 0.46672,0.43847 0.42493,-1.27692 c 0.45703,-1.37341 1.04623,-2.27727 1.48445,-2.27727 0.32702,0 0.6781,0.60168 0.6781,1.16213 0,0.56047 0.1547,0.51695 1.34682,-0.37879 1.54741,-1.16271 2.30098,-1.06057 1.4675,0.1989 -0.66152,0.99964 -1.552,3.2259 -2.06573,5.16456 -0.46324,1.74806 -0.5622,4.28771 -0.27939,7.16995 l 0.16334,1.66461 -0.74057,0.73437 c -0.6203,0.6151 -0.87452,0.73438 -1.56522,0.73438 -0.45355,0 -0.91277,-0.11013 -1.02049,-0.24479 z m 15.5654,-0.14687 c -0.27387,-0.21543 -0.58645,-0.39168 -0.69462,-0.39168 -0.10813,0 -0.25624,-0.3525 -0.32904,-0.78333 -0.0824,-0.48735 -0.23825,-0.78335 -0.41262,-0.78335 -0.20116,0 -0.24557,0.13818 -0.15739,0.48959 0.0757,0.30168 0.0395,0.48958 -0.0941,0.48958 -0.11935,0 -0.21707,-0.0793 -0.21707,-0.1763 0,-0.0969 -0.59485,-0.0234 -1.32189,0.16346 -1.29801,0.33363 -1.81146,0.33718 -1.81146,0.012 0,-0.09 0.57281,-0.35417 1.27293,-0.58716 0.7001,-0.23297 1.27291,-0.49371 1.27291,-0.57941 0,-0.0857 0.37455,-0.11453 0.8323,-0.0639 0.73054,0.0806 0.85624,0.0358 1.02813,-0.36676 0.23416,-0.5484 0.91442,-0.69481 1.26509,-0.27227 0.1384,0.16676 0.45805,0.3032 0.71034,0.3032 0.48166,0 0.87422,0.50952 0.72144,0.93633 -0.0494,0.13801 0.0166,0.22613 0.14655,0.19584 0.31582,-0.0736 0.42951,0.69113 0.19461,1.30897 -0.16244,0.42724 -0.30847,0.49638 -1.04842,0.49638 -0.56316,0 -1.03145,-0.13509 -1.35762,-0.39166 z m 1.03261,-1.37085 c 0.16155,-0.10439 0.20562,-0.18984 0.098,-0.18984 -0.10773,0 -0.32802,0.0854 -0.48959,0.18984 -0.16157,0.10439 -0.20562,0.18983 -0.098,0.18983 0.10774,0 0.32803,-0.0854 0.4896,-0.18983 z m -3.13336,-1.95835 c 0,-0.10773 0.0829,-0.19583 0.18428,-0.19583 0.10132,0 0.23874,0.0881 0.3053,0.19583 0.0665,0.10774 -0.0163,0.19583 -0.18426,0.19583 -0.16793,0 -0.30532,-0.0881 -0.30532,-0.19583 z m 1.95835,-0.39167 c 0,-0.10773 0.0881,-0.19584 0.19583,-0.19584 0.10774,0 0.19584,0.0881 0.19584,0.19584 0,0.10773 -0.0881,0.19584 -0.19584,0.19584 -0.10773,0 -0.19583,-0.0881 -0.19583,-0.19584 z m 13.12091,-0.20068 c 0,-0.1104 0.22032,-0.28444 0.4896,-0.38682 0.48324,-0.18373 0.48959,-0.21546 0.48959,-2.44923 0,-1.83098 -0.0561,-2.28463 -0.29376,-2.37582 -0.52842,-0.20278 -0.30848,-0.46249 0.39166,-0.46249 h 0.68544 v 2.61342 c 0,2.28313 -0.0453,2.65438 -0.35813,2.93752 -0.39248,0.35518 -1.4044,0.4441 -1.4044,0.12335 z m 9.00841,0.0949 c 0,-0.0582 0.17607,-0.45085 0.39126,-0.87267 l 0.39128,-0.76696 -0.70162,-1.62422 c -0.38589,-0.89332 -0.87713,-1.77598 -1.09163,-1.96145 -0.54848,-0.47427 -0.28697,-0.73986 0.72852,-0.73986 0.8846,0 1.11084,0.24813 0.60527,0.66383 -0.2183,0.1795 -0.17087,0.43604 0.2718,1.47029 l 0.53624,1.25286 0.41943,-0.94819 c 0.62801,-1.41974 0.7052,-1.85128 0.33111,-1.85128 -0.17324,0 -0.31498,-0.0881 -0.31498,-0.19584 0,-0.10773 0.44062,-0.19583 0.97917,-0.19583 0.9279,0 1.29158,0.22989 0.71421,0.45144 -0.14574,0.0559 -0.7771,1.2991 -1.40303,2.76264 -0.87149,2.03765 -1.22227,2.66096 -1.49755,2.66096 -0.19772,0 -0.35948,-0.0477 -0.35948,-0.10573 z m -21.54182,-0.28594 c 0,-0.10774 0.0881,-0.19584 0.19583,-0.19584 0.10773,0 0.19584,0.0881 0.19584,0.19584 0,0.10773 -0.0881,0.19582 -0.19584,0.19582 -0.10773,0 -0.19583,-0.0881 -0.19583,-0.19582 z m -1.37084,-0.19584 c 0,-0.10773 0.0881,-0.19584 0.19584,-0.19584 0.10773,0 0.19582,0.0881 0.19582,0.19584 0,0.10773 -0.0881,0.19584 -0.19582,0.19584 -0.10773,0 -0.19584,-0.0881 -0.19584,-0.19584 z m 5.23858,-0.91834 c -0.62627,-0.16365 -0.39276,-0.64835 0.31235,-0.64835 1.1204,0 1.30329,-0.40749 1.30329,-2.90397 0,-1.81409 -0.0502,-2.18772 -0.29376,-2.18772 -0.16156,0 -0.29376,-0.13216 -0.29376,-0.29375 0,-0.22552 0.25024,-0.29376 1.0771,-0.29376 1.11101,0 1.36937,0.22145 0.68541,0.58751 -0.35532,0.19017 -0.39166,0.41005 -0.39166,2.36978 0,1.18809 -0.0952,2.33807 -0.21159,2.55554 -0.11641,0.21745 -0.51011,0.52009 -0.87498,0.67255 -0.68554,0.28644 -0.73844,0.29216 -1.3124,0.14217 z m 4.94867,-0.11654 c -0.69954,-0.35397 -0.97685,-1.04638 -0.98014,-2.44734 -0.003,-0.91084 -0.0792,-1.25937 -0.29663,-1.34283 -0.52843,-0.20278 -0.30849,-0.46249 0.39168,-0.46249 h 0.68541 v 1.48163 c 0,1.82772 0.19201,2.23922 1.04482,2.23922 0.92889,0 1.10935,-0.29409 1.10935,-1.80782 0,-1.00851 -0.0724,-1.36557 -0.29374,-1.45054 -0.52843,-0.20278 -0.30849,-0.46249 0.39168,-0.46249 h 0.68541 v 1.78009 c 0,1.60653 0.043,1.8159 0.44063,2.14765 l 0.44063,0.3676 -0.71807,0.007 c -0.39492,0.004 -0.7488,-0.0857 -0.7864,-0.19851 -0.0442,-0.13242 -0.32484,-0.0978 -0.79337,0.0978 -0.85946,0.35911 -0.72354,0.35382 -1.32126,0.0514 z m 7.59999,0.029 c -0.65334,-0.23923 -0.94547,-1.02849 -0.94547,-2.55451 0,-0.84329 -0.0786,-1.18214 -0.29374,-1.26467 -0.52843,-0.20277 -0.30848,-0.46248 0.39167,-0.46248 h 0.68542 v 1.48164 c 0,1.8277 0.19201,2.23922 1.04482,2.23922 0.92889,0 1.10935,-0.29409 1.10935,-1.80784 0,-1.00851 -0.0723,-1.36556 -0.29374,-1.45054 -0.52843,-0.20277 -0.30848,-0.46248 0.39167,-0.46248 h 0.68542 v 1.83948 c 0,1.45443 0.0615,1.86306 0.29374,1.9522 0.16157,0.0621 0.29376,0.20362 0.29376,0.3147 0,0.26545 -1.12215,0.26263 -1.21071,-0.003 -0.0442,-0.13243 -0.32484,-0.0979 -0.79336,0.0978 -0.39876,0.16661 -0.74989,0.29598 -0.78028,0.28748 -0.0303,-0.008 -0.29074,-0.10172 -0.57855,-0.20708 z m -2.90372,-5.5545 c -0.18017,-0.21707 -0.19573,-0.37237 -0.0518,-0.51634 0.32205,-0.32203 0.93293,-0.11227 0.93293,0.32041 0,0.48651 -0.54032,0.60664 -0.88117,0.19593 z"
           id="path83" /><path
           style="fill:#b0b3c3;fill-opacity:1;stroke-width:0.740162"
           d="m 534.34725,-104.38974 c -0.26559,-1.15057 -0.13123,-2.32451 0.38372,-3.35206 0.3639,-0.72619 1.47101,-1.72489 1.91213,-1.72489 0.13002,0 0.37027,-0.33047 0.534,-0.73439 0.16374,-0.4039 0.54704,-1.27633 0.8518,-1.93871 l 0.55408,-1.20433 -0.82114,0.36322 c -1.6883,0.74681 -3.29318,0.66394 -4.78035,-0.24684 -0.60251,-0.36898 -0.62516,-0.41978 -0.33178,-0.74397 0.17318,-0.19135 0.84832,-0.63226 1.5003,-0.97976 1.49811,-0.79849 2.60943,-0.75444 4.08343,0.16185 l 0.98035,0.60943 0.83011,-0.90068 c 1.3536,-1.46863 5.21731,-4.17756 5.95842,-4.17756 0.58363,0 0.17545,0.53001 -0.87471,1.13581 -1.57061,0.90603 -1.96822,1.23512 -1.63979,1.35724 0.5638,0.20967 1.62935,1.31827 1.91326,1.99059 0.35945,0.85115 0.39005,2.19763 0.0677,2.97604 -0.28743,0.69391 -0.41894,0.7012 -1.47603,0.0817 -1.46735,-0.85992 -2.00331,-2.35655 -1.43142,-3.99711 0.12015,-0.34469 0.17676,-0.66845 0.12575,-0.71943 -0.051,-0.051 -0.79987,0.59243 -1.66419,1.4298 -1.35745,1.31515 -1.70788,1.80296 -2.57298,3.58185 l -1.00151,2.05933 0.2257,1.07608 c 0.41397,1.97358 -0.0955,3.0877 -1.95833,4.28313 -0.52077,0.33417 -0.99011,0.6076 -1.04296,0.6076 -0.0529,0 -0.19933,-0.44726 -0.32553,-0.99393 z m 16.02475,-4.39153 c 0,-0.16156 0.13216,-0.29375 0.29376,-0.29375 0.24592,0 0.29375,-0.41111 0.29375,-2.5249 0,-2.0637 -0.0537,-2.54548 -0.29375,-2.63762 -0.16156,-0.0621 -0.29376,-0.20362 -0.29376,-0.3147 0,-0.12389 0.68537,-0.20199 1.77224,-0.20199 1.9649,0 2.80106,0.28455 2.99816,1.02029 0.19227,0.71775 0.15354,0.87466 -0.36908,1.49576 -0.46172,0.54871 -0.4703,0.59545 -0.12922,0.70369 1.03329,0.32797 1.01329,2.03185 -0.0314,2.66882 -0.8163,0.49775 -4.24071,0.5659 -4.24071,0.0844 z m 3.86774,-0.73769 c 0.34099,-0.26679 0.30623,-1.21963 -0.0554,-1.5198 -0.16513,-0.13704 -0.73796,-0.29124 -1.27293,-0.34264 l -0.97267,-0.0935 v 1.0896 c 0,1.08584 0.003,1.08982 0.63647,1.15245 0.75682,0.0748 1.3291,-0.0236 1.66459,-0.28613 z m -0.32982,-2.6963 c 0.39999,-0.21408 0.50924,-1.05056 0.20083,-1.53757 -0.0945,-0.14936 -0.622,-0.31478 -1.17201,-0.36764 l -1.00005,-0.0961 v 1.102 1.10202 h 0.79622 c 0.43791,0 0.96666,-0.0912 1.17501,-0.20273 z m 2.25321,3.42001 c -0.39188,-0.39186 -0.3955,-1.14323 -0.008,-1.53132 0.30764,-0.30764 1.48558,-0.70375 2.09861,-0.70571 0.38466,-0.001 0.44432,-0.42448 0.13999,-0.99314 -0.22516,-0.42071 -0.79198,-0.48907 -1.39212,-0.16788 -0.21677,0.116 -0.54145,0.15352 -0.72152,0.0833 -0.59648,-0.23236 0.46597,-0.88178 1.44259,-0.88178 1.25508,0 1.65712,0.5952 1.65712,2.45339 0,1.0828 0.07,1.44825 0.29374,1.53413 0.49727,0.1908 0.32521,0.51667 -0.2728,0.51667 -0.3439,0 -0.61486,-0.12588 -0.6895,-0.3204 -0.11387,-0.29666 -0.1492,-0.29666 -0.47701,0 -0.45014,0.40738 -1.66955,0.41483 -2.07172,0.012 z m 2.05514,-0.48249 c 0.21721,-0.11628 0.37879,-0.40863 0.37879,-0.68543 0,-0.38088 -0.10052,-0.4827 -0.47683,-0.4827 -1.10103,0 -1.87795,0.71328 -1.35095,1.24029 0.19747,0.19748 1.02186,0.15643 1.44899,-0.0722 z m 2.1413,0.57606 c 0,-0.11775 0.17626,-0.26027 0.39168,-0.3166 0.3497,-0.0914 0.39167,-0.26711 0.39167,-1.63938 0,-1.34358 -0.0499,-1.56368 -0.39716,-1.74949 -0.52437,-0.28063 -0.31186,-0.58456 0.40871,-0.58456 0.46078,0 0.57595,0.0852 0.57595,0.4258 v 0.4258 l 0.45324,-0.4258 c 0.59351,-0.55756 1.50511,-0.57824 1.50511,-0.0342 0,0.2999 -0.13056,0.39168 -0.55716,0.39168 -0.87247,0 -1.20535,0.53157 -1.20535,1.92481 0,0.9437 0.0643,1.20854 0.29375,1.20854 0.16156,0 0.29375,0.13216 0.29375,0.29375 0,0.22551 -0.25024,0.29375 -1.07709,0.29375 -0.64898,0 -1.0771,-0.0852 -1.0771,-0.21416 z m 3.9167,-0.0796 c 0,-0.16155 0.13216,-0.29374 0.29375,-0.29374 0.23808,0 0.29376,-0.31552 0.29376,-1.6646 0,-1.34908 -0.0557,-1.6646 -0.29376,-1.6646 -0.16157,0 -0.29375,-0.13216 -0.29375,-0.29375 0,-0.46375 1.18613,-0.39145 1.30937,0.0798 0.0961,0.36752 0.10373,0.36752 0.47125,0 0.49263,-0.49263 1.60413,-0.51529 1.51237,-0.0308 -0.0427,0.22535 -0.28146,0.36367 -0.69723,0.40389 -0.87763,0.0849 -1.22492,0.66291 -1.22492,2.03866 0,0.87517 0.0665,1.13144 0.29376,1.13144 0.16156,0 0.29374,0.13216 0.29374,0.29375 0,0.22195 -0.23935,0.29376 -0.97916,0.29376 -0.73983,0 -0.97918,-0.0718 -0.97918,-0.29376 z m 4.29331,-0.27868 c -0.49771,-0.4977 -0.57246,-0.717 -0.57246,-1.67966 0,-0.96265 0.0748,-1.18196 0.57246,-1.67965 0.46868,-0.46871 0.73761,-0.57244 1.48382,-0.57244 0.74621,0 1.01513,0.10372 1.48383,0.57244 0.49769,0.49769 0.57242,0.717 0.57242,1.67965 0,0.96266 -0.0747,1.18196 -0.57242,1.67966 -0.4687,0.46869 -0.73762,0.57244 -1.48383,0.57244 -0.74621,0 -1.01514,-0.10373 -1.48382,-0.57244 z m 2.45189,-0.45031 c 0.44396,-0.63385 0.39589,-2.01957 -0.0868,-2.50227 -0.92396,-0.92397 -2.15417,-0.19703 -2.15417,1.27292 0,0.62015 0.116,0.99731 0.39166,1.27292 0.53222,0.53222 1.46137,0.51033 1.84933,-0.0436 z m 2.22256,0.4842 c -1.33956,-1.42689 -0.51081,-3.97088 1.29102,-3.96297 1.14572,0.005 1.4913,0.19121 1.4913,0.8035 0,0.65291 -0.48471,0.78307 -0.64424,0.173 -0.0692,-0.26467 -0.26712,-0.39168 -0.61035,-0.39168 -0.78144,0 -1.29126,0.64001 -1.29126,1.62102 0,1.44753 0.86593,2.09698 1.99224,1.4942 0.60941,-0.32614 0.89365,0.0908 0.33071,0.48505 -0.74004,0.51835 -1.96399,0.41213 -2.55942,-0.22212 z m 4.30004,0.32702 c -0.50118,-0.29191 -0.93021,-1.23306 -0.93021,-2.04057 0,-1.40832 0.83732,-2.25209 2.23491,-2.25209 1.88124,0 2.7431,2.76196 1.25309,4.0157 -0.62254,0.52384 -1.89701,0.66184 -2.55779,0.27696 z m 2.04084,-0.70008 c 0.51579,-0.46678 0.49503,-2.08486 -0.0335,-2.61341 -0.96993,-0.96994 -2.26958,-0.005 -2.09525,1.55476 0.1064,0.95258 0.5062,1.38276 1.28497,1.38276 0.26712,0 0.64685,-0.14586 0.84382,-0.32411 z m -42.67031,-9.11206 c -0.23892,-0.11774 -0.53514,-0.53229 -0.65828,-0.92126 -0.3557,-1.12359 -0.72684,-1.58849 -1.26814,-1.58849 -0.27024,0 -0.80851,-0.13256 -1.19614,-0.29448 l -0.70476,-0.29446 0.0976,-2.00659 c 0.11333,-2.33195 0.74707,-5.20668 1.53241,-6.95141 0.58351,-1.29632 0.93109,-1.49456 1.58414,-0.90356 0.28872,0.26129 0.3689,0.27031 0.43447,0.049 0.48858,-1.64924 1.32741,-3.30689 1.67339,-3.30689 0.37477,0 0.80021,0.63214 0.80021,1.189 0,0.6451 0.21415,0.73123 0.61247,0.24631 0.3535,-0.43033 1.93973,-1.43531 2.26547,-1.43531 0.38209,0 0.31537,0.2683 -0.3255,1.30887 -0.74975,1.21738 -1.86433,4.58047 -2.24731,6.78095 -0.23511,1.35096 -0.25625,2.00941 -0.0974,3.03544 0.1116,0.72063 0.25094,1.839 0.30976,2.48525 0.10559,1.16118 0.0981,1.1835 -0.64591,1.89618 -0.84238,0.80694 -1.52058,1.02967 -2.16641,0.71149 z m 16.7866,-0.25766 c 0,-0.4964 -0.26685,-0.65414 -0.49156,-0.29055 -0.0677,0.10946 -0.19043,0.15736 -0.27284,0.10639 -0.0824,-0.051 -0.44857,-0.14523 -0.8137,-0.20956 -0.99987,-0.17614 -1.33753,-0.9509 -0.54259,-1.24497 0.2817,-0.10426 0.34776,-0.20509 0.19582,-0.29899 -0.12615,-0.078 -0.22932,-0.31278 -0.22932,-0.52185 0,-0.54233 1.16853,-0.54512 1.31026,-0.003 0.069,0.26371 0.2524,0.36669 0.61046,0.34271 0.34073,-0.0228 0.53481,0.0761 0.58045,0.29591 0.053,0.25523 -0.0974,0.34413 -0.66261,0.39167 -0.4391,0.037 -0.76656,0.17883 -0.81976,0.35525 -0.0716,0.23707 -0.0385,0.24651 0.17091,0.049 0.62727,-0.59177 2.06763,-0.041 1.80702,0.69109 -0.31546,0.88606 -0.84254,1.0969 -0.84254,0.33703 z m -6.35344,-0.86314 c -0.0603,-0.0977 0.43619,-0.36213 1.10357,-0.58751 1.30834,-0.44184 1.92067,-0.51514 1.92067,-0.22995 0,0.0989 0.0525,0.34124 0.11641,0.53854 0.0922,0.28441 0.0752,0.30049 -0.0829,0.0777 -0.17226,-0.24289 -0.36056,-0.23625 -1.38636,0.0489 -1.36807,0.38035 -1.52175,0.39436 -1.67135,0.15229 z m 2.63258,-2.36812 c 0,-0.10773 0.0881,-0.19584 0.19584,-0.19584 0.10773,0 0.19582,0.0881 0.19582,0.19584 0,0.10773 -0.0881,0.19582 -0.19582,0.19582 -0.10773,0 -0.19584,-0.0881 -0.19584,-0.19582 z m 15.1901,-0.56662 c -0.0594,-0.0962 0.11161,-0.23008 0.3801,-0.29748 0.48781,-0.12242 0.48825,-0.12469 0.48825,-2.56674 0,-2.04207 -0.0483,-2.4442 -0.29376,-2.4442 -0.16157,0 -0.29375,-0.0881 -0.29375,-0.19584 0,-0.10773 0.30844,-0.19584 0.68541,-0.19584 h 0.68544 v 2.50228 c 0,1.94781 -0.0675,2.59872 -0.30485,2.93752 -0.30397,0.43396 -1.13969,0.59548 -1.34684,0.2603 z m 9.0934,0.0194 c 0,-0.10359 0.13795,-0.51838 0.30654,-0.9219 0.30013,-0.71828 0.29152,-0.76902 -0.41122,-2.42288 -0.39477,-0.92907 -0.90724,-1.8415 -1.13884,-2.02758 -0.41213,-0.33117 -0.39923,-0.33846 0.60707,-0.34272 0.56547,-0.003 1.02812,0.0837 1.02812,0.19147 0,0.10773 -0.13216,0.19585 -0.29375,0.19585 -0.16156,0 -0.29375,0.0423 -0.29375,0.094 0,0.23072 1.06056,2.64764 1.1618,2.64764 0.13488,0 0.99237,-2.16419 0.99237,-2.50461 0,-0.13043 -0.0881,-0.23706 -0.19583,-0.23706 -0.10773,0 -0.19583,-0.0881 -0.19583,-0.19585 0,-0.10773 0.39656,-0.19583 0.88126,-0.19583 0.48469,0 0.88125,0.0881 0.88125,0.19583 0,0.10773 -0.11614,0.19585 -0.258,0.19585 -0.14426,0 -0.77026,1.18102 -1.4198,2.67858 -0.63899,1.47322 -1.27196,2.71433 -1.40659,2.75801 -0.13464,0.0436 -0.2448,-0.005 -0.2448,-0.1088 z m -18.21262,-1.70482 c 0,-0.204 0.20515,-0.29376 0.67143,-0.29376 1.14091,0 1.28692,-0.32374 1.28692,-2.85359 0,-1.85887 -0.0498,-2.23811 -0.29376,-2.23811 -0.16156,0 -0.29376,-0.13216 -0.29376,-0.29376 0,-0.22193 0.23936,-0.29374 0.97918,-0.29374 0.73983,0 0.97918,0.0718 0.97918,0.29374 0,0.16157 -0.13216,0.29376 -0.29375,0.29376 -0.24421,0 -0.29376,0.38246 -0.29376,2.26717 0,2.2447 -0.005,2.27282 -0.57244,2.8396 -0.44549,0.44548 -0.74951,0.57243 -1.37083,0.57243 -0.57915,0 -0.79841,-0.0806 -0.79841,-0.29374 z m 4.89587,-0.0978 c -0.32089,-0.3209 -0.39168,-0.65279 -0.39168,-1.83655 0,-1.27676 -0.0513,-1.48063 -0.44063,-1.75223 -0.43475,-0.30327 -0.43083,-0.30752 0.29376,-0.31765 l 0.73438,-0.0107 v 1.66008 c 0,1.5458 0.033,1.68173 0.48,1.97459 0.28181,0.18465 0.64519,0.26207 0.88009,0.18752 0.78027,-0.24766 0.98992,-0.66104 0.98992,-1.95186 0,-1.05917 -0.0627,-1.27883 -0.44063,-1.54241 -0.43475,-0.30328 -0.43083,-0.30752 0.29376,-0.31765 l 0.73438,-0.0107 v 1.86656 c 0,1.47853 0.061,1.89001 0.29375,1.97931 0.49769,0.19098 0.32526,0.46248 -0.29375,0.46248 -0.41027,0 -0.58751,-0.0954 -0.58751,-0.31628 0,-0.29114 -0.0383,-0.29114 -0.48269,0 -0.66031,0.43266 -1.58906,0.39873 -2.06315,-0.0754 z m 7.55073,-0.0437 c -0.20898,-0.29836 -0.30485,-0.88921 -0.30485,-1.87877 0,-1.27881 -0.0447,-1.4552 -0.39167,-1.54594 -0.63389,-0.16576 -0.44873,-0.44841 0.29375,-0.44841 h 0.68542 v 1.63425 c 0,1.33452 0.0657,1.69368 0.35813,1.95835 0.47473,0.42962 0.85234,0.40871 1.47589,-0.0818 0.46319,-0.36434 0.516,-0.53657 0.516,-1.68293 0,-1.11235 -0.0505,-1.29026 -0.39167,-1.37947 -0.63389,-0.16576 -0.44873,-0.44841 0.29375,-0.44841 h 0.68542 v 1.86658 c 0,1.47851 0.061,1.89001 0.29374,1.97929 0.49771,0.191 0.32527,0.4625 -0.29374,0.4625 -0.39167,0 -0.5875,-0.098 -0.5875,-0.29376 0,-0.36549 -0.18469,-0.36379 -0.67389,0.005 -0.58543,0.44281 -1.59869,0.36639 -1.95878,-0.14771 z m -2.3244,-4.97876 c -0.30167,-0.30169 -0.12682,-0.8527 0.27066,-0.8527 0.30461,0 0.38974,0.10559 0.34271,0.42529 -0.065,0.44166 -0.37977,0.66101 -0.61337,0.42741 z"
           id="path82" /><path
           style="fill:#b0b3c3;fill-opacity:1;stroke-width:0.740162"
           d="m 550.372,-108.78127 c 0,-0.16156 0.13216,-0.29375 0.29376,-0.29375 0.24592,0 0.29375,-0.41111 0.29375,-2.5249 0,-2.0637 -0.0537,-2.54548 -0.29375,-2.63762 -0.16156,-0.0621 -0.29376,-0.20362 -0.29376,-0.3147 0,-0.27913 3.37596,-0.26152 3.99566,0.0208 0.95965,0.43725 1.04372,1.9855 0.1385,2.55081 -0.37829,0.23625 -0.37771,0.24343 0.0358,0.44962 0.23116,0.1152 0.54879,0.4385 0.70588,0.71836 0.40574,0.72289 -0.012,1.68914 -0.88872,2.05544 -0.93296,0.38982 -3.98716,0.37135 -3.98716,-0.024 z m 3.83986,-0.7866 c 0.36115,-0.36116 0.45754,-0.60971 0.36075,-0.93022 -0.2141,-0.70888 -0.43004,-0.81939 -1.6109,-0.82434 l -1.12094,-0.004 -0.0613,0.8547 c -0.0898,1.25316 0.0178,1.3974 1.04326,1.3974 0.69652,0 1.00615,-0.10986 1.38915,-0.49285 z m -0.11855,-2.73902 c 0.35826,-0.43169 0.29778,-1.30059 -0.11133,-1.59977 -0.19563,-0.14303 -0.77945,-0.26006 -1.29742,-0.26006 h -0.94174 v 1.07709 1.07709 h 1.05312 c 0.69815,0 1.13546,-0.0992 1.2974,-0.29435 z m 2.08612,3.46124 c -0.77158,-0.85258 -0.0407,-1.84306 1.53403,-2.07922 0.74494,-0.11174 0.88355,-0.20127 0.88355,-0.57092 0,-0.83672 -0.88866,-1.18026 -1.79642,-0.69444 -0.26854,0.14372 -0.46459,0.14919 -0.59712,0.0167 -0.26236,-0.26235 0.81017,-0.81815 1.57878,-0.81815 0.31654,0 0.78139,0.1667 1.03298,0.37041 0.3941,0.31913 0.46795,0.58352 0.53324,1.9094 0.0513,1.04188 0.16358,1.58955 0.34759,1.69557 0.45401,0.2616 0.30507,0.52883 -0.29475,0.52883 -0.33296,0 -0.61496,-0.12615 -0.68394,-0.30591 -0.1064,-0.27731 -0.15821,-0.27731 -0.55411,0 -0.591,0.41396 -1.58563,0.38777 -1.98383,-0.0522 z m 1.8398,-0.33232 c 0.40364,-0.20873 0.57778,-0.44482 0.57778,-0.78333 0,-0.41016 -0.0922,-0.48457 -0.60038,-0.48457 -0.3302,0 -0.77083,0.0912 -0.97917,0.20273 -0.42313,0.22645 -0.51582,1.08019 -0.13401,1.23426 0.4027,0.16249 0.53174,0.14328 1.13578,-0.16909 z m 2.53613,0.3967 c 0,-0.16156 0.13216,-0.29375 0.29375,-0.29375 0.23673,0 0.29376,-0.30531 0.29376,-1.57282 0,-1.21741 -0.0664,-1.5983 -0.29376,-1.68555 -0.49233,-0.18893 -0.33962,-0.65832 0.21417,-0.65832 0.34187,0 0.54115,0.12709 0.60952,0.38855 0.10133,0.38752 0.10293,0.38752 0.59559,0 0.6613,-0.52018 1.42032,-0.51852 1.42032,0.003 0,0.3025 -0.13055,0.39166 -0.5735,0.39166 -0.90616,0 -1.189,0.44094 -1.189,1.85347 0,0.91977 0.0756,1.26695 0.29375,1.35071 0.62158,0.23853 0.25257,0.51668 -0.68543,0.51668 -0.73982,0 -0.97917,-0.0718 -0.97917,-0.29376 z m 3.72085,0 c 0,-0.16156 0.13216,-0.29375 0.29376,-0.29375 0.23807,0 0.29376,-0.31551 0.29376,-1.6646 0,-1.34908 -0.0557,-1.66459 -0.29376,-1.66459 -0.16157,0 -0.29376,-0.13216 -0.29376,-0.29376 0,-0.48316 1.1204,-0.38266 1.27825,0.11467 l 0.12962,0.40842 0.45192,-0.42454 c 0.50273,-0.47231 1.37149,-0.4727 1.37149,-6.2e-4 0,0.18132 -0.22487,0.31878 -0.5875,0.35911 -0.99889,0.11106 -1.27293,0.52515 -1.27293,1.92334 0,0.97397 0.0635,1.24259 0.29376,1.24259 0.16155,0 0.29374,0.13216 0.29374,0.29374 0,0.22195 -0.23936,0.29375 -0.97916,0.29375 -0.73983,0 -0.97919,-0.0718 -0.97919,-0.29375 z m 4.75925,0.0956 c -0.91999,-0.37049 -1.3369,-2.18155 -0.75932,-3.29848 0.48769,-0.94306 1.77115,-1.27393 2.82589,-0.72851 0.68195,0.35265 1.00757,1.06143 1.00757,2.19315 0,1.59993 -1.473,2.47863 -3.07414,1.83384 z m 1.93268,-0.71347 c 0.24855,-0.22494 0.35812,-0.60106 0.35812,-1.22934 0,-1.19968 -0.41292,-1.77574 -1.27291,-1.77574 -0.83543,0 -1.27293,0.57213 -1.27293,1.66459 0,1.06289 0.44088,1.66461 1.21965,1.66461 0.33547,0 0.77109,-0.14586 0.96807,-0.32412 z m 2.30141,0.33917 c -0.49445,-0.49445 -0.57244,-0.71973 -0.57244,-1.65367 0,-0.84047 0.0981,-1.19416 0.44063,-1.58835 0.8368,-0.96309 2.88855,-0.83048 2.88855,0.18668 0,0.30894 -0.11013,0.49443 -0.29374,0.49443 -0.1632,0 -0.29375,-0.17408 -0.29375,-0.39166 0,-0.53762 -1.16895,-0.54768 -1.65173,-0.0142 -0.47386,0.52362 -0.48189,2.04182 -0.0136,2.55935 0.37644,0.41597 1.54691,0.54646 1.76316,0.19656 0.18123,-0.29325 0.48959,-0.23591 0.48959,0.091 0,0.39842 -0.62442,0.69231 -1.47095,0.69231 -0.52733,0 -0.86263,-0.14928 -1.2858,-0.57244 z m 4.30151,0.27877 c -1.17781,-0.64014 -1.26606,-2.70411 -0.15795,-3.69428 0.5427,-0.48493 0.74422,-0.54772 1.48879,-0.46379 0.47364,0.0534 1.03333,0.25288 1.24377,0.44333 0.92913,0.84084 0.85426,2.8274 -0.1359,3.60625 -0.5968,0.46945 -1.68545,0.51788 -2.43871,0.10853 z m 2.09679,-0.70614 c 0.48797,-0.5393 0.47728,-1.97726 -0.0188,-2.5254 -0.40524,-0.44779 -1.22962,-0.51146 -1.74478,-0.13478 -0.50871,0.37198 -0.65114,1.94231 -0.23391,2.57907 0.41811,0.63811 1.4554,0.68023 1.99747,0.0812 z m -43.08445,-9.42838 c -0.15677,-0.24235 -0.34495,-0.68437 -0.4182,-0.98227 -0.16113,-0.65524 -0.95365,-1.31879 -1.57514,-1.31879 -0.24967,0 -0.67841,-0.10226 -0.95275,-0.22726 -0.44262,-0.20169 -0.49881,-0.34347 -0.49881,-1.25877 0,-2.36645 0.91064,-6.63588 1.77802,-8.3361 0.43477,-0.85222 0.97537,-0.98411 1.42171,-0.34689 0.33341,0.47602 0.34142,0.46535 0.89302,-1.18939 0.23339,-0.70011 0.54697,-1.43488 0.69686,-1.63284 0.42466,-0.56084 0.96187,-0.32698 1.16893,0.50887 0.2119,0.85537 0.28782,0.87936 0.9232,0.29167 0.26201,-0.24234 0.71241,-0.59484 1.00088,-0.78333 0.87043,-0.56876 1.77084,-0.37183 1.04692,0.22897 -0.75753,0.62869 -2.30656,5.05137 -2.65144,7.57017 -0.14974,1.09363 -0.15576,1.9935 -0.0196,2.93539 0.27939,1.93307 0.24331,3.44412 -0.0929,3.88839 -0.81754,1.0805 -2.22541,1.41797 -2.72073,0.65218 z m 15.25732,-1.12605 c -0.0665,-0.10773 -0.0183,-0.19584 0.10733,-0.19584 0.12561,0 0.17761,-0.13216 0.1156,-0.29375 -0.12442,-0.32425 0.0347,-0.3728 0.42016,-0.12829 0.13861,0.088 0.19511,0.3063 0.12589,0.48659 -0.1387,0.36145 -0.58018,0.43678 -0.76902,0.13122 z"
           id="path81" /><path
           style="fill:#494949;fill-opacity:1;stroke-width:0.740162"
           d="m 550.372,-108.66672 c 0,-0.12362 0.13216,-0.27548 0.29376,-0.33748 0.24014,-0.0921 0.29375,-0.5746 0.29375,-2.64378 0,-2.06916 -0.0535,-2.55161 -0.29375,-2.64376 -0.16156,-0.0621 -0.29376,-0.19968 -0.29376,-0.30596 0,-0.11854 0.74856,-0.16723 1.93826,-0.12588 2.299,0.0798 2.76178,0.34157 2.76178,1.5619 0,0.58926 -0.10786,0.8192 -0.50736,1.08093 l -0.50737,0.33243 0.5164,0.27055 c 0.98702,0.51716 1.04007,1.66145 0.1156,2.49433 -0.34905,0.31446 -0.78517,0.39964 -2.3725,0.4634 -1.37821,0.0554 -1.94483,0.012 -1.94483,-0.14664 z m 3.58687,-0.63345 c 0.82549,-0.43451 0.95389,-1.10914 0.32984,-1.73319 -0.29672,-0.29672 -0.65279,-0.39168 -1.46877,-0.39168 h -1.07709 v 1.17501 1.17501 h 0.89414 c 0.49177,0 1.08662,-0.10132 1.32188,-0.22515 z m 0.18295,-3.13667 c 0.75924,-0.89156 0.0712,-1.72988 -1.4198,-1.72988 h -0.97917 v 1.04445 c 0,0.57444 0.0656,1.10999 0.14564,1.19008 0.27378,0.27377 1.90075,-0.0906 2.25333,-0.50465 z m 1.99558,3.46933 c -0.59567,-0.90912 0.0284,-1.64433 1.57841,-1.8593 0.62924,-0.0873 0.79592,-0.19744 0.84733,-0.56005 0.12589,-0.8878 -0.80874,-1.3138 -1.76249,-0.80337 -0.2528,0.13529 -0.46829,0.14549 -0.58605,0.0278 -0.11774,-0.11774 0.0629,-0.30443 0.49124,-0.50772 1.79198,-0.85035 2.67074,-0.007 2.67348,2.56707 5.9e-4,0.56548 0.0892,1.02813 0.19692,1.02813 0.10773,0 0.19583,0.13216 0.19583,0.29376 0,0.18278 -0.18495,0.29375 -0.48958,0.29375 -0.30463,0 -0.48959,-0.11093 -0.48959,-0.29375 0,-0.3655 -0.18468,-0.36379 -0.6739,0.005 -0.61417,0.46454 -1.61478,0.36735 -1.9816,-0.19248 z m 2.0356,-0.22437 c 0.31202,-0.21854 0.42832,-0.46913 0.38628,-0.8323 -0.0541,-0.46707 -0.12935,-0.51285 -0.74555,-0.45287 -0.64907,0.0631 -1.37084,0.50066 -1.37084,0.83089 0,0.27484 0.6093,0.76697 0.94958,0.76697 0.18376,0 0.535,-0.14071 0.78053,-0.31269 z m 2.38241,0.50238 c 0,-0.11106 0.13216,-0.2527 0.29376,-0.3147 0.22882,-0.0878 0.29375,-0.47602 0.29375,-1.75637 0,-1.33046 -0.0559,-1.64364 -0.29375,-1.64364 -0.16157,0 -0.29376,-0.0881 -0.29376,-0.19584 0,-0.10773 0.26437,-0.19582 0.58751,-0.19582 0.47027,0 0.5875,0.0838 0.5875,0.42025 0,0.40318 0.0195,0.39919 0.48024,-0.0979 0.57088,-0.61597 1.47811,-0.71365 1.47811,-0.15915 0,0.26962 -0.14864,0.35903 -0.59683,0.35903 -0.88297,0 -1.22515,0.46678 -1.32182,1.80311 -0.0745,1.02917 -0.0367,1.18752 0.32979,1.38365 0.68751,0.36795 0.46923,0.59938 -0.56533,0.59938 -0.54208,0 -0.97917,-0.0901 -0.97917,-0.20198 z m 3.72086,0 c 0,-0.11106 0.13216,-0.2527 0.29375,-0.3147 0.22883,-0.0878 0.29376,-0.47602 0.29376,-1.75637 0,-1.33046 -0.0559,-1.64364 -0.29376,-1.64364 -0.16157,0 -0.29375,-0.0881 -0.29375,-0.19584 0,-0.10773 0.26438,-0.19582 0.58751,-0.19582 0.39167,0 0.5875,0.0978 0.5875,0.29374 0,0.38878 0.13403,0.3708 0.72991,-0.098 0.65932,-0.51862 1.22843,-0.51251 1.22843,0.0134 0,0.30424 -0.0897,0.37641 -0.36089,0.29033 -0.21394,-0.0678 -0.57281,0.0521 -0.88125,0.29477 -0.46521,0.36592 -0.52037,0.54052 -0.52037,1.64706 0,0.91958 0.0756,1.26674 0.29376,1.35049 0.62158,0.23853 0.25257,0.51668 -0.68542,0.51668 -0.54209,0 -0.97918,-0.0901 -0.97918,-0.20198 z m 4.72159,-0.0713 c -0.64573,-0.35789 -0.98559,-1.04622 -0.99378,-2.01274 -0.0138,-1.62189 1.52979,-2.62247 2.98232,-1.93319 1.05231,0.49935 1.45176,1.91314 0.8893,3.1476 -0.43459,0.95382 -1.87592,1.35365 -2.87784,0.79833 z m 2.03835,-0.7099 c 0.44281,-0.4893 0.43195,-2.06051 -0.0176,-2.55734 -0.41957,-0.46362 -1.3953,-0.49065 -1.87994,-0.0521 -0.4928,0.44598 -0.50316,2.23053 -0.0154,2.65542 0.6799,0.59231 1.34993,0.57618 1.91302,-0.046 z m 2.2334,0.41075 c -0.49216,-0.49216 -0.57244,-0.7216 -0.57244,-1.636 0,-0.85302 0.0936,-1.16457 0.47289,-1.57381 0.57927,-0.62507 1.31076,-0.82835 2.13512,-0.59338 0.47707,0.13598 0.6378,0.3025 0.68522,0.70996 0.0717,0.61546 -0.26938,0.72119 -0.45363,0.14065 -0.091,-0.28672 -0.29631,-0.39168 -0.76618,-0.39168 -0.88939,0 -1.38801,0.598 -1.38801,1.66461 0,1.35632 0.9279,2.08475 1.96818,1.54506 0.64586,-0.33509 0.67559,-0.33553 0.67559,-0.009 0,0.34031 -0.8357,0.71686 -1.59096,0.71686 -0.39469,0 -0.785,-0.19165 -1.16578,-0.57244 z m 4.11142,0.0275 c -1.30373,-1.16488 -0.79782,-3.43498 0.85745,-3.84756 1.79619,-0.4477 3.04377,1.33825 2.30048,3.29323 -0.42758,1.12465 -2.17611,1.43158 -3.15793,0.55433 z m 2.47162,-0.64466 c 0.66438,-1.28475 0.0374,-2.72714 -1.18564,-2.72714 -0.46013,0 -0.75245,0.1319 -0.96495,0.43524 -0.35045,0.50034 -0.4024,1.75829 -0.0962,2.33037 0.46384,0.8667 1.79047,0.844 2.24681,-0.0384 z"
           id="path80" /><path
           style="fill:#b0b3c3;fill-opacity:1;stroke-width:0.740162"
           d="m 550.56785,-108.66555 c 0,-0.12428 0.13216,-0.27665 0.29375,-0.33865 0.24014,-0.0921 0.29375,-0.5746 0.29375,-2.64378 0,-2.06916 -0.0535,-2.55161 -0.29375,-2.64376 -0.6987,-0.26811 -0.18403,-0.46247 1.22396,-0.46219 2.03571,4.2e-4 2.86434,0.39433 2.94828,1.40161 0.0478,0.57361 -0.0474,0.81583 -0.47765,1.21474 l -0.53734,0.49825 0.52112,0.19814 c 0.94674,0.35995 0.9556,1.8838 0.0145,2.5004 -0.62782,0.41137 -3.98667,0.64326 -3.98667,0.27524 z m 3.72086,-0.80114 c 0.47622,-0.47623 0.50334,-1.11868 0.0675,-1.60022 -0.24358,-0.26914 -0.60854,-0.35813 -1.46877,-0.35813 h -1.14463 v 1.17501 1.17501 h 1.0771 c 0.81598,0 1.17204,-0.0949 1.46876,-0.39167 z m -0.10066,-2.85601 c 0.75046,-0.99176 0.10413,-1.84402 -1.39852,-1.84402 h -1.04675 v 1.19925 1.19927 l 1.08066,-0.0896 c 0.76178,-0.0633 1.16445,-0.20033 1.36461,-0.46487 z m 2.20581,3.62366 c -0.22314,-0.13003 -0.34271,-0.43885 -0.34271,-0.88529 0,-0.59732 0.0876,-0.72226 0.67913,-0.96945 0.37352,-0.15606 0.94633,-0.28376 1.27293,-0.28376 0.49746,0 0.59379,-0.0768 0.59379,-0.47356 0,-0.878 -0.19455,-1.09311 -0.98857,-1.09311 -0.41296,0 -0.80529,0.0881 -0.87186,0.19584 -0.1551,0.25095 -0.48959,0.25438 -0.48959,0.005 0,-0.24844 1.0482,-0.78836 1.53054,-0.78836 0.20624,0 0.60719,0.18264 0.89099,0.40587 0.47885,0.37667 0.51599,0.51614 0.51599,1.93741 0,1.18068 0.0673,1.55734 0.29375,1.64423 0.16157,0.0621 0.29376,0.20362 0.29376,0.3147 0,0.32243 -0.74635,0.23332 -0.93969,-0.11214 -0.16137,-0.28833 -0.22578,-0.28833 -0.78335,0 -0.69479,0.35929 -1.16448,0.38841 -1.65511,0.10266 z m 1.7679,-0.485 c 0.47611,-0.33349 0.62321,-1.4585 0.19045,-1.45657 -0.70703,0.003 -1.70304,0.44059 -1.81639,0.79774 -0.26825,0.84515 0.76323,1.26309 1.62594,0.65883 z m 2.39358,0.52164 c 0,-0.0962 0.13216,-0.22562 0.29376,-0.28761 0.22936,-0.088 0.29376,-0.47901 0.29376,-1.78347 0,-1.35454 -0.0555,-1.67073 -0.29376,-1.67073 -0.16157,0 -0.29376,-0.0881 -0.29376,-0.19584 0,-0.10773 0.26438,-0.19582 0.58752,-0.19582 0.46528,0 0.58749,0.085 0.58749,0.40907 0,0.39206 0.0255,0.3876 0.61363,-0.1072 0.62789,-0.52835 1.15071,-0.59086 1.29586,-0.15495 0.0514,0.15443 -0.10853,0.24479 -0.43331,0.24479 -0.28548,0 -0.72894,0.21414 -0.99549,0.48068 -0.40243,0.40243 -0.48069,0.67001 -0.48069,1.64366 0,0.85307 0.0782,1.19297 0.29376,1.27568 0.5956,0.22855 0.26799,0.51667 -0.58751,0.51667 -0.48468,0 -0.88126,-0.0788 -0.88126,-0.17487 z m 3.72086,0 c 0,-0.0962 0.13216,-0.22562 0.29376,-0.28761 0.46046,-0.1767 0.4188,-3.21818 -0.049,-3.57325 -0.3075,-0.23345 -0.27733,-0.2608 0.29376,-0.26639 0.50799,-0.005 0.63646,0.0729 0.63646,0.38544 0,0.50663 0.0754,0.4943 0.6811,-0.11134 0.54099,-0.54097 1.13717,-0.56925 1.23552,-0.0586 0.0462,0.24 -0.0559,0.29282 -0.42835,0.22163 -0.35698,-0.0682 -0.62395,0.0521 -0.98865,0.4456 -0.41593,0.4488 -0.49962,0.72891 -0.49962,1.67231 0,0.96123 0.0594,1.15209 0.39168,1.25754 0.71784,0.22783 0.40374,0.48958 -0.58751,0.48958 -0.53855,0 -0.97918,-0.0786 -0.97918,-0.17488 z m 5.0917,0.0366 c -1.67258,-0.61142 -1.75252,-3.39343 -0.1172,-4.07673 0.85645,-0.35784 1.71446,-0.19649 2.30656,0.43377 0.36158,0.38488 0.45434,0.70361 0.45434,1.561 0,0.96936 -0.0641,1.13467 -0.63955,1.64882 -0.61313,0.54784 -1.29017,0.69416 -2.00421,0.43314 z m 1.1339,-0.37885 c 1.10694,-0.29653 1.35614,-2.58087 0.35451,-3.24967 -0.28775,-0.19214 -1.32823,-0.18339 -1.63885,0.0138 -0.78099,0.49571 -0.62648,2.82651 0.20968,3.16325 0.54012,0.21752 0.53514,0.21718 1.07466,0.0728 z m 3.19602,0.24386 c -0.91426,-0.50673 -1.28831,-2.0146 -0.77776,-3.13516 0.31892,-0.69994 1.42601,-1.18468 2.20115,-0.96375 0.4905,0.13978 0.62039,0.28911 0.6572,0.7555 0.0421,0.53295 0.0303,0.54464 -0.14056,0.14064 -0.14921,-0.35262 -0.34319,-0.44063 -0.97107,-0.44063 -0.67079,0 -0.82796,0.0838 -1.08341,0.57778 -0.45744,0.88462 -0.38008,1.82314 0.20206,2.45129 0.50432,0.54415 0.80005,0.57446 1.94711,0.19952 0.34403,-0.1124 0.33544,-0.0784 -0.0706,0.28005 -0.52521,0.46355 -1.2777,0.51518 -1.96406,0.13476 z m 3.9643,-0.10399 c -0.82845,-0.50515 -1.17867,-1.54881 -0.86787,-2.58619 0.27778,-0.92715 0.9943,-1.43395 2.02732,-1.43395 0.62097,0 0.87955,0.12281 1.33729,0.6351 0.9373,1.04902 0.70451,2.89131 -0.44012,3.48322 -0.73098,0.37799 -1.32196,0.34979 -2.05662,-0.0981 z m 1.91645,-0.38879 c 0.38324,-0.31034 0.46232,-0.55644 0.46232,-1.43867 0,-1.32343 -0.29331,-1.71199 -1.29238,-1.71199 -0.60211,0 -0.82425,0.10599 -1.09787,0.52351 -0.52441,0.80036 -0.41978,1.99745 0.22291,2.55027 0.63861,0.54932 1.09611,0.56994 1.70502,0.0769 z"
           id="path79" /></g></g></g></svg>
