<?xml version="1.0" encoding="UTF-8" standalone="no"?>
<!-- Created with Inkscape (http://www.inkscape.org/) -->

<svg
   width="300"
   height="300"
   viewBox="0 0 79.374998 79.375"
   version="1.1"
   id="svg1"
   xml:space="preserve"
   inkscape:export-filename="jb.svg"
   inkscape:export-xdpi="96"
   inkscape:export-ydpi="96"
   xmlns:inkscape="http://www.inkscape.org/namespaces/inkscape"
   xmlns:sodipodi="http://sodipodi.sourceforge.net/DTD/sodipodi-0.dtd"
   xmlns="http://www.w3.org/2000/svg"
   xmlns:svg="http://www.w3.org/2000/svg"><sodipodi:namedview
     id="namedview1"
     pagecolor="#ffffff"
     bordercolor="#000000"
     borderopacity="0.25"
     inkscape:showpageshadow="2"
     inkscape:pageopacity="0.0"
     inkscape:pagecheckerboard="0"
     inkscape:deskcolor="#d1d1d1"
     inkscape:document-units="mm" /><defs
     id="defs1" /><g
     inkscape:label="Capa 1"
     inkscape:groupmode="layer"
     id="layer1"><g
       id="g70"
       transform="matrix(0.77199831,0,0,0.77199831,-316.80394,252.76792)"
       inkscape:export-filename="lumiq.svg"
       inkscape:export-xdpi="96"
       inkscape:export-ydpi="96"><path
         style="fill:#d0d0d0;fill-opacity:1"
         d="m 504.5077,-262.77506 c 0,-2.47775 -0.0543,-4.50499 -0.12055,-4.50499 -0.0663,0 -0.55888,0.29746 -1.09462,0.66103 -1.3742,0.93256 -2.85944,1.26834 -5.00254,1.13099 -4.05062,-0.2596 -6.66713,-2.63085 -7.57522,-6.86516 -0.44002,-2.05173 -0.16369,-7.47003 0.45879,-8.99628 0.83644,-2.05081 2.0021,-3.46061 3.56061,-4.30632 1.19919,-0.65072 1.82088,-0.79929 3.72861,-0.89103 2.03864,-0.098 2.45407,-0.0347 3.79209,0.57783 0.82645,0.37837 1.84924,1.05898 2.27288,1.51249 0.81971,0.8775 0.82942,0.87112 1.24215,-0.81522 l 0.22664,-0.92604 h 3.15818 3.15819 v 13.89062 13.89063 l -3.90261,0.0732 -3.9026,0.0732 z m -1.61004,-8.85896 c 1.13626,-0.58759 1.61004,-1.87046 1.61004,-4.35962 0,-3.48735 -0.86497,-4.78017 -3.19819,-4.78017 -2.421,0 -3.28525,1.47333 -3.1028,5.28947 0.15397,3.22028 0.85017,4.17606 3.07298,4.21876 0.48017,0.009 1.20825,-0.15657 1.61797,-0.36844 z m -2.97198,12.64834 c -0.098,-0.098 -0.59537,-0.16243 -1.10534,-0.14326 -0.75786,0.0285 -0.92723,-0.0603 -0.92723,-0.48625 0,-0.69709 -0.94862,-0.69131 -1.32291,0.008 -0.19955,0.37286 -0.55399,0.52917 -1.19994,0.52917 -0.80146,0 -0.91673,-0.0832 -0.91673,-0.66146 0,-0.38867 -0.15184,-0.66146 -0.36819,-0.66146 -0.20251,0 -0.4429,0.29766 -0.53421,0.66146 -0.13593,0.54159 -0.32733,0.66146 -1.05616,0.66146 -0.66762,0 -0.92473,-0.13228 -1.02852,-0.52917 -0.0809,-0.30953 -0.3609,-0.52916 -0.67449,-0.52916 -0.30373,0 -0.6089,0.22936 -0.70406,0.52916 -0.0939,0.29577 -0.40032,0.52917 -0.69479,0.52917 -0.48023,0 -0.43769,-0.16371 0.48085,-1.85031 1.41688,-2.60166 1.98556,-2.5266 2.36208,0.31176 0.20367,1.53539 0.42223,1.25998 0.74664,-0.94089 l 0.18997,-1.28881 1.20233,0.13552 c 0.66128,0.0745 1.29565,0.28652 1.40971,0.47107 0.21686,0.35089 0.0466,1.07594 -0.30973,1.31904 -0.11428,0.078 -0.13658,0.41405 -0.0496,0.74684 0.13911,0.53197 0.26765,0.41093 1.06371,-1.00165 1.17293,-2.08133 1.80626,-2.16836 2.06545,-0.28382 0.14364,1.04437 0.28485,1.32292 0.67067,1.32292 0.2688,0 0.56231,0.11906 0.65225,0.26458 0.2512,0.40646 0.92604,0.31372 0.92604,-0.12725 0,-0.21551 -0.28904,-0.46438 -0.64231,-0.55305 -0.76973,-0.19319 -1.04005,-0.76474 -0.67994,-1.43762 0.31952,-0.59703 1.13465,-0.8877 1.85142,-0.66021 0.61245,0.19439 0.72314,1.19063 0.13229,1.19063 -0.21828,0 -0.39688,-0.11906 -0.39688,-0.26458 0,-0.14553 -0.17859,-0.26459 -0.39687,-0.26459 -0.63917,0 -0.45698,0.47149 0.32749,0.84748 0.83354,0.3995 1.02531,0.95996 0.54005,1.57832 -0.38906,0.49578 -1.35042,0.83959 -1.6131,0.57691 z m -8.64715,-2.09228 c 0,-0.22687 -0.11906,-0.33891 -0.26458,-0.24897 -0.14552,0.0899 -0.26459,0.27556 -0.26459,0.41249 0,0.13693 0.11907,0.24897 0.26459,0.24897 0.14552,0 0.26458,-0.18562 0.26458,-0.41249 z m 3.63814,-0.44741 c -0.16669,-0.50064 -0.99231,-0.57181 -0.99231,-0.0855 0,0.24543 0.22622,0.41627 0.55122,0.41627 0.32331,0 0.50568,-0.13674 0.44109,-0.33073 z m -19.23701,2.24896 c 0.006,-0.10914 0.16005,-0.91281 0.34156,-1.78594 0.22122,-1.06413 0.45729,-1.5875 0.71606,-1.5875 0.21232,0 0.37143,0.11907 0.35356,0.26459 -0.0179,0.14552 -0.10736,0.76304 -0.19888,1.37226 -0.16465,1.09605 -0.15736,1.10856 0.69394,1.19063 0.79846,0.077 0.92329,-0.0265 1.73556,-1.43841 0.5922,-1.02941 1.04137,-1.52136 1.38906,-1.52136 0.28261,0 0.51384,0.17274 0.51384,0.38385 0,0.21112 0.14197,1.01479 0.31549,1.78594 l 0.31548,1.40209 0.2806,-1.71979 c 0.25821,-1.58261 0.3333,-1.7198 0.94128,-1.7198 0.58649,0 0.67598,0.13372 0.79679,1.19063 l 0.1361,1.19062 0.57663,-1.25677 c 0.39112,-0.85245 0.73747,-1.25677 1.07657,-1.25677 0.75554,0 0.78689,0.12958 0.46377,1.91629 -0.22376,1.23727 -0.41887,1.67653 -0.77518,1.74515 -0.40582,0.0781 -0.45245,-0.039 -0.31568,-0.79268 l 0.16049,-0.88438 -0.44667,0.85989 c -0.49813,0.95895 -1.409,1.18286 -1.409,0.34635 0,-0.28246 -0.11906,-0.58714 -0.26458,-0.67708 -0.15006,-0.0927 -0.26459,0.12955 -0.26459,0.51356 0,0.61353 -0.0993,0.67707 -1.05833,0.67707 -0.88195,0 -1.05833,-0.0882 -1.05833,-0.52917 0,-0.34962 -0.17639,-0.52916 -0.51986,-0.52916 -0.28592,0 -0.6473,0.23812 -0.80306,0.52916 -0.23837,0.4454 -0.55399,0.52917 -1.99369,0.52917 -0.94076,0 -1.70528,-0.0893 -1.69893,-0.19844 z m 10.58333,0 c 0.006,-0.10914 0.15938,-0.91281 0.34006,-1.78594 0.31163,-1.50587 0.37145,-1.5917 1.16348,-1.66924 0.57747,-0.0565 1.00895,0.0922 1.39913,0.48241 0.50792,0.50793 0.52627,0.62157 0.18401,1.14008 -0.22616,0.34262 -0.71632,0.60951 -1.21002,0.65883 -0.68037,0.068 -0.82987,0.19905 -0.82987,0.7276 0,0.46831 -0.14478,0.6447 -0.52917,0.6447 -0.29104,0 -0.52397,-0.0893 -0.51762,-0.19844 z m 1.95119,-1.81424 c 0.59956,-0.23007 0.51726,-0.89774 -0.11065,-0.89774 -0.35278,0 -0.52917,0.17639 -0.52917,0.52917 0,0.58264 0.0328,0.60152 0.63982,0.36857 z m -62.46243,-4.70131 c -1.64213,-0.53693 -2.54343,-1.29209 -3.41068,-2.85769 l -0.78025,-1.40853 -0.0803,-8.13594 -0.0803,-8.13594 h 3.83804 3.83805 l 0.0787,6.90247 0.0787,6.90247 0.74235,0.63816 c 1.07637,0.92528 2.55975,0.87158 3.68524,-0.1334 l 0.86407,-0.77155 0.13229,-6.70293 0.1323,-6.70292 h 3.83645 3.83646 l 0.0693,10.12031 0.0693,10.12031 h -3.2914 -3.29139 l -0.18009,-1.44134 -0.18008,-1.44133 -0.64904,0.77134 c -0.35697,0.42424 -1.4233,1.15251 -2.36961,1.61837 -1.39118,0.68488 -2.10984,0.8634 -3.75398,0.93254 -1.23105,0.0518 -2.46774,-0.0565 -3.13414,-0.2744 z m -14.64197,-14.0558 v -13.89063 h 3.96875 3.96875 v 13.89063 13.89062 h -3.96875 -3.96875 z m 33.60208,3.70416 v -10.18646 h 3.15717 c 3.48847,0 3.23121,-0.13897 3.58171,1.93486 l 0.1705,1.00881 0.84479,-0.83416 c 1.43504,-1.41697 3.24362,-2.18144 5.475,-2.31424 2.80277,-0.1668 4.10023,0.24471 5.57688,1.7688 l 1.21126,1.25016 0.9943,-0.8595 c 1.9018,-1.64398 3.17489,-2.08702 5.9971,-2.08702 2.36098,0 2.62371,0.055 3.8324,0.80257 0.99244,0.61379 1.48531,1.16925 2.09546,2.36158 l 0.79781,1.55902 0.0838,7.89102 0.0838,7.89102 h -3.98643 -3.98644 v -6.71119 c 0,-6.38891 -0.0263,-6.74467 -0.54837,-7.40834 -0.42885,-0.54519 -0.77865,-0.69714 -1.6049,-0.69714 -1.33166,0 -1.9681,0.33894 -2.4742,1.31763 -0.32393,0.62641 -0.39961,1.97789 -0.39961,7.1359 v 6.36314 h -3.96875 -3.96876 v -6.71119 c 0,-6.38891 -0.0263,-6.74467 -0.54837,-7.40834 -0.4474,-0.56878 -0.76778,-0.69714 -1.74014,-0.69714 -0.96445,0 -1.3393,0.14753 -1.96517,0.7734 l -0.7734,0.7734 v 6.63494 6.63493 h -3.96875 -3.96875 z m 36.31092,0.0661 0.0693,-10.12031 h 3.83646 3.83646 l 0.0693,10.12031 0.0693,10.12031 h -3.97504 -3.97504 z m -52.71509,-12.52011 c 0,-0.083 0.78279,-1.27359 1.73953,-2.64583 l 1.73953,-2.495 h 3.87552 c 4.51326,0 4.49386,-0.32852 0.18605,3.15074 l -2.64583,2.13694 -2.4474,0.002 c -1.34607,10e-4 -2.4474,-0.0659 -2.4474,-0.14884 z m 52.65209,-2.495 v -2.64583 h 3.96875 3.96875 v 2.64583 2.64584 h -3.96875 -3.96875 z"
         id="path78" /><path
         style="fill:#b0b3c3;fill-opacity:1"
         d="m 504.69104,-258.45366 c -0.10084,-0.10084 -0.18334,-2.19814 -0.18334,-4.66068 v -4.47734 l -0.81135,0.6827 c -1.86915,1.57279 -5.94509,1.89867 -8.53295,0.68223 -2.91937,-1.37226 -4.40609,-4.20449 -4.61636,-8.79421 -0.21715,-4.73999 0.63084,-7.52756 2.93642,-9.65277 2.87225,-2.64754 8.2781,-2.56228 10.8753,0.17153 0.42741,0.44989 0.8666,0.81798 0.97598,0.81798 0.10937,0 0.27921,-0.53578 0.37741,-1.19063 l 0.17855,-1.19062 h 3.27961 3.27961 l -0.0685,13.82448 -0.0685,13.82448 -3.71927,0.0731 c -2.04559,0.0402 -3.80176,-0.009 -3.9026,-0.11025 z m -1.4288,-13.32845 c 0.93661,-0.73674 1.35558,-2.15425 1.33242,-4.508 -0.0313,-3.17998 -0.99567,-4.4837 -3.31666,-4.4837 -1.01354,0 -1.42613,0.14856 -2.11023,0.7598 -0.82483,0.73699 -0.85366,0.83536 -0.96048,3.27775 -0.17718,4.05113 0.64088,5.48746 3.12541,5.48746 0.85416,0 1.46683,-0.16934 1.92954,-0.53331 z m -27.42311,11.84424 c 0.45103,-2.45797 0.53525,-2.71198 0.89916,-2.71198 0.21177,0 0.36614,0.11907 0.34306,0.26459 -0.0231,0.14552 -0.1259,0.83013 -0.22848,1.52135 l -0.18651,1.25677 h 0.91922 c 0.85404,0 0.97979,-0.11363 1.77328,-1.60238 1.09797,-2.06 1.61463,-2.03442 2.03693,0.10086 0.16704,0.84463 0.36558,1.59756 0.4412,1.67318 0.0756,0.0756 0.21826,-0.5091 0.317,-1.29936 0.21636,-1.73172 0.43177,-2.12922 1.08645,-2.00489 0.38487,0.0731 0.52741,0.39339 0.62976,1.4151 l 0.13229,1.32062 0.58065,-1.38907 c 0.45017,-1.07693 0.71103,-1.38906 1.1609,-1.38906 0.54658,0 0.57049,0.0832 0.41188,1.4327 -0.21262,1.80905 -0.39174,2.27147 -0.87985,2.27147 -0.29496,0 -0.35191,-0.20886 -0.23448,-0.8599 l 0.15511,-0.85989 -0.44667,0.85989 c -0.54745,1.05391 -1.409,1.17525 -1.409,0.19844 0,-0.3638 -0.11906,-0.66146 -0.26458,-0.66146 -0.14553,0 -0.26459,0.29766 -0.26459,0.66146 0,0.58285 -0.113,0.66146 -0.95081,0.66146 -0.7283,0 -0.9832,-0.12384 -1.08919,-0.52917 -0.0761,-0.29104 -0.35843,-0.52916 -0.62738,-0.52916 -0.26895,0 -0.61644,0.23812 -0.7722,0.52916 -0.23819,0.44507 -0.55399,0.52917 -1.98707,0.52917 h -1.70387 z m 4.68716,-1.12448 c -0.0838,-0.21828 -0.18635,-0.39687 -0.22797,-0.39687 -0.0416,0 -0.14421,0.17859 -0.22797,0.39687 -0.0918,0.23933 -0.001,0.39688 0.22797,0.39688 0.22931,0 0.31981,-0.15755 0.22797,-0.39688 z m 5.8924,1.14334 c 0.48592,-2.64299 0.51898,-2.73131 1.0515,-2.80899 0.96215,-0.14036 1.95626,0.40695 1.95626,1.07702 0,0.81461 -0.47288,1.25009 -1.35744,1.25009 -0.54665,0 -0.743,0.14419 -0.80697,0.59261 -0.0465,0.32594 -0.29163,0.63208 -0.54473,0.68031 -0.3869,0.0737 -0.43445,-0.0522 -0.29862,-0.79104 z m 1.79549,-1.17164 c 0.59956,-0.23007 0.51726,-0.89774 -0.11065,-0.89774 -0.35278,0 -0.52917,0.17639 -0.52917,0.52917 0,0.58264 0.0328,0.60152 0.63982,0.36857 z m 1.3726,0.75591 c 1.23751,-2.18494 1.43073,-2.4474 1.80183,-2.4474 0.45909,0 0.5905,0.35282 0.82223,2.20748 0.15975,1.27864 0.12473,1.49669 -0.24037,1.49669 -0.25097,0 -0.42736,-0.21841 -0.42736,-0.52917 0,-0.38414 -0.17639,-0.52916 -0.64363,-0.52916 -0.41125,0 -0.70426,0.19104 -0.81158,0.52916 -0.0933,0.29383 -0.40032,0.52917 -0.69044,0.52917 -0.49369,0 -0.48326,-0.0693 0.18932,-1.25677 z m 1.6877,-0.92604 c -0.003,-0.4814 -0.0531,-0.51937 -0.26053,-0.19844 -0.33151,0.51296 -0.33151,0.79375 0,0.79375 0.14552,0 0.26276,-0.26789 0.26053,-0.59531 z m 1.42919,1.4552 c 0.0793,-0.40018 0.22136,-1.1754 0.3156,-1.72271 0.20838,-1.21029 0.41299,-1.35542 1.59762,-1.13318 1.07077,0.20087 1.36535,0.72021 0.90085,1.58814 -0.21697,0.40542 -0.24462,0.76561 -0.0812,1.05766 0.20284,0.36247 0.40458,0.14881 1.11106,-1.17668 1.07215,-2.01156 1.62404,-2.04653 2.00694,-0.12718 0.20269,1.01599 0.36713,1.3061 0.70294,1.24009 0.24109,-0.0474 0.51601,0.0395 0.61092,0.19307 0.25463,0.412 0.9351,0.33936 0.9351,-0.0998 0,-0.20848 -0.22737,-0.45121 -0.50527,-0.53942 -0.2779,-0.0882 -0.64335,-0.32674 -0.81211,-0.53008 -0.72332,-0.87154 1.08575,-2.20307 1.98227,-1.45902 0.50887,0.42232 0.50681,1.05548 -0.003,1.05548 -0.21828,0 -0.39688,-0.11906 -0.39688,-0.26458 0,-0.14553 -0.17859,-0.26459 -0.39687,-0.26459 -0.61883,0 -0.46653,0.50878 0.25003,0.83526 0.79797,0.36358 1.02399,0.89578 0.66518,1.56624 -0.22813,0.42625 -0.54102,0.50503 -1.88515,0.47464 -1.33282,-0.0301 -1.63397,-0.12186 -1.74077,-0.53024 -0.17261,-0.66006 -1.03492,-0.62874 -1.3986,0.0508 -0.4202,0.78514 -1.94119,0.62727 -2.06066,-0.21389 -0.11376,-0.80105 -0.74349,-0.75721 -0.95014,0.0661 -0.23916,0.95288 -1.03716,0.8906 -0.84746,-0.0661 z m 5.02054,-1.25677 c -0.0838,-0.21828 -0.18635,-0.39687 -0.22797,-0.39687 -0.0416,0 -0.14421,0.17859 -0.22797,0.39687 -0.0918,0.23933 -10e-4,0.39688 0.22797,0.39688 0.22931,0 0.31981,-0.15755 0.22797,-0.39688 z m -2.74151,-0.52916 c 0,-0.22049 -0.23519,-0.39688 -0.52917,-0.39688 -0.29398,0 -0.52917,0.17639 -0.52917,0.39688 0,0.22048 0.23519,0.39687 0.52917,0.39687 0.29398,0 0.52917,-0.17639 0.52917,-0.39687 z m -68.79339,-4.06656 c -2.2298,-0.73583 -3.73266,-2.22472 -4.35255,-4.31211 -0.32519,-1.09505 -0.40823,-2.87183 -0.40823,-8.73498 v -7.36031 h 3.82373 3.82373 l 0.0789,6.72605 c 0.0786,6.70453 0.0809,6.72824 0.72031,7.40833 0.50195,0.53392 0.89606,0.68229 1.81239,0.68229 0.97891,0 1.31851,-0.14755 2.07055,-0.89959 l 0.89958,-0.89958 v -6.50875 -6.50875 h 3.96875 3.96875 v 10.05416 10.05417 h -3.2768 -3.27681 l -0.18117,-1.45008 -0.18118,-1.45007 -0.97379,0.95812 c -1.48073,1.45691 -3.41252,2.24043 -5.81688,2.35929 -1.11984,0.0554 -2.3345,0.002 -2.69925,-0.11819 z m -15.01575,-14.12355 0.0685,-13.82448 3.9026,-0.0732 3.90261,-0.0732 v 13.8977 13.8977 h -3.97111 -3.97111 z m 33.5383,3.77031 v -10.05416 h 3.16996 3.16996 l 0.15393,0.7276 c 0.0847,0.40018 0.21068,1.00512 0.28004,1.3443 0.12399,0.6064 0.14416,0.60038 1.20778,-0.36054 0.59493,-0.53748 1.63012,-1.21983 2.30043,-1.51634 1.5349,-0.67896 4.40965,-0.90201 5.97538,-0.46364 1.28325,0.35929 3.19177,1.8237 3.45414,2.65038 0.14919,0.47005 0.24364,0.43478 1.08268,-0.40425 2.07287,-2.07288 5.69738,-3.02129 8.57399,-2.24353 1.49035,0.40295 3.50319,2.34073 3.98657,3.83789 0.23589,0.73063 0.37358,3.45469 0.44467,8.7974 l 0.10298,7.73906 h -3.83432 -3.83433 l -0.0862,-6.72601 c -0.0859,-6.69977 -0.0887,-6.72867 -0.72763,-7.40833 -0.94744,-1.00783 -2.68797,-0.9655 -3.74455,0.0911 l -0.77339,0.7734 v 6.63494 6.63493 h -3.96875 -3.96876 v -6.71119 c 0,-6.38891 -0.0263,-6.74467 -0.54837,-7.40834 -0.44025,-0.55969 -0.77228,-0.69714 -1.68411,-0.69714 -1.42502,0 -2.41483,0.73331 -2.78401,2.06256 -0.14972,0.53908 -0.27288,3.62929 -0.2737,6.86713 l -0.001,5.88698 h -3.83646 -3.83646 z m 36.24792,0 v -10.05416 h 3.96875 3.96875 v 10.05416 10.05417 h -3.96875 -3.96875 z m -52.60799,-12.64409 c 0.0485,-0.11478 0.85232,-1.3054 1.78624,-2.64584 l 1.69805,-2.43715 h 3.65977 c 2.01287,0 3.65976,0.0947 3.65976,0.21035 0,0.1157 -1.35802,1.30632 -3.01783,2.64584 l -3.01782,2.43548 h -2.42818 c -1.3355,0 -2.3885,-0.0939 -2.33999,-0.20868 z m 52.66455,-2.37101 0.0757,-2.57969 3.90261,-0.0732 3.9026,-0.0732 v 2.65291 2.65291 h -3.97833 -3.97833 z"
         id="path77" /><path
         style="fill:#a3a3a3;fill-opacity:1"
         d="m 504.68409,-258.46061 c -0.097,-0.097 -0.17639,-2.18135 -0.17639,-4.63187 v -4.45548 l -1.07768,0.78067 c -2.94901,2.13625 -8.12916,1.52909 -10.56514,-1.23832 -1.80635,-2.05213 -2.22487,-3.55807 -2.22487,-8.0057 0,-3.38963 0.0719,-4.02135 0.61754,-5.42395 0.83855,-2.15566 2.88331,-4.1737 4.80814,-4.74531 2.98249,-0.88571 6.12428,-0.30432 8.07567,1.49441 0.644,0.59362 1.21223,1.03213 1.26273,0.97448 0.0505,-0.0577 0.20117,-0.58108 0.33481,-1.16317 l 0.24298,-1.05833 3.09937,-0.0745 3.09936,-0.0745 v 13.89903 13.89902 h -3.66007 c -2.01303,0 -3.73944,-0.0794 -3.83645,-0.17639 z m -1.55667,-13.20113 c 1.09687,-0.76828 1.49391,-1.92427 1.49391,-4.34957 0,-3.353 -0.97595,-4.85069 -3.1609,-4.85069 -2.65353,0 -3.39203,1.19904 -3.26,5.29296 0.0889,2.75652 0.096,2.78288 0.95363,3.54869 0.69809,0.62334 1.10607,0.77155 2.12394,0.77155 0.71344,0 1.51557,-0.1791 1.84942,-0.41294 z m -27.09969,10.86398 c 0.1805,-1.20774 0.37124,-1.71979 0.64065,-1.71979 0.31065,0 0.34903,0.27682 0.2018,1.4552 l -0.18181,1.45521 h 0.94795 c 0.88614,0 0.9945,-0.0949 1.66166,-1.45521 0.53951,-1.10004 0.85435,-1.4552 1.29,-1.4552 0.48623,0 0.60403,0.19642 0.7537,1.25677 0.0976,0.69122 0.23818,1.46513 0.31246,1.71979 0.19303,0.66182 -0.61615,0.59707 -0.82665,-0.0661 -0.0924,-0.29104 -0.39387,-0.52916 -0.66998,-0.52916 -0.27612,0 -0.62947,0.23812 -0.78523,0.52916 -0.23698,0.44281 -0.55399,0.52917 -1.94238,0.52917 h -1.65918 z m 4.66747,-0.11668 c 0,-0.44355 -0.46925,-0.55338 -0.62543,-0.14639 -0.0922,0.24015 8.2e-4,0.39536 0.23685,0.39536 0.21372,0 0.38858,-0.11204 0.38858,-0.24897 z m 1.43066,0.51033 c 0.24438,-1.84225 0.38697,-2.11344 1.11118,-2.11344 0.57566,0 0.63529,0.11413 0.65666,1.25677 l 0.0235,1.25677 0.57181,-1.25147 c 0.44492,-0.97375 0.71058,-1.25264 1.19717,-1.25677 0.595,-0.005 0.61674,0.0557 0.44795,1.25147 -0.25472,1.80443 -0.39887,2.18281 -0.8316,2.18281 -0.36316,0 -0.35242,-0.52296 0.0367,-1.78594 0.24083,-0.78174 -0.18694,-0.23934 -0.57383,0.72761 -0.53344,1.33319 -1.42434,1.49869 -1.42434,0.26458 0,-0.43656 -0.11906,-0.79375 -0.26458,-0.79375 -0.14553,0 -0.26459,0.35719 -0.26459,0.79375 0,0.55707 -0.1285,0.79375 -0.43096,0.79375 -0.3643,0 -0.40375,-0.20512 -0.25504,-1.32614 z m 4.4871,-0.40629 0.2589,-1.73242 1.21115,0.0788 c 1.03505,0.0673 1.22371,0.16745 1.2976,0.68865 0.11698,0.82521 -0.39487,1.3745 -1.28079,1.3745 -0.56086,0 -0.77161,0.15512 -0.89869,0.66146 -0.0913,0.3638 -0.31926,0.66146 -0.50655,0.66146 -0.26934,0 -0.28641,-0.36217 -0.0816,-1.73243 z m 1.96995,-0.71801 c 0.0611,-0.3175 -0.0813,-0.45998 -0.45998,-0.45998 -0.37865,0 -0.54857,0.16992 -0.54857,0.54857 0,0.67803 0.87573,0.60111 1.00855,-0.0886 z m 0.57895,2.3106 c 0,-0.0769 0.3589,-0.85081 0.79756,-1.71979 0.55726,-1.10392 0.95048,-1.57995 1.30509,-1.57995 0.55641,0 0.69001,0.30536 0.95503,2.18281 0.14869,1.05334 0.1083,1.25677 -0.24951,1.25677 -0.25053,0 -0.42692,-0.21864 -0.42692,-0.52917 0,-0.38414 -0.17639,-0.52916 -0.64363,-0.52916 -0.41125,0 -0.70426,0.19104 -0.81158,0.52916 -0.14453,0.4554 -0.92604,0.78396 -0.92604,0.38933 z m 2.11262,-2.04297 c -0.003,-0.4814 -0.0531,-0.51937 -0.26053,-0.19844 -0.33151,0.51296 -0.33151,0.79375 0,0.79375 0.14552,0 0.26276,-0.26789 0.26053,-0.59531 z m 1.41792,1.5875 c 0.0816,-0.32743 0.22877,-1.10133 0.32709,-1.7198 l 0.17875,-1.12447 h 1.16512 c 1.29024,0 1.72625,0.49612 1.19026,1.35437 -0.16849,0.26979 -0.30634,0.72324 -0.30634,1.00767 0,1.05176 0.46317,0.74748 1.19596,-0.7857 0.58322,-1.22024 0.88507,-1.57634 1.33619,-1.57634 0.49394,0 0.60981,0.19155 0.76017,1.25677 0.0976,0.69122 0.23818,1.46513 0.31246,1.71979 0.19303,0.66182 -0.61616,0.59707 -0.82666,-0.0661 -0.0924,-0.29104 -0.39386,-0.52916 -0.66997,-0.52916 -0.27612,0 -0.62947,0.23812 -0.78523,0.52916 -0.43264,0.80839 -1.7469,0.71971 -1.96074,-0.13229 -0.0913,-0.3638 -0.34007,-0.66146 -0.55281,-0.66146 -0.21273,0 -0.4615,0.29766 -0.5528,0.66146 -0.0913,0.3638 -0.34461,0.66146 -0.56289,0.66146 -0.27914,0 -0.35288,-0.17661 -0.24856,-0.59531 z m 5.20071,-1.24116 c 0,-0.44355 -0.46925,-0.55338 -0.62543,-0.14639 -0.0922,0.24015 8.3e-4,0.39536 0.23686,0.39536 0.21372,0 0.38857,-0.11204 0.38857,-0.24897 z m -3.32893,-0.17621 c 0.58559,-0.22471 0.52386,-0.89774 -0.0823,-0.89774 -0.50258,0 -0.92359,0.60403 -0.62744,0.90018 0.1947,0.1947 0.19605,0.19469 0.70978,-0.002 z m 4.70477,1.69518 c -0.43212,-0.43212 -0.39905,-0.74083 0.0794,-0.74083 0.21828,0 0.39688,0.11906 0.39688,0.26458 0,0.14552 0.23812,0.26458 0.52916,0.26458 0.74422,0 0.65915,-0.64959 -0.13229,-1.01019 -0.92171,-0.41996 -0.91141,-1.55371 0.0173,-1.90681 0.78485,-0.2984 1.70246,0.0667 1.70246,0.67735 0,0.44172 -0.41659,0.51918 -0.66146,0.12299 -0.24437,-0.39542 -0.92604,-0.31915 -0.92604,0.1036 0,0.20251 0.28453,0.43961 0.63228,0.52689 0.8182,0.20535 1.01528,0.75352 0.52339,1.4558 -0.43459,0.62046 -1.64689,0.75624 -2.16108,0.24204 z m -73.55522,-6.53448 c -1.69465,-0.58532 -2.84033,-1.60667 -3.592,-3.20219 -0.52533,-1.11511 -0.56623,-1.68987 -0.64474,-9.06198 l -0.0838,-7.87135 h 3.85415 3.85414 v 6.59428 6.59428 l 0.68498,0.81405 c 0.57848,0.68748 0.87056,0.81406 1.87854,0.81406 1.00461,0 1.33598,-0.14242 2.09315,-0.89959 l 0.89958,-0.89958 v -6.50875 -6.50875 h 3.83646 3.83646 v 10.05416 10.05417 h -3.14451 -3.14452 l -0.18264,-1.46186 -0.18265,-1.46186 -1.32863,1.19455 c -2.29315,2.06173 -5.72723,2.76031 -8.63393,1.75636 z m -14.33937,-13.92508 v -13.89789 l 3.77031,0.0734 3.77032,0.0734 0.0685,13.82448 0.0685,13.82448 h -3.83882 -3.83882 z m 33.3375,3.84372 v -10.05416 h 3.16996 3.16996 l 0.15393,0.7276 c 0.0847,0.40018 0.21068,1.00512 0.28004,1.3443 0.12415,0.60719 0.14258,0.6018 1.19527,-0.34924 1.43521,-1.29662 3.18274,-2.02067 5.26001,-2.17936 2.79072,-0.2132 5.01289,0.676 6.24003,2.49696 l 0.56408,0.83704 1.0013,-1.02543 c 1.88137,-1.9267 5.22371,-2.79917 8.08955,-2.11167 1.08078,0.25928 1.68533,0.61863 2.61642,1.55526 1.85997,1.87105 1.93271,2.26245 2.058,11.07381 l 0.11004,7.73906 h -3.84091 -3.84091 l -0.0827,-6.68073 c -0.0898,-7.25603 -0.16017,-7.61602 -1.58645,-8.11323 -0.99269,-0.34605 -2.4439,0.0958 -3.11438,0.94813 -0.51226,0.65123 -0.5412,1.03989 -0.5412,7.26693 v 6.5789 h -3.96875 -3.96876 v -6.73212 c 0,-6.63004 -0.009,-6.74278 -0.60441,-7.43479 -0.72088,-0.83807 -2.19723,-0.95525 -3.2602,-0.25876 -1.27715,0.83682 -1.42705,1.71203 -1.42705,8.33176 v 6.09391 h -3.83646 -3.83646 z m 36.5125,0 v -10.05416 h 3.83646 3.83646 v 10.05416 10.05417 h -3.83646 -3.83646 z m -52.7533,-12.76614 c 0.10702,-0.1819 0.91181,-1.37253 1.78841,-2.64583 l 1.59382,-2.31511 h 3.67321 c 2.02489,0 3.63363,0.10524 3.58501,0.23453 -0.0485,0.12898 -1.41873,1.31961 -3.04493,2.64583 l -2.95675,2.41131 h -2.41668 c -1.86074,0 -2.37192,-0.0761 -2.22209,-0.33073 z m 52.7533,-2.31511 v -2.66036 l 3.77032,0.0734 3.77031,0.0734 v 2.51354 2.51355 l -3.77031,0.0734 -3.77032,0.0734 z"
         id="path76" /><path
         style="fill:#b0b3c3;fill-opacity:1"
         d="m 504.5077,-263.08773 c 0,-4.30146 -0.0242,-4.51763 -0.46302,-4.13187 -1.2987,1.14172 -2.81229,1.62487 -5.09323,1.62581 -4.38744,0.002 -7.03264,-2.11728 -8.05436,-6.45235 -0.74947,-3.17995 -0.37779,-8.07951 0.78325,-10.32471 2.32382,-4.49378 8.72336,-5.64113 12.5042,-2.24183 l 1.32463,1.19095 0.22899,-1.25572 0.22898,-1.25573 3.10674,-0.0745 3.10673,-0.0745 v 13.76674 13.76673 h -3.83645 -3.83646 z m -1.06293,-8.90953 c 1.24498,-1.24498 1.66175,-3.77523 1.03309,-6.27189 -0.54424,-2.16136 -2.27043,-3.12764 -4.36541,-2.44365 -1.61641,0.52775 -1.99558,1.53635 -1.90019,5.05449 0.0777,2.86393 0.0785,2.86723 0.9418,3.63802 0.71324,0.63682 1.09781,0.77149 2.20316,0.77149 1.1171,0 1.46318,-0.12409 2.08755,-0.74846 z m -27.39073,11.28433 c 0.39269,-2.17133 1.06057,-2.48899 0.79695,-0.37904 l -0.18552,1.48483 h 0.95941 c 0.90001,0 1.00358,-0.0901 1.6731,-1.45521 0.53721,-1.09535 0.85521,-1.4552 1.28596,-1.4552 0.4871,0 0.59843,0.19732 0.74817,1.32613 0.0967,0.72938 0.24389,1.50329 0.32698,1.7198 0.0934,0.24343 -0.004,0.39365 -0.2563,0.39365 -0.22404,0 -0.48293,-0.23813 -0.5753,-0.52917 -0.0924,-0.29104 -0.39387,-0.52916 -0.66998,-0.52916 -0.27612,0 -0.62947,0.23812 -0.78523,0.52916 -0.23715,0.44313 -0.55399,0.52917 -1.94856,0.52917 h -1.66536 z m 4.64116,-0.34942 c 0,-0.21828 -0.10633,-0.39687 -0.23628,-0.39687 -0.12995,0 -0.30481,0.17859 -0.38857,0.39687 -0.0928,0.24176 -4.2e-4,0.39688 0.23627,0.39688 0.21372,0 0.38858,-0.17859 0.38858,-0.39688 z m 1.43517,0.76136 c 0.28515,-2.01677 0.39963,-2.25635 1.03495,-2.16584 0.46254,0.0659 0.59801,0.30443 0.70488,1.24118 l 0.13229,1.15961 0.59187,-1.22576 c 0.41333,-0.85599 0.75254,-1.22575 1.12448,-1.22575 0.61131,0 0.64164,0.25928 0.2461,2.10364 -0.36409,1.69769 -1.06757,1.89361 -0.75926,0.21146 0.27694,-1.51103 0.1387,-1.53827 -0.41737,-0.0822 -0.31934,0.83619 -0.61228,1.2067 -0.95406,1.2067 -0.38729,0 -0.49322,-0.19889 -0.49322,-0.92604 0,-1.15575 -0.46607,-1.22545 -0.57855,-0.0865 -0.0456,0.46173 -0.24753,0.89364 -0.44874,0.95979 -0.29375,0.0966 -0.32988,-0.13403 -0.18337,-1.17025 z m 4.51039,-0.43063 0.29906,-1.65364 h 1.17717 c 1.04716,0 1.18724,0.0714 1.26844,0.64663 0.10409,0.73745 -0.54033,1.33774 -1.43608,1.33774 -0.40036,0 -0.63406,0.2066 -0.74822,0.66146 -0.0913,0.3638 -0.32203,0.66146 -0.51272,0.66146 -0.28081,0 -0.28987,-0.31432 -0.0476,-1.65365 z m 1.94249,-0.79375 c 0.13,-0.68211 -0.91031,-0.60397 -1.08965,0.0818 -0.11521,0.44054 -0.033,0.52919 0.42946,0.46302 0.31456,-0.045 0.61165,-0.2902 0.66019,-0.54486 z m 0.57861,2.30756 c 0,-0.0769 0.3589,-0.85081 0.79756,-1.71979 1.04478,-2.0697 1.68341,-2.14423 2.09094,-0.24401 0.37962,1.77014 0.36213,2.10364 -0.11037,2.10364 -0.22049,0 -0.39688,-0.23519 -0.39688,-0.52917 0,-0.38414 -0.17639,-0.52916 -0.64363,-0.52916 -0.41125,0 -0.70426,0.19104 -0.81158,0.52916 -0.14453,0.4554 -0.92604,0.78396 -0.92604,0.38933 z m 2.11262,-2.04297 c -0.003,-0.4814 -0.0531,-0.51937 -0.26053,-0.19844 -0.33151,0.51296 -0.33151,0.79375 0,0.79375 0.14552,0 0.26276,-0.26789 0.26053,-0.59531 z m 1.42636,1.71979 c 0.0743,-0.25466 0.21577,-1.0345 0.31443,-1.73298 l 0.17938,-1.26996 1.22475,0.0793 c 1.04049,0.0674 1.2375,0.16908 1.30946,0.67583 0.047,0.33131 -0.079,0.6593 -0.28342,0.73776 -0.37412,0.14356 -0.33034,1.70846 0.0478,1.70846 0.10225,0 0.52735,-0.71438 0.94466,-1.5875 0.58558,-1.22517 0.89085,-1.5875 1.33748,-1.5875 0.49487,0 0.60422,0.19215 0.75465,1.32613 0.0967,0.72938 0.24389,1.50329 0.32697,1.7198 0.0934,0.24343 -0.004,0.39365 -0.25629,0.39365 -0.22405,0 -0.48293,-0.23813 -0.57531,-0.52917 -0.0924,-0.29104 -0.39386,-0.52916 -0.66997,-0.52916 -0.27612,0 -0.62947,0.23812 -0.78523,0.52916 -0.41615,0.77759 -1.78678,0.72986 -1.89983,-0.0661 -0.0555,-0.39074 -0.26639,-0.59532 -0.61372,-0.59532 -0.34732,0 -0.55822,0.20458 -0.61371,0.59532 -0.0465,0.32742 -0.26288,0.59531 -0.48085,0.59531 -0.25249,0 -0.3473,-0.16802 -0.26125,-0.46302 z m 5.19227,-1.52136 c 0,-0.21828 -0.10632,-0.39687 -0.23627,-0.39687 -0.12995,0 -0.30481,0.17859 -0.38857,0.39687 -0.0928,0.24176 -4.2e-4,0.39688 0.23627,0.39688 0.21372,0 0.38857,-0.17859 0.38857,-0.39688 z m -3.32893,-0.0283 c 0.59956,-0.23007 0.51726,-0.89774 -0.11065,-0.89774 -0.29104,0 -0.52917,0.0498 -0.52917,0.11065 0,0.0609 -0.0723,0.29899 -0.1606,0.52917 -0.16875,0.43975 0.10049,0.52651 0.80042,0.25792 z m 4.70477,1.69518 c -0.43212,-0.43212 -0.39905,-0.74083 0.0794,-0.74083 0.21828,0 0.39688,0.12734 0.39688,0.28298 0,0.15564 0.26789,0.24494 0.59531,0.19844 0.78035,-0.11083 0.71002,-0.52794 -0.16169,-0.95888 -0.90333,-0.44657 -0.96418,-1.55724 -0.10289,-1.8779 0.74369,-0.27689 1.62621,0.0272 1.73919,0.59928 0.0933,0.47252 -0.35148,0.5945 -0.61472,0.16858 -0.24437,-0.39542 -0.92604,-0.31915 -0.92604,0.1036 0,0.20251 0.29766,0.4429 0.66146,0.53421 1.26627,0.31781 0.7095,2.00802 -0.66146,2.00802 -0.37835,0 -0.83079,-0.14288 -1.00541,-0.3175 z m -73.11797,-6.38331 c -1.54034,-0.43542 -2.38961,-0.98625 -3.22415,-2.09114 -1.31072,-1.73533 -1.4983,-3.10843 -1.4983,-10.96753 v -7.22802 h 3.83646 3.83645 v 6.49543 c 0,8.05199 0.0912,8.32945 2.73362,8.31535 1.16705,-0.006 2.02392,-0.51418 2.52708,-1.49808 0.19349,-0.37833 0.29555,-2.77691 0.29555,-6.94531 v -6.36739 h 3.83646 3.83646 v 10.06256 10.06257 l -3.10679,-0.0745 -3.10679,-0.0745 -0.22536,-1.41848 -0.22537,-1.41848 -0.96732,0.94163 c -2.054,1.99945 -5.8307,2.97409 -8.548,2.20598 z m -14.77662,-14.06898 v -13.89063 h 3.70417 3.70416 v 13.89063 13.89062 h -3.70416 -3.70417 z m 33.3375,3.83645 v -10.05416 h 3.16301 3.16301 l 0.1649,0.99219 c 0.29289,1.76233 0.33406,1.80178 1.12367,1.07676 3.60371,-3.3089 9.33926,-3.43378 11.64304,-0.25351 l 0.77339,1.06764 0.89525,-0.92366 c 0.49238,-0.50801 1.55158,-1.246 2.35376,-1.63998 1.24075,-0.60937 1.79429,-0.71584 3.70747,-0.71314 3.29979,0.005 4.87618,0.95649 6.1349,3.70429 0.57758,1.26085 0.60867,1.66423 0.6982,9.05868 l 0.0937,7.73906 h -3.86028 -3.86027 v -6.3585 c 0,-7.11607 -0.13687,-7.8573 -1.55974,-8.44667 -1.06715,-0.44203 -2.49595,0.0471 -3.30663,1.13188 -0.52546,0.70315 -0.56238,1.11859 -0.64077,7.20972 l -0.0832,6.46357 h -3.66707 -3.66708 l -0.0862,-6.72601 c -0.0854,-6.66081 -0.0923,-6.73249 -0.71474,-7.39461 -1.27556,-1.35685 -3.04342,-1.10377 -4.19023,0.59985 -0.58849,0.87422 -0.60519,1.07319 -0.60519,7.2099 v 6.31087 h -3.83646 -3.83646 z m 36.5125,0 v -10.05416 h 3.70417 3.70417 v 10.05416 10.05417 h -3.70417 -3.70417 z m -52.65208,-12.71059 c 0,-0.15135 0.74414,-1.33975 1.65364,-2.64089 l 1.65365,-2.3657 3.63802,-0.005 c 2.00091,-0.003 3.63382,0.0843 3.62867,0.19349 -0.005,0.10914 -1.38606,1.29976 -3.06872,2.64583 l -3.05938,2.4474 h -2.22294 c -1.36265,0 -2.22294,-0.1065 -2.22294,-0.27518 z m 52.65208,-2.37066 v -2.64583 h 3.70417 3.70417 v 2.64583 2.64584 h -3.70417 -3.70417 z"
         id="path75" /><path
         style="fill:#b0b3c3;fill-opacity:1"
         d="m 504.77228,-263.04672 c 0,-2.47386 -0.0516,-4.49792 -0.11471,-4.49792 -0.0631,0 -0.68817,0.35542 -1.38906,0.78982 -3.54297,2.19586 -8.68415,1.30155 -10.86324,-1.88966 -1.39092,-2.03697 -1.78808,-3.67318 -1.78814,-7.36683 -5e-5,-2.76674 0.0997,-3.59583 0.61001,-5.07273 1.25792,-3.64026 3.73233,-5.35494 7.72431,-5.35269 2.61194,0.001 4.22836,0.61909 5.54505,2.11873 0.85017,0.96829 1.0687,1.08411 1.07101,0.56763 8.1e-4,-0.1819 0.12547,-0.77721 0.27702,-1.32291 l 0.27554,-0.99219 h 3.03027 3.03027 v 13.75833 13.75834 h -3.70416 -3.70417 z m -1.28482,-8.91406 c 0.94923,-0.8904 1.38388,-2.60151 1.22497,-4.82243 -0.16855,-2.3557 -0.88685,-3.59205 -2.33983,-4.02738 -1.47292,-0.44129 -3.00936,0.0472 -3.6974,1.17568 -0.70909,1.16293 -0.75793,6.06446 -0.0704,7.07046 1.1408,1.66938 3.44314,1.95402 4.88271,0.60367 z m -27.44702,11.55667 c 0.20835,-1.57059 0.39242,-2.11344 0.71662,-2.11344 0.13315,0 0.16401,0.63455 0.0698,1.43589 l -0.16876,1.4359 0.89405,0.0855 c 0.83737,0.08 0.94606,-0.007 1.71422,-1.36975 1.15109,-2.04236 1.72615,-1.98847 2.11741,0.19843 0.23271,1.30071 0.22562,1.65365 -0.0332,1.65365 -0.18099,0 -0.39135,-0.23813 -0.46746,-0.52917 -0.0923,-0.353 -0.3609,-0.52916 -0.80678,-0.52916 -0.43603,0 -0.72679,0.18396 -0.83635,0.52916 -0.14362,0.4525 -0.40033,0.52917 -1.77171,0.52917 h -1.60376 z m 4.65476,-0.79053 c 0,-0.29104 -0.11907,-0.52916 -0.26459,-0.52916 -0.14552,0 -0.26458,0.0498 -0.26458,0.11065 0,0.0609 -0.0723,0.29898 -0.1606,0.52916 -0.10539,0.27464 -0.0144,0.41852 0.26458,0.41852 0.2488,0 0.42519,-0.21953 0.42519,-0.52917 z m 1.43481,1.12448 c 0.39462,-2.29255 0.45551,-2.44739 0.96242,-2.44739 0.49304,0 0.65999,0.36648 0.84372,1.85208 0.0716,0.57918 0.15304,0.50512 0.65451,-0.59531 0.41293,-0.90616 0.72447,-1.25677 1.11674,-1.25677 0.63556,0 0.63442,-0.009 0.24294,1.94024 -0.17408,0.86681 -0.44127,1.49934 -0.63334,1.49934 -0.2526,0 -0.27335,-0.262 -0.0866,-1.09325 0.33774,-1.50318 0.12444,-1.55368 -0.46889,-0.11102 -0.65987,1.60448 -1.35499,1.64195 -1.48022,0.0798 -0.09,-1.12244 -0.28004,-0.99343 -0.58468,0.39687 -0.25048,1.14311 -0.76738,0.90174 -0.56662,-0.26458 z m 4.49376,-0.33395 c 0.27304,-2.05827 0.34421,-2.15114 1.57942,-2.06087 0.87986,0.0643 1.10649,0.18853 1.17119,0.64205 0.10268,0.71969 -0.59718,1.42204 -1.417,1.42204 -0.45936,0 -0.68391,0.18485 -0.80353,0.66146 -0.30978,1.23424 -0.71463,0.72658 -0.53008,-0.66468 z m 1.95948,-1.12126 c 0.0611,-0.32046 -0.0807,-0.46302 -0.46032,-0.46302 -0.30171,0 -0.54857,0.0498 -0.54857,0.11065 0,0.0609 -0.0763,0.30946 -0.16953,0.55245 -0.13368,0.34836 -0.0363,0.42289 0.46032,0.35237 0.34642,-0.0492 0.66956,-0.29779 0.7181,-0.55245 z m 0.57861,2.28253 c 0,-0.0907 0.38467,-0.86459 0.85483,-1.71979 0.94391,-1.71698 1.6552,-2.0278 1.89323,-0.82732 0.4878,2.46024 0.49333,2.71198 0.0595,2.71198 -0.24993,0 -0.42632,-0.21894 -0.42632,-0.52917 0,-0.38604 -0.17639,-0.52916 -0.65215,-0.52916 -0.38136,0 -0.76974,0.21972 -0.93535,0.52916 -0.26376,0.49286 -0.79375,0.73609 -0.79375,0.3643 z m 2.11667,-1.96741 c 0,-0.29963 -0.11906,-0.4712 -0.26458,-0.38126 -0.14552,0.0899 -0.26459,0.33509 -0.26459,0.54478 0,0.20969 0.11907,0.38126 0.26459,0.38126 0.14552,0 0.26458,-0.24515 0.26458,-0.54478 z m 1.68443,0.39985 0.2589,-1.73242 1.21115,0.0788 c 1.02655,0.0668 1.22405,0.16969 1.29585,0.67527 0.0466,0.32807 -0.0779,0.65891 -0.27672,0.73519 -0.24085,0.0924 -0.32565,0.44509 -0.25419,1.05715 0.11709,1.00293 -0.38717,1.3118 -0.52758,0.32315 -0.0555,-0.39074 -0.26639,-0.59532 -0.61372,-0.59532 -0.34732,0 -0.55822,0.20458 -0.61371,0.59532 -0.0465,0.32742 -0.23177,0.59531 -0.41172,0.59531 -0.25289,0 -0.26839,-0.39334 -0.0683,-1.73243 z m 1.97443,-0.73645 c 0.0715,-0.37511 -0.0467,-0.46472 -0.52377,-0.39688 -0.34229,0.0487 -0.65721,0.30298 -0.70853,0.57214 -0.0715,0.37511 0.0467,0.46472 0.52376,0.39688 0.34229,-0.0487 0.65721,-0.30298 0.70854,-0.57214 z m 1.43437,0.81523 c 0.62062,-1.13099 1.0665,-1.65364 1.41076,-1.65364 0.40949,0 0.55852,0.30834 0.79921,1.65364 0.23271,1.30071 0.22562,1.65365 -0.0332,1.65365 -0.181,0 -0.39136,-0.23813 -0.46747,-0.52917 -0.0923,-0.353 -0.36089,-0.52916 -0.80678,-0.52916 -0.43602,0 -0.72678,0.18396 -0.83635,0.52916 -0.0924,0.29104 -0.34921,0.52917 -0.57075,0.52917 -0.30686,0 -0.18667,-0.39389 0.50461,-1.65365 z m 1.52135,-0.46302 c 0,-0.29104 -0.11906,-0.52916 -0.26458,-0.52916 -0.14552,0 -0.26458,0.0498 -0.26458,0.11065 0,0.0609 -0.0723,0.29898 -0.1606,0.52916 -0.10539,0.27464 -0.0144,0.41852 0.26458,0.41852 0.24879,0 0.42518,-0.21953 0.42518,-0.52917 z m 1.37584,1.79917 c -0.43212,-0.43212 -0.39905,-0.74083 0.0794,-0.74083 0.21828,0 0.39688,0.12734 0.39688,0.28298 0,0.15564 0.26789,0.24494 0.59531,0.19844 0.78035,-0.11083 0.71002,-0.52794 -0.16169,-0.95888 -0.74028,-0.36597 -0.90688,-1.06012 -0.38071,-1.58629 0.45708,-0.45708 1.78568,-0.39593 1.97245,0.0908 0.2415,0.62934 -0.11504,0.78477 -0.66289,0.28897 -0.42993,-0.38908 -0.53386,-0.39661 -0.81409,-0.059 -0.26463,0.31886 -0.17805,0.46112 0.49123,0.80722 1.28461,0.6643 0.94422,1.99406 -0.51045,1.99406 -0.37835,0 -0.83079,-0.14288 -1.00541,-0.3175 z m -72.81334,-6.32311 c -1.82181,-0.35595 -3.18288,-1.44495 -4.10104,-3.28127 l -0.79375,-1.5875 -0.0871,-7.73906 -0.0871,-7.73906 h 3.85742 3.85742 v 6.49543 c 0,5.19654 0.0778,6.64579 0.38884,7.24736 0.83756,1.61966 3.51834,1.58697 4.69109,-0.0572 0.58829,-0.82478 0.61151,-1.06756 0.69543,-7.26943 l 0.0868,-6.41614 h 3.6835 3.6835 v 10.05416 10.05417 h -3.02488 c -3.34012,0 -3.09958,0.13495 -3.4495,-1.93529 l -0.17058,-1.00925 -1.03122,0.93164 c -1.37616,1.24328 -2.73164,1.90473 -4.61779,2.2534 -1.75246,0.32396 -1.91348,0.32387 -3.58103,-0.002 z m -15.08125,-14.12918 v -13.89063 h 3.70417 3.70416 v 13.89063 13.89062 h -3.70416 -3.70417 z m 33.3375,3.83645 v -10.05416 h 3.16589 3.16589 l 0.17549,1.32291 c 0.0965,0.72761 0.23373,1.32292 0.30491,1.32292 0.0712,0 0.55643,-0.37491 1.07832,-0.83314 1.70484,-1.49687 3.60569,-2.19369 6.00719,-2.20211 2.58779,-0.009 4.37808,0.76234 5.39921,2.32648 l 0.64377,0.98611 0.94373,-0.88521 c 1.28513,-1.20545 2.06063,-1.65241 3.72424,-2.14645 1.77413,-0.52686 2.9688,-0.53125 4.69954,-0.0173 2.59789,0.77149 3.86747,2.47262 4.2936,5.75305 0.1367,1.05234 0.25223,4.74108 0.25672,8.1972 l 0.008,6.28385 h -3.83646 -3.83646 l -9.9e-4,-6.54844 c -9.1e-4,-6.02413 -0.0423,-6.61613 -0.51654,-7.39397 -0.94546,-1.5506 -3.10415,-1.41724 -4.35346,0.26895 -0.51967,0.70139 -0.55774,1.13548 -0.63226,7.20989 l -0.0793,6.46357 h -3.69102 -3.69102 v -6.37616 c 0,-6.94537 -0.15015,-7.79774 -1.48041,-8.40385 -0.88155,-0.40166 -1.31567,-0.38032 -2.36176,0.11608 -1.57847,0.74903 -1.71408,1.4152 -1.71408,8.42006 v 6.24387 h -3.83646 -3.83646 z m 36.5125,0 v -10.05416 h 3.70417 3.70417 v 10.05416 10.05417 h -3.70417 -3.70417 z m 0,-15.08125 v -2.64583 h 3.70417 3.70417 v 2.64583 2.64584 h -3.70417 -3.70417 z m -52.63534,2.18282 c 0.009,-0.10914 0.75708,-1.21047 1.66195,-2.4474 l 1.64522,-2.24896 3.62971,-0.0736 c 1.99634,-0.0405 3.62172,0.019 3.61195,0.13229 -0.01,0.11325 -1.31461,1.2477 -2.89965,2.52101 l -2.88189,2.3151 h -2.39202 c -1.31561,0 -2.38448,-0.0893 -2.37527,-0.19843 z"
         id="path74" /><path
         style="fill:#b0b3c3;fill-opacity:1"
         d="m 504.77228,-263.19248 v -4.64367 l -0.87414,0.66674 c -1.44386,1.10128 -2.75226,1.51281 -4.83579,1.52098 -3.62792,0.0142 -5.84207,-1.23506 -7.24604,-4.08844 -2.10199,-4.27197 -1.54722,-11.20581 1.15187,-14.39686 0.39374,-0.4655 1.38353,-1.17302 2.19954,-1.57226 1.23266,-0.60308 1.84605,-0.72841 3.62587,-0.74084 1.82872,-0.0128 2.3631,0.0935 3.65144,0.72588 0.83007,0.40747 1.80464,1.09195 2.16573,1.52108 0.36109,0.42913 0.71428,0.78023 0.78487,0.78023 0.0706,0 0.20624,-0.38695 0.30142,-0.85989 0.38431,-1.90944 0.14514,-1.78594 3.45868,-1.78594 h 3.02488 v 13.75833 13.75834 h -3.70416 -3.70417 z m -2.01274,-8.19289 c 1.27741,-0.60617 1.82304,-1.76199 1.96158,-4.15525 0.14905,-2.57463 -0.39418,-4.23466 -1.63292,-4.99001 -1.6062,-0.97941 -3.73348,-0.44549 -4.58335,1.15037 -0.64273,1.20691 -0.62959,5.51931 0.0206,6.76236 0.76189,1.45658 2.62129,1.99785 4.23408,1.23253 z m -26.70952,11.05063 c 0.24114,-1.70832 0.39846,-2.18281 0.7237,-2.18281 0.25489,0 0.15477,1.19633 -0.20242,2.41877 -0.0995,0.34048 0.0979,0.45583 0.91302,0.53357 1.02351,0.0976 1.0532,0.0751 1.87874,-1.42659 0.76141,-1.385 1.36226,-1.85776 1.68696,-1.32732 0.0668,0.10914 0.20661,0.88305 0.31068,1.71979 0.13131,1.05575 0.0989,1.52136 -0.10585,1.52136 -0.16229,0 -0.29507,-0.23813 -0.29507,-0.52917 0,-0.40887 -0.17639,-0.52916 -0.77592,-0.52916 -0.54355,0 -0.82622,0.15847 -0.94387,0.52916 -0.14356,0.4523 -0.40033,0.52917 -1.76767,0.52917 h -1.59971 z m 4.64518,-0.8599 c 0,-0.29104 -0.11907,-0.52916 -0.26459,-0.52916 -0.14552,0 -0.26458,0.0498 -0.26458,0.11065 0,0.0609 -0.0723,0.29898 -0.1606,0.52916 -0.10539,0.27464 -0.0144,0.41852 0.26458,0.41852 0.2488,0 0.42519,-0.21953 0.42519,-0.52917 z m 1.32291,1.89621 c 0,-0.12125 0.1355,-0.89515 0.30111,-1.71979 0.23415,-1.16593 0.40863,-1.49933 0.78464,-1.49933 0.38324,0 0.52219,0.28809 0.66994,1.38906 l 0.18641,1.38906 0.61129,-1.38906 c 0.45783,-1.04035 0.75071,-1.38906 1.16664,-1.38906 0.46442,0 0.53173,0.11913 0.41109,0.7276 -0.0793,0.40018 -0.22112,1.17409 -0.31506,1.71979 -0.25455,1.47886 -0.73388,1.24264 -0.53686,-0.26458 l 0.16427,-1.25677 -0.66847,1.25677 c -0.87633,1.64755 -1.45208,1.66758 -1.45208,0.0505 0,-0.73679 -0.10297,-1.1426 -0.26458,-1.04272 -0.14553,0.0899 -0.26459,0.44441 -0.26459,0.78773 0,0.34331 -0.0723,0.81253 -0.1606,1.04271 -0.16736,0.43614 -0.63315,0.58184 -0.63315,0.19806 z m 4.61524,-1.03631 c 0.30887,-2.1881 0.33228,-2.2201 1.55864,-2.13079 0.87089,0.0634 1.11636,0.1913 1.16983,0.60943 0.10081,0.78843 -0.29194,1.22228 -1.29024,1.42529 -0.65023,0.13222 -0.91715,0.3415 -0.97864,0.76732 -0.0465,0.32204 -0.20885,0.58552 -0.36077,0.58552 -0.17804,0 -0.21317,-0.44672 -0.0988,-1.25677 z m 1.96465,-0.95039 c 0.16208,-0.19529 0.21635,-0.43341 0.12059,-0.52916 -0.18984,-0.18985 -1.14423,-0.24277 -1.14423,-0.0634 0,0.0609 -0.0723,0.29899 -0.1606,0.52917 -0.20333,0.52987 0.75456,0.58118 1.18424,0.0634 z m 0.60796,1.98653 c 0.0485,-0.12135 0.44538,-0.89497 0.88194,-1.71916 1.07332,-2.02634 1.57671,-1.99114 1.95147,0.13644 0.15852,0.89993 0.2387,1.68576 0.17817,1.74629 -0.20152,0.20151 -0.67443,-0.23324 -0.67443,-0.62001 0,-0.5874 -1.25664,-0.47032 -1.5875,0.1479 -0.2683,0.50133 -0.93668,0.77642 -0.74965,0.30854 z m 2.14923,-1.89604 c -0.0761,-0.29104 -0.17983,-0.52916 -0.2305,-0.52916 -0.0507,0 -0.21957,0.23812 -0.37533,0.52916 -0.238,0.44471 -0.20121,0.52917 0.23051,0.52917 0.38344,0 0.47861,-0.13418 0.37532,-0.52917 z m 1.63557,0.46302 0.29906,-1.65364 h 1.17717 c 1.02002,0 1.18847,0.0796 1.26187,0.59649 0.0466,0.32807 -0.0779,0.65891 -0.27672,0.73519 -0.24085,0.0924 -0.32565,0.44509 -0.25419,1.05715 0.0655,0.56073 -0.007,0.91846 -0.18631,0.91846 -0.16144,0 -0.29353,-0.28492 -0.29353,-0.63315 0,-0.62883 -0.62119,-1.09223 -1.08221,-0.8073 -0.13239,0.0818 -0.2407,0.43939 -0.2407,0.79461 0,0.36087 -0.15521,0.64584 -0.35175,0.64584 -0.28699,0 -0.29669,-0.30445 -0.0527,-1.65365 z m 1.94249,-0.79375 c 0.0655,-0.34388 -0.087,-0.46302 -0.59261,-0.46302 -0.5121,0 -0.68086,0.13573 -0.68086,0.54757 0,0.41589 0.14251,0.52724 0.59261,0.46302 0.32593,-0.0465 0.63232,-0.29291 0.68086,-0.54757 z m 1.47817,0.79375 c 0.86606,-1.53961 1.51648,-2.10984 1.82746,-1.60215 0.31929,0.52127 0.49893,3.2558 0.21389,3.2558 -0.16229,0 -0.29507,-0.23813 -0.29507,-0.52917 0,-0.40887 -0.17639,-0.52916 -0.77592,-0.52916 -0.54355,0 -0.82622,0.15847 -0.94388,0.52916 -0.0924,0.29104 -0.34541,0.52917 -0.56231,0.52917 -0.29228,0 -0.15357,-0.42808 0.53583,-1.65365 z m 1.48169,-0.46302 c 0,-0.29104 -0.11906,-0.52916 -0.26458,-0.52916 -0.14552,0 -0.26458,0.0498 -0.26458,0.11065 0,0.0609 -0.0723,0.29898 -0.1606,0.52916 -0.10539,0.27464 -0.0144,0.41852 0.26458,0.41852 0.24879,0 0.42518,-0.21953 0.42518,-0.52917 z m 1.37584,1.79917 c -0.43212,-0.43212 -0.39905,-0.74083 0.0794,-0.74083 0.21828,0 0.39688,0.12734 0.39688,0.28298 0,0.36733 1.11918,0.2051 1.24602,-0.18061 0.0533,-0.16197 -0.26484,-0.44431 -0.70688,-0.62741 -1.36495,-0.56538 -0.82954,-1.9873 0.68122,-1.80919 0.75576,0.0891 1.23442,0.74673 0.54353,0.74673 -0.21829,0 -0.43884,-0.12588 -0.49012,-0.27973 -0.1062,-0.3186 -1.00919,-0.0491 -1.00919,0.30124 0,0.12621 0.35719,0.41419 0.79375,0.63994 1.2682,0.65582 0.91392,1.98438 -0.52917,1.98438 -0.37835,0 -0.83079,-0.14288 -1.00541,-0.3175 z m -71.62271,-6.23277 c -2.68105,-0.2296 -4.38202,-1.32647 -5.38978,-3.4756 -0.69362,-1.47919 -0.6959,-1.50603 -0.7856,-9.22257 l -0.09,-7.73906 h 3.86027 3.86027 v 6.7589 6.7589 l 0.63868,0.63867 c 0.35127,0.35127 0.95172,0.71725 1.33434,0.81328 0.94986,0.2384 2.48056,-0.39002 3.15794,-1.29647 0.52574,-0.70353 0.56211,-1.11527 0.63688,-7.20971 l 0.0793,-6.46357 h 3.69102 3.69102 v 10.05416 10.05417 h -3.0144 c -3.23274,0 -3.3356,-0.0449 -3.3356,-1.45521 0,-1.42567 -0.2607,-1.52029 -1.38647,-0.50322 -1.7629,1.59267 -4.50773,2.4963 -6.9479,2.28733 z m -16.27188,-14.08723 v -13.75834 h 3.70417 3.70416 v 13.75834 13.75833 h -3.70416 -3.70417 z m 33.60208,3.70416 v -10.05416 h 3.00964 3.00964 l 0.16536,0.82682 c 0.0909,0.45475 0.16536,1.1096 0.16536,1.45521 0,0.81885 0.16056,0.79261 0.95946,-0.15683 0.3634,-0.43187 1.45453,-1.17601 2.42476,-1.65364 1.5537,-0.76489 2.01707,-0.86788 3.88626,-0.86373 2.63316,0.006 4.32308,0.72475 5.34945,2.27569 l 0.67875,1.02567 1.05797,-0.95581 c 0.58189,-0.5257 1.72711,-1.26535 2.54494,-1.64368 2.98718,-1.38186 7.0133,-0.73396 8.63271,1.3892 1.35022,1.77023 1.45321,2.53346 1.45321,10.76978 v 7.63965 h -3.70417 -3.70417 l -9.9e-4,-6.54844 c -9e-4,-5.99937 -0.0437,-6.61855 -0.51091,-7.38471 -0.89587,-1.46922 -2.7662,-1.50068 -4.13811,-0.0696 l -0.77395,0.80733 -0.0791,6.59771 -0.0791,6.5977 h -3.69123 -3.69123 l -4.1e-4,-6.41614 c -3.6e-4,-5.57843 -0.0608,-6.53706 -0.46302,-7.34219 -0.88405,-1.76966 -3.43256,-1.69786 -4.56132,0.1285 -0.49384,0.79906 -0.5315,1.31242 -0.5315,7.24492 v 6.38491 h -3.70417 -3.70417 z m 36.24792,0 v -10.05416 h 3.70417 3.70417 v 10.05416 10.05417 h -3.70417 -3.70417 z m 0,-14.94895 v -2.51355 h 3.70417 3.70417 v 2.51355 2.51354 h -3.70417 -3.70417 z m -52.4924,1.91823 c 0.105,-0.18191 0.8346,-1.25347 1.62134,-2.38125 l 1.43042,-2.05053 h 3.55366 c 1.9545,0 3.55365,0.0485 3.55365,0.1077 0,0.0592 -1.26037,1.13079 -2.80082,2.38125 l -2.80082,2.27355 h -2.37417 c -1.82477,0 -2.32999,-0.0765 -2.18326,-0.33072 z"
         id="path73" /><path
         style="fill:#b0b3c3;fill-opacity:1"
         d="m 504.77228,-263.21042 v -4.66161 l -0.93219,0.71102 c -1.50815,1.15032 -3.05158,1.54791 -5.50836,1.41896 -4.56686,-0.23969 -6.94534,-2.73832 -7.62601,-8.01123 -0.5828,-4.51483 0.62809,-9.11211 2.89147,-10.97778 2.23238,-1.84011 6.22879,-2.26881 8.91208,-0.956 0.81924,0.40081 1.74548,1.07495 2.05831,1.49809 0.31284,0.42313 0.65359,0.76933 0.75723,0.76933 0.10364,0 0.33125,-0.59531 0.5058,-1.32292 l 0.31737,-1.32291 h 3.01631 3.01632 v 13.75833 13.75834 h -3.70416 -3.70417 z m -1.9674,-8.16072 c 1.3175,-0.55048 1.95578,-2.06483 1.95578,-4.64017 0,-3.5431 -1.33259,-5.24261 -3.88516,-4.9549 -1.51279,0.17052 -2.33068,0.95995 -2.73329,2.63821 -0.39237,1.63559 -0.17908,4.61255 0.41243,5.7564 0.7301,1.41187 2.52855,1.91983 4.25024,1.20046 z m -26.76029,11.30098 c 0.3562,-2.06938 0.46662,-2.44739 0.71487,-2.44739 0.2306,0 0.13238,1.20495 -0.19715,2.41877 -0.0926,0.34103 0.11676,0.45677 0.974,0.53853 l 1.09193,0.10413 0.7727,-1.53072 c 0.7731,-1.53149 1.40439,-1.93797 1.65823,-1.06769 0.36054,1.2361 0.4747,2.97656 0.19523,2.97656 -0.16204,0 -0.29462,-0.23813 -0.29462,-0.52917 0,-0.40887 -0.17639,-0.52916 -0.77592,-0.52916 -0.54355,0 -0.82622,0.15847 -0.94387,0.52916 -0.14355,0.45227 -0.40033,0.52917 -1.76707,0.52917 h -1.59912 z m 4.64219,-1.32292 c -0.008,-0.69692 -0.0248,-0.70595 -0.39687,-0.21401 -0.49498,0.65442 -0.49242,0.94162 0.008,0.94162 0.25861,0 0.39394,-0.2535 0.38846,-0.72761 z m 1.43355,1.5875 c 0.0793,-0.40018 0.22112,-1.17408 0.31505,-1.71979 0.123,-0.71456 0.30367,-0.99218 0.64568,-0.99218 0.37139,0 0.51801,0.30276 0.67268,1.38906 l 0.19779,1.38906 0.63829,-1.38906 c 0.4659,-1.0139 0.78423,-1.38906 1.17864,-1.38906 0.42792,0 0.50949,0.12386 0.39203,0.59531 -0.0816,0.32742 -0.22877,1.10133 -0.32708,1.71979 -0.26092,1.64126 -0.72292,1.41059 -0.52992,-0.26458 l 0.16003,-1.38907 -0.6598,1.41264 c -0.79773,1.70796 -1.27657,1.6722 -1.47643,-0.11024 -0.15227,-1.35796 -0.35905,-1.20151 -0.63909,0.48354 -0.0907,0.5457 -0.28803,0.99219 -0.43852,0.99219 -0.15707,0 -0.21217,-0.30991 -0.12935,-0.72761 z m 4.50759,-0.26458 c 0.43209,-2.51022 0.3979,-2.44739 1.33194,-2.44739 1.80602,0 1.88997,1.43184 0.1183,2.01754 -0.59164,0.1956 -0.92968,0.49064 -0.98522,0.8599 -0.0465,0.30918 -0.20858,0.56214 -0.36018,0.56214 -0.17247,0 -0.21171,-0.37132 -0.10484,-0.99219 z m 2.1043,-1.26679 c 0.17735,-0.46216 -0.42245,-0.78719 -1.02557,-0.55576 -0.21828,0.0838 -0.39687,0.33463 -0.39687,0.55748 0,0.53815 1.21584,0.53669 1.42244,-0.002 z m 1.28265,0.53919 c 1.05523,-2.1399 1.65299,-2.2848 1.91015,-0.46302 0.0976,0.69122 0.23817,1.46513 0.31245,1.71979 0.0743,0.25466 -0.003,0.46302 -0.17213,0.46302 -0.16895,0 -0.36946,-0.23813 -0.44556,-0.52917 -0.0888,-0.33964 -0.3609,-0.52916 -0.75968,-0.52916 -0.3505,0 -0.74472,0.23063 -0.90449,0.52916 -0.15576,0.29104 -0.39696,0.52917 -0.536,0.52917 -0.13904,0 0.12882,-0.77391 0.59526,-1.71979 z m 1.50965,-0.0661 c -0.0102,-0.10914 -0.10504,-0.41808 -0.2107,-0.68652 -0.17237,-0.43799 -0.2242,-0.41762 -0.50489,0.19843 -0.27933,0.61306 -0.25678,0.68653 0.21069,0.68653 0.28792,0 0.51512,-0.0893 0.5049,-0.19844 z m 1.44926,0.4598 c 0.2552,-1.92379 0.37326,-2.11396 1.30962,-2.10939 1.14612,0.006 1.58893,0.33537 1.37124,1.02125 -0.0981,0.30921 -0.28199,0.5622 -0.40856,0.5622 -0.12656,0 -0.16249,0.41671 -0.0798,0.92604 0.0929,0.57245 0.0427,0.92604 -0.13135,0.92604 -0.1549,0 -0.3193,-0.32742 -0.36535,-0.72761 -0.0602,-0.5233 -0.2323,-0.7276 -0.61289,-0.7276 -0.38058,0 -0.55267,0.2043 -0.61288,0.7276 -0.046,0.40019 -0.21022,0.72761 -0.36482,0.72761 -0.18441,0 -0.22059,-0.45611 -0.10517,-1.32614 z m 1.9936,-0.90437 c 0.25131,-0.30281 0.20383,-0.43742 -0.23765,-0.67369 -0.66709,-0.35702 -1.06995,-0.15424 -1.06995,0.53856 0,0.61238 0.83952,0.69914 1.3076,0.13513 z m 1.51875,0.51072 c 1.27864,-2.40798 1.69109,-2.31632 2.08341,0.46302 0.12043,0.8531 0.0828,1.25677 -0.11722,1.25677 -0.16204,0 -0.29462,-0.23813 -0.29462,-0.52917 0,-0.40887 -0.17639,-0.52916 -0.77592,-0.52916 -0.54355,0 -0.82622,0.15847 -0.94388,0.52916 -0.0924,0.29104 -0.32478,0.52917 -0.51647,0.52917 -0.23038,0 -0.039,-0.58294 0.5647,-1.71979 z m 1.39857,-0.59532 c -0.008,-0.69692 -0.0248,-0.70595 -0.39688,-0.21401 -0.49497,0.65442 -0.49241,0.94162 0.008,0.94162 0.2586,0 0.39394,-0.2535 0.38846,-0.72761 z m 1.50772,2.13872 c -0.097,-0.097 -0.17639,-0.35359 -0.17639,-0.57017 0,-0.32154 0.0962,-0.30675 0.5242,0.0806 0.42899,0.38823 0.5972,0.41382 0.92605,0.1409 0.59799,-0.49629 0.49216,-0.79391 -0.39192,-1.1021 -0.8297,-0.28923 -1.03561,-0.93558 -0.47625,-1.49493 0.43988,-0.43988 1.40351,-0.39736 1.79917,0.0794 0.38165,0.45986 -0.0123,0.54334 -0.45847,0.0972 -0.33267,-0.33267 -1.12903,-0.13192 -1.12903,0.28462 0,0.14635 0.35719,0.4508 0.79375,0.67655 0.91253,0.47189 1.04904,1.29997 0.28198,1.71049 -0.5811,0.31099 -1.43068,0.35992 -1.69309,0.0975 z m -74.47056,-7.12242 c -1.49542,-0.7452 -2.21049,-1.57248 -2.88106,-3.33319 -0.35531,-0.93293 -0.45606,-2.53433 -0.55039,-8.74873 l -0.11547,-7.60677 h 3.86325 3.86325 v 6.71119 c 0,6.358 0.0285,6.74737 0.54064,7.3985 1.17519,1.49402 3.87731,1.00006 4.81677,-0.88053 0.40056,-0.80184 0.46266,-1.75107 0.46302,-7.0776 l 4.1e-4,-6.15156 h 3.70416 3.70417 v 10.05416 10.05417 h -3.03072 -3.03072 l -0.16738,-0.99219 c -0.34423,-2.04045 -0.30279,-2.01968 -1.69215,-0.84816 -1.77561,1.49721 -3.52314,2.10494 -6.05283,2.10494 -1.68728,0 -2.31134,-0.12431 -3.43495,-0.68423 z m -13.5475,-13.33869 v -13.75834 h 3.70417 3.70416 v 13.75834 13.75833 h -3.70416 -3.70417 z m 33.60208,3.70416 v -10.05416 h 3.02367 3.02367 l 0.18182,1.45521 c 0.1,0.80036 0.2316,1.4552 0.29244,1.4552 0.0609,0 0.51048,-0.39985 0.99919,-0.88856 1.79449,-1.79449 4.95325,-2.76634 7.47568,-2.30005 1.84907,0.34182 2.75638,0.84111 3.8498,2.11853 l 0.90771,1.06045 0.76997,-0.80368 c 0.42349,-0.44202 1.5266,-1.17616 2.45136,-1.63142 3.15758,-1.55447 7.22315,-0.97703 8.93648,1.26926 1.28515,1.68492 1.42572,2.7571 1.42572,10.87482 v 7.49857 h -3.69164 -3.69164 l -0.0787,-6.90246 -0.0787,-6.90247 -0.74236,-0.63816 c -1.34333,-1.15478 -3.4515,-0.63689 -4.24905,1.04382 -0.36237,0.76365 -0.43255,1.92451 -0.43255,7.1554 v 6.24387 h -3.70416 -3.70417 v -6.49543 c 0,-5.27601 -0.075,-6.64051 -0.39962,-7.2682 -0.69116,-1.33656 -2.07814,-1.69177 -3.57779,-0.91627 -1.47382,0.76215 -1.57884,1.31534 -1.57884,8.31676 v 6.36314 h -3.70417 -3.70417 z m 36.24792,0 v -10.05416 h 3.70417 3.70417 v 10.05416 10.05417 h -3.70417 -3.70417 z m 0,-14.94895 v -2.51355 h 3.70417 3.70417 v 2.51355 2.51354 h -3.70417 -3.70417 z m -52.46679,1.90194 c 0.11637,-0.19085 0.85153,-1.26242 1.63369,-2.38125 l 1.42211,-2.03424 h 3.59552 c 3.10183,0 3.54233,0.0513 3.2081,0.37331 -0.21308,0.20533 -1.50678,1.27689 -2.87488,2.38125 l -2.48747,2.00794 h -2.35433 c -1.87354,0 -2.31112,-0.0709 -2.14274,-0.34701 z"
         id="path72" /><path
         style="fill:#b0b3c3;fill-opacity:1"
         d="m 504.77228,-263.17901 c 0,-2.54662 -0.10061,-4.63021 -0.22358,-4.63021 -0.12296,0 -0.42911,0.22711 -0.68032,0.5047 -0.25121,0.27758 -1.06711,0.76727 -1.81312,1.08819 -1.14587,0.49294 -1.70754,0.56569 -3.61915,0.46874 -2.72507,-0.13821 -3.96146,-0.69381 -5.54351,-2.49111 -2.4,-2.72655 -3.03173,-8.90422 -1.36585,-13.35667 1.09128,-2.91672 3.79463,-4.73387 7.0884,-4.7647 2.55415,-0.0239 3.86562,0.43836 5.51172,1.9428 l 1.39836,1.27802 0.30374,-1.46311 0.30374,-1.46311 h 3.02395 3.02395 v 13.75833 13.75834 h -3.70416 -3.70417 z m -1.81815,-8.21963 c 1.19467,-0.61779 1.80531,-2.19711 1.81234,-4.68731 0.007,-2.36036 -0.39167,-3.5431 -1.48348,-4.40486 -0.62924,-0.49665 -0.99851,-0.58 -2.15077,-0.4855 -2.51942,0.20662 -3.40592,1.78708 -3.1694,5.65037 0.1503,2.45501 0.42347,3.10783 1.60083,3.82572 1.01992,0.62189 2.30958,0.66053 3.39048,0.10158 z m -27.02143,12.10021 c 0,-0.77013 0.6452,-3.21912 0.8481,-3.21912 0.13524,0 0.18873,0.20835 0.11887,0.46302 -0.0699,0.25466 -0.20234,0.9095 -0.2944,1.4552 -0.16726,0.99143 -0.16667,0.99219 0.77064,0.99219 0.51592,0 0.93804,0.11906 0.93804,0.26459 0,0.14552 -0.53579,0.26458 -1.19063,0.26458 -0.65484,0 -1.19062,-0.0992 -1.19062,-0.22046 z m 2.64583,0.0806 c 0,-0.0769 0.3589,-0.85081 0.79756,-1.71979 0.79533,-1.57553 1.42704,-1.99476 1.68308,-1.11693 0.36054,1.2361 0.4747,2.97656 0.19523,2.97656 -0.16204,0 -0.29462,-0.23813 -0.29462,-0.52917 0,-0.40887 -0.17639,-0.52916 -0.77592,-0.52916 -0.54355,0 -0.82622,0.15847 -0.94387,0.52916 -0.14711,0.46349 -0.66146,0.76624 -0.66146,0.38933 z m 2.10825,-2.17527 c -0.008,-0.69692 -0.0248,-0.70595 -0.39687,-0.21401 -0.49498,0.65442 -0.49242,0.94162 0.008,0.94162 0.25861,0 0.39394,-0.2535 0.38846,-0.72761 z m 1.43072,1.85209 c 0.0743,-0.25466 0.21489,-1.02857 0.31246,-1.71979 0.14009,-0.99248 0.28237,-1.25677 0.67653,-1.25677 0.36171,0 0.50638,0.2003 0.5255,0.7276 0.0145,0.40018 0.11307,1.02526 0.21903,1.38906 0.17933,0.61567 0.23471,0.5653 0.79996,-0.7276 0.43333,-0.99116 0.75465,-1.38906 1.12171,-1.38906 0.36498,0 0.47518,0.1345 0.37936,0.46302 -0.0743,0.25466 -0.21488,1.02856 -0.31245,1.71979 -0.2426,1.71862 -0.70023,1.60265 -0.52207,-0.13229 l 0.14264,-1.38907 -0.65754,1.38907 c -0.92303,1.94993 -1.26879,1.81602 -1.53712,-0.59532 -0.10142,-0.91139 -0.32474,-0.52759 -0.57731,0.99219 -0.0907,0.5457 -0.28659,0.99219 -0.43532,0.99219 -0.14874,0 -0.20965,-0.20836 -0.13538,-0.46302 z m 4.39853,0.24256 c 0,-0.12125 0.1355,-0.89515 0.30111,-1.71979 0.29164,-1.45221 0.32805,-1.49933 1.15823,-1.49933 1.83361,0 1.86121,1.50194 0.0361,1.96489 -0.76441,0.1939 -0.96626,0.37353 -0.96626,0.85989 0,0.33814 -0.11907,0.6148 -0.26459,0.6148 -0.14552,0 -0.26458,-0.0992 -0.26458,-0.22046 z m 2.29582,-2.0552 c 0.1811,-0.47195 -0.36225,-0.93559 -0.9729,-0.83016 -0.21829,0.0377 -0.43493,0.33519 -0.48143,0.66113 -0.069,0.48353 0.0421,0.59261 0.60362,0.59261 0.38691,0 0.75932,-0.18543 0.85071,-0.42358 z m 1.19531,0.62302 c 1.11797,-2.11275 1.672,-2.2699 1.91587,-0.54341 0.0987,0.69851 0.24016,1.47837 0.31444,1.73303 0.18875,0.64713 -0.35603,0.58302 -0.56207,-0.0661 -0.10642,-0.33531 -0.40032,-0.52916 -0.80227,-0.52916 -0.36353,0 -0.75521,0.2259 -0.91752,0.52916 -0.15576,0.29104 -0.40464,0.52917 -0.55307,0.52917 -0.14843,0 0.12365,-0.74369 0.60462,-1.65264 z m 1.5319,-0.26559 c -0.002,-0.1819 -0.10064,-0.48294 -0.21869,-0.66897 -0.15571,-0.24536 -0.29833,-0.15455 -0.51944,0.33073 -0.27013,0.59287 -0.24525,0.66897 0.21869,0.66897 0.28792,0 0.52167,-0.14883 0.51944,-0.33073 z m 1.43864,0.69913 c 0.29833,-2.10957 0.36471,-2.22048 1.32897,-2.22048 1.14487,0 1.70466,0.61993 1.13932,1.26173 -0.26052,0.29576 -0.35656,0.76272 -0.27106,1.31795 0.0781,0.50696 0.0187,0.8599 -0.14463,0.8599 -0.15237,0 -0.31471,-0.32742 -0.36076,-0.72761 -0.0599,-0.52096 -0.25279,-0.75161 -0.67903,-0.81215 -0.48173,-0.0684 -0.59531,0.0422 -0.59531,0.5797 0,0.36534 -0.13513,0.74776 -0.30028,0.84983 -0.21729,0.13429 -0.24968,-0.17215 -0.11722,-1.10887 z m 2.09325,-1.01052 c 0.18567,-0.48384 -0.48859,-1.05143 -1.01093,-0.85099 -0.22013,0.0845 -0.40024,0.39545 -0.40024,0.69105 0,0.39051 0.17313,0.53748 0.63315,0.53748 0.34823,0 0.69834,-0.16989 0.77802,-0.37754 z m 0.7055,2.08978 c 0,-0.0769 0.3589,-0.85081 0.79756,-1.71979 0.79532,-1.57553 1.42704,-1.99476 1.68308,-1.11693 0.36054,1.2361 0.47469,2.97656 0.19523,2.97656 -0.16204,0 -0.29462,-0.23813 -0.29462,-0.52917 0,-0.40887 -0.17639,-0.52916 -0.77592,-0.52916 -0.54355,0 -0.82622,0.15847 -0.94388,0.52916 -0.1471,0.46349 -0.66145,0.76624 -0.66145,0.38933 z m 2.10825,-2.17527 c -0.008,-0.69692 -0.0248,-0.70595 -0.39688,-0.21401 -0.49497,0.65442 -0.49241,0.94162 0.008,0.94162 0.2586,0 0.39394,-0.2535 0.38846,-0.72761 z m 1.60358,2.06086 c -0.21407,-0.13538 -0.30625,-0.32912 -0.20484,-0.43053 0.10141,-0.10141 0.35077,-0.0463 0.55412,0.12247 0.44893,0.37258 1.23055,0.1194 1.23055,-0.39859 0,-0.20631 -0.3007,-0.48944 -0.66824,-0.62918 -0.36753,-0.13973 -0.73803,-0.43596 -0.82335,-0.65828 -0.37032,-0.96504 1.32577,-1.63176 2.02076,-0.79435 0.38165,0.45986 -0.0123,0.54334 -0.45847,0.0972 -0.37521,-0.37521 -1.12903,-0.1096 -1.12903,0.39782 0,0.20861 0.35719,0.50381 0.79375,0.656 0.92589,0.32277 1.07742,1.19213 0.28198,1.61784 -0.62816,0.33618 -1.08778,0.34183 -1.59723,0.0196 z m -73.95871,-6.73918 c -1.32418,-0.48345 -3.10456,-2.39905 -3.52074,-3.78816 -0.21268,-0.70986 -0.31572,-3.52625 -0.31572,-8.62984 v -7.57607 h 3.57188 3.57187 l 10e-4,6.01927 c 8.1e-4,3.3106 0.12397,6.46034 0.27369,6.99942 0.69537,2.50371 3.66407,2.78777 5.20699,0.49822 0.58607,-0.86967 0.60326,-1.07495 0.60326,-7.20604 v -6.31087 h 3.70416 3.70417 v 10.05416 10.05417 h -3.01945 -3.01945 l -0.17488,-1.12448 c -0.33215,-2.13575 -0.3448,-2.14724 -1.27851,-1.1606 -1.48098,1.56493 -3.42892,2.366 -6.00146,2.46802 -1.51437,0.0601 -2.59465,-0.037 -3.30729,-0.2972 z m -14.15521,-13.64407 v -13.75834 h 3.70417 3.70416 v 13.75834 13.75833 h -3.70416 -3.70417 z m 33.60208,3.70416 v -10.05416 h 3.01223 3.01222 l 0.18182,1.45521 c 0.1,0.80036 0.26895,1.4552 0.37545,1.4552 0.10651,0 0.58763,-0.40649 1.06918,-0.90331 1.39365,-1.43788 3.61919,-2.30108 5.93275,-2.30108 2.50011,0 3.85392,0.54533 5.22736,2.10564 0.93362,1.06064 1.10862,1.16198 1.3284,0.76925 0.36091,-0.6449 2.41132,-2.00282 3.73633,-2.47446 1.4778,-0.52601 4.37859,-0.5121 5.6696,0.0272 1.27652,0.53324 2.35475,1.54873 3.08879,2.90907 0.54308,1.00642 0.57518,1.45086 0.65469,9.06198 l 0.0836,8.00364 h -3.72162 -3.72163 v -6.76723 -6.76722 l -0.7734,-0.7734 c -0.88245,-0.88245 -1.97227,-1.009 -3.20401,-0.37205 -1.47382,0.76215 -1.57884,1.31534 -1.57884,8.31676 v 6.36314 h -3.69164 -3.69164 l -0.0787,-6.90246 -0.0787,-6.90247 -0.77602,-0.66711 c -0.65063,-0.55932 -0.96561,-0.64574 -1.94937,-0.53486 -0.79377,0.0895 -1.39867,0.35741 -1.86982,0.82825 l -0.69646,0.69601 -0.0789,6.74132 -0.0789,6.74132 h -3.69144 -3.69144 z m 36.24792,0 v -10.05416 h 3.70417 3.70417 v 10.05416 10.05417 h -3.70417 -3.70417 z m -51.02123,-15.08125 1.65016,-2.38125 h 3.51887 c 1.93538,0 3.51887,0.0394 3.51887,0.0874 0,0.0481 -1.29775,1.11965 -2.88389,2.38125 l -2.88388,2.29381 h -2.28515 -2.28515 z m 51.02123,0 v -2.38125 h 3.70417 3.70417 v 2.38125 2.38125 h -3.70417 -3.70417 z"
         id="path71" /></g></g></svg>
