<?xml version="1.0" encoding="UTF-8" standalone="no"?>
<!-- Created with Inkscape (http://www.inkscape.org/) -->

<svg
   width="256.64758"
   height="60.604435"
   viewBox="0 0 67.904671 16.034923"
   version="1.1"
   id="svg1"
   xml:space="preserve"
   xmlns:inkscape="http://www.inkscape.org/namespaces/inkscape"
   xmlns:sodipodi="http://sodipodi.sourceforge.net/DTD/sodipodi-0.dtd"
   xmlns="http://www.w3.org/2000/svg"
   xmlns:svg="http://www.w3.org/2000/svg"><sodipodi:namedview
     id="namedview1"
     pagecolor="#ffffff"
     bordercolor="#000000"
     borderopacity="0.25"
     inkscape:showpageshadow="2"
     inkscape:pageopacity="0.0"
     inkscape:pagecheckerboard="0"
     inkscape:deskcolor="#d1d1d1"
     inkscape:document-units="mm" /><defs
     id="defs1" /><g
     inkscape:label="Capa 1"
     inkscape:groupmode="layer"
     id="layer1"
     transform="translate(-5.7351629,-31.670036)"><g
       id="g57"
       transform="matrix(0.18048243,0,0,0.18048243,5.8084287,159.79091)"
       style="fill:#b0b3c3;fill-opacity:1"><path
         style="fill:#b0b3c3;fill-opacity:1"
         d="m 30.191148,-621.28934 c -0.991631,-0.29716 -1.699481,-0.95914 -2.314829,-2.1648 -0.430346,-0.84319 -0.501584,-1.58957 -0.505064,-5.29167 -0.0022,-2.37051 -0.09857,-4.45887 -0.214083,-4.6408 -0.15897,-0.25036 -1.235408,0.0277 -4.42772,1.1436 -7.771285,2.71662 -13.9778094,4.15991 -19.4232788,4.51677 -2.85666647,0.18721 -3.71211701,-0.0581 -3.71211701,-1.06456 0,-0.9518 0.70092318,-1.34349 3.83645831,-2.14394 7.0457005,-1.79864 14.0404905,-4.46118 21.1666665,-8.05702 19.697148,-9.9391 35.441936,-25.32915 48.740348,-47.6422 1.170846,-1.96453 2.455942,-4.22671 2.855768,-5.02708 0.399826,-0.80036 0.95792,-1.78263 1.240208,-2.18281 0.816368,-1.15732 2.329301,-0.85457 2.329301,0.4661 0,1.86121 -2.159079,8.06825 -4.504347,12.94934 l -1.531368,3.18716 1.23192,0.17011 c 0.677556,0.0936 1.536944,0.29046 1.90975,0.43755 0.865485,0.34148 2.297055,1.96514 2.559493,2.90292 0.111243,0.39752 0.202261,5.79163 0.202261,11.98693 v 11.26417 l -0.710146,1.07305 c -0.426602,0.6446 -1.166094,1.29183 -1.852084,1.62101 -1.067168,0.51209 -1.7881,0.56018 -11.010701,0.73449 l -9.868763,0.18653 -0.516132,0.65616 c -0.490733,0.62386 -0.516451,1.14592 -0.522601,10.60849 -0.0038,5.88155 -0.118332,10.43934 -0.279955,11.14297 -0.150419,0.65484 -0.593992,1.53271 -0.98572,1.95081 -1.381716,1.47476 -1.520035,1.49075 -12.67613,1.46603 -5.643606,-0.0125 -10.601317,-0.1247 -11.017135,-0.24931 z m -14.454657,-15.20264 c -0.484901,-0.58427 -0.164099,-1.42474 1.216007,-3.18584 0.681045,-0.86905 2.067432,-2.83025 3.080862,-4.35822 l 1.842598,-2.77812 -2.211263,-0.17218 c -1.216195,-0.0947 -4.685635,-0.184 -7.709866,-0.19844 -6.0668425,-0.029 -6.7334222,-0.16254 -7.9343971,-1.58981 -1.2339657,-1.46649 -1.2978745,-2.20971 -1.2053514,-14.01757 0.085854,-10.95677 0.089183,-11.01419 0.6949166,-11.98835 0.3347571,-0.53837 1.0491321,-1.25275 1.5875,-1.5875 0.9653383,-0.60025 1.1166343,-0.61048 10.9600029,-0.74095 9.94921,-0.13186 9.983079,-0.13422 10.583333,-0.7346 l 0.602182,-0.60232 0.132291,-10.82214 c 0.127851,-10.45884 0.150873,-10.8472 0.685786,-11.56852 0.304422,-0.41051 0.947108,-1.01426 1.42819,-1.34169 0.871908,-0.59341 0.908936,-0.5953 11.617339,-0.59096 10.626131,0.004 10.753962,0.0108 11.786233,0.59546 0.573974,0.32511 1.288349,1.00776 1.5875,1.517 0.512875,0.87307 0.553238,1.47694 0.707376,10.58319 0.08991,5.31151 0.250094,10.09369 0.355972,10.62707 0.105878,0.53338 0.461777,1.22275 0.790888,1.53194 l 0.598382,0.56215 0.465168,-1.66423 c 0.255842,-0.91532 0.677448,-2.08094 0.936902,-2.59026 0.572958,-1.12475 2.143031,-2.7758 3.117698,-3.27849 1.323441,-0.68258 8.835643,-2.82654 9.341415,-2.66601 0.275415,0.0874 0.575415,0.4564 0.666666,0.81998 0.235512,0.93835 -0.809232,1.94591 -3.868848,3.73115 -3.97301,2.3182 -4.863423,3.34387 -6.05808,6.97834 -1.165725,3.54645 -3.03001,5.49866 -5.801371,6.07498 -1.153238,0.23982 -2.300687,0.2401 -4.941591,10e-4 -6.270255,-0.56716 -7.115866,0.21877 -8.440279,7.8446 -0.910304,5.24143 -2.758675,7.21996 -8.687555,9.29932 -1.271142,0.44581 -2.646536,0.984 -3.056432,1.19596 -1.232635,0.63742 -2.732357,2.48709 -4.957719,6.11456 -1.704657,2.77869 -2.676076,4.01151 -5.055699,6.41615 -2.448207,2.47394 -3.07939,2.97656 -3.737915,2.97656 -0.435774,0 -0.939252,-0.17705 -1.118841,-0.39344 z m 230.713819,-0.12219 c -4.48478,-0.4042 -8.95729,-1.60065 -12.8323,-3.4328 -2.2272,-1.05305 -5.42395,-3.25962 -5.42395,-3.7439 0,-0.1568 0.64862,-1.64966 1.44139,-3.31747 l 1.44139,-3.03237 1.65631,1.21931 c 2.93492,2.16057 6.92855,3.85115 11.33591,4.79872 2.99137,0.64313 9.36198,0.63516 12.03854,-0.0151 3.7587,-0.91311 5.97749,-2.38029 7.21246,-4.76927 0.5692,-1.10107 0.69664,-1.70873 0.69866,-3.33111 0.003,-2.29892 -0.43057,-3.40975 -1.9094,-4.89362 -2.04681,-2.0538 -3.46118,-2.61112 -12.7486,-5.02353 -10.29525,-2.67419 -12.91581,-3.79966 -16.02474,-6.88227 -2.78385,-2.76029 -3.81034,-5.32583 -3.81587,-9.53718 -0.007,-5.32277 2.25789,-9.78039 6.39776,-12.59172 2.10652,-1.43051 3.80868,-2.18304 6.82827,-3.0188 3.36856,-0.93234 10.37379,-1.20623 14.42216,-0.56387 4.56109,0.72372 8.88131,2.18668 11.6791,3.95491 l 1.09813,0.69403 -1.34598,3.2659 -1.34597,3.2659 -2.79487,-1.39222 c -6.12121,-3.04919 -13.51405,-3.98698 -19.28454,-2.44628 -2.3417,0.62523 -3.52719,1.21337 -4.99159,2.47642 -3.24544,2.79919 -3.43868,8.05056 -0.39707,10.7903 2.12181,1.91122 4.77153,2.94526 12.08875,4.71757 9.35357,2.26553 13.08632,3.80088 16.11318,6.62763 3.41317,3.18753 4.79435,7.16508 4.12768,11.88706 -0.87204,6.17667 -4.87729,10.65003 -11.56999,12.92225 -3.47839,1.18094 -9.59989,1.77658 -14.09482,1.37147 z m -128.12314,-25.61197 -0.0675,-25.06927 -9.85573,-0.0694 -9.855727,-0.0694 v -3.56865 -3.56866 h 23.812497 23.8125 v 3.57188 3.57187 h -9.78958 -9.78958 v 25.13542 25.13542 h -4.0997 -4.0997 z m 48.28393,-3.57188 0.0673,-28.64114 20.30677,-0.0678 20.30677,-0.0678 v 3.57352 3.57351 h -16.13958 -16.13958 v 8.86355 8.86354 h 14.41979 14.41979 v 3.43958 3.43958 H 189.4326 175.01281 v 9.26042 9.26042 h 16.66875 16.66875 v 3.57187 3.57188 h -20.90327 -20.90326 z m 120.7693,28.20425 c 0.095,-0.24748 5.91887,-13.13893 12.94202,-28.64767 l 12.76935,-28.19772 h 4.15162 4.15162 l 12.79881,28.17812 c 7.03934,15.49797 12.86621,28.38649 12.9486,28.64115 0.13856,0.42828 -0.17413,0.46272 -4.16751,0.45907 l -4.31731,-0.004 -3.09044,-7.07365 -3.09044,-7.07365 h -15.26917 -15.26917 l -3.08049,7.01146 -3.08049,7.01146 -4.28483,0.0727 c -3.94164,0.0669 -4.271,0.0366 -4.11217,-0.37728 z m 41.52956,-21.85425 c -0.33707,-0.76398 -3.09291,-7.01967 -6.1241,-13.90152 -3.03119,-6.88185 -5.59278,-12.41826 -5.69243,-12.30313 -0.14164,0.16367 -10.18794,22.89949 -11.81289,26.73382 l -0.36442,0.85989 h 12.30334 12.30334 z m 38.71951,-6.41614 v -28.7073 h 4.10104 4.10105 v 28.7073 28.70729 h -4.10105 -4.10104 z m -46.98386,-33.9375 c -1.30496,-0.46466 -3.26248,-1.73525 -5.12561,-3.32695 -2.11347,-1.80556 -4.15969,-2.13375 -5.70838,-0.91554 -0.83681,0.65823 -1.69919,2.40232 -1.70759,3.45342 l -0.006,0.72761 h -2.28722 -2.28721 l 0.15691,-1.68036 c 0.3833,-4.10462 2.84519,-7.40685 6.03144,-8.09017 2.91247,-0.62462 4.57596,-0.13177 7.73106,2.29048 3.12462,2.39886 4.1177,2.97261 5.1541,2.97778 1.8464,0.009 3.23584,-1.26206 3.75791,-3.4383 l 0.31663,-1.31985 h 2.22256 c 1.22242,0 2.22167,0.0893 2.22057,0.19844 -10e-4,0.10914 -0.1249,0.9559 -0.27513,1.88169 -0.48688,3.00056 -2.36567,5.83216 -4.56833,6.88512 -1.65502,0.79117 -3.98985,0.93917 -5.6259,0.35663 z"
         id="path62" /><path
         style="fill:#b0b3c3;fill-opacity:1"
         d="m 30.153431,-621.41729 c -0.582083,-0.21218 -1.090721,-0.38757 -1.130306,-0.38977 -0.03958,-0.002 -0.426538,-0.56307 -0.859896,-1.2464 l -0.787923,-1.24243 v -4.83113 -4.83114 l -1.714622,0.64538 c -8.806369,3.31471 -18.77051,5.68091 -23.922505,5.68091 -1.31655177,0 -2.14412281,-0.53168 -2.14412281,-1.3775 0,-0.70785 0.58565027,-0.96186 5.31423311,-2.30492 10.9902717,-3.12158 19.4558317,-6.88247 28.8170167,-12.80219 16.20649,-10.24847 30.075073,-25.49417 41.253981,-45.35041 2.595201,-4.60965 2.955474,-5.10457 3.715877,-5.10457 0.889639,0 1.177901,0.94063 0.803803,2.6229 -0.640667,2.88099 -2.188805,7.0837 -3.993351,10.84069 -1.005525,2.09346 -1.828226,3.84963 -1.828226,3.9026 0,0.053 0.327421,0.097 0.727604,0.0978 1.958645,0.004 3.877666,1.10686 4.771106,2.74202 0.410269,0.75087 0.446768,1.89987 0.390068,12.27953 -0.0515,9.42841 -0.130746,11.58303 -0.448608,12.19771 -0.569748,1.10177 -2.131216,2.36661 -3.119409,2.52683 -0.476054,0.0772 -5.052987,0.17235 -10.170962,0.21149 l -9.30541,0.0711 -0.657885,0.61821 -0.657886,0.6182 -0.09582,10.75888 c -0.10686,11.9986 -0.06655,11.73039 -1.982949,13.1926 l -0.971539,0.74128 -10.471969,0.059 c -8.623874,0.0486 -10.658743,-0.009 -11.530302,-0.32675 z m -14.366875,-14.99875 c -0.578516,-0.57852 -0.334179,-1.17993 1.442746,-3.5512 2.028585,-2.7071 4.589754,-6.5923 4.589754,-6.9625 0,-0.15319 -3.1514,-0.28437 -8.003646,-0.33314 -7.8314366,-0.0787 -8.0217459,-0.0934 -8.8448879,-0.6805 -0.4626834,-0.33002 -1.1175271,-1.0444 -1.4552084,-1.5875 l -0.6139658,-0.98745 0.010954,-11.50938 c 0.0096,-10.09053 0.063772,-11.60722 0.4393998,-12.30312 0.6891705,-1.27678 1.8433924,-2.19811 3.1215211,-2.4917 0.6919866,-0.15895 4.9796382,-0.2762 10.2378502,-0.27996 l 9.047225,-0.006 0.742358,-0.63825 0.742359,-0.63825 0.132291,-10.80498 c 0.131059,-10.7043 0.137883,-10.81281 0.732339,-11.64622 0.330025,-0.46268 0.998922,-1.08776 1.486438,-1.38906 0.85847,-0.53056 1.222944,-0.54768 11.570786,-0.54347 10.574322,0.004 10.695299,0.0105 11.742729,0.59765 0.661787,0.37099 1.255395,0.98896 1.584266,1.64929 0.487411,0.97866 0.537751,1.79302 0.687285,11.11837 0.100457,6.26479 0.267174,10.2601 0.441748,10.5863 0.154217,0.28815 0.514117,0.73543 0.799777,0.99395 0.509074,0.46071 0.533525,0.42467 1.232178,-1.81615 0.626263,-2.00865 0.895421,-2.47285 2.217105,-3.82371 1.328322,-1.35764 1.736456,-1.60429 3.488683,-2.10832 1.091406,-0.31395 3.086225,-0.92735 4.432931,-1.36311 2.578971,-0.83449 3.366047,-0.81688 3.651247,0.0817 0.268774,0.84683 -0.60642,1.78789 -3.078954,3.31066 -1.224905,0.75438 -2.71538,1.67489 -3.312168,2.04557 -1.435096,0.89138 -2.334528,2.24383 -3.402387,5.11609 -1.387816,3.73285 -2.474938,5.15196 -4.639722,6.05658 -0.98205,0.41039 -5.250864,0.52326 -7.667101,0.20274 -4.272869,-0.56682 -5.749407,0.97076 -6.878189,7.16254 -1.113806,6.10964 -2.80858,8.12643 -8.342116,9.92716 -3.954413,1.28685 -5.693362,2.71631 -7.859543,6.46076 -2.397491,4.14429 -4.979464,7.25637 -8.101903,9.76532 -0.940223,0.75548 -1.857811,0.90612 -2.374179,0.38975 z m 230.928334,-0.23551 c -2.79988,-0.19981 -7.10094,-1.09892 -9.78958,-2.04646 -3.16351,-1.1149 -7.87881,-3.77835 -8.53293,-4.81985 -0.17019,-0.27099 0.19367,-1.31327 1.222,-3.50042 l 1.46435,-3.11453 1.40193,1.07925 c 1.67438,1.28899 6.01874,3.44078 8.4134,4.1672 3.3638,1.02041 7.00542,1.46449 10.58333,1.2906 3.90725,-0.18991 6.1252,-0.67758 8.26237,-1.81668 4.71731,-2.5143 5.91874,-8.21321 2.46053,-11.67142 -2.15115,-2.15115 -3.78366,-2.79556 -13.10415,-5.17264 -9.60029,-2.44844 -12.83122,-3.85145 -15.86606,-6.88976 -2.61348,-2.61647 -3.71311,-5.45762 -3.71311,-9.59371 0,-5.76478 3.01062,-10.7419 8.08599,-13.36764 4.14504,-2.14444 8.04117,-2.99301 13.74214,-2.99301 5.15721,0 9.61983,0.81079 13.89062,2.52372 2.1337,0.85579 4.49792,2.24999 4.49792,2.65247 0,0.28513 -2.30536,5.94861 -2.50111,6.14436 -0.0505,0.0505 -1.32408,-0.50651 -2.83023,-1.23776 -1.50615,-0.73124 -3.75128,-1.61989 -4.98919,-1.97477 -6.00874,-1.72256 -12.98438,-1.52173 -16.91266,0.48692 -3.07108,1.57033 -4.86182,4.174 -4.89344,7.11486 -0.0533,4.96057 3.05581,7.21869 13.51523,9.81589 10.80167,2.68219 14.00161,4.01312 17.1876,7.14873 2.89888,2.85302 3.87715,5.29544 3.84646,9.60329 -0.0303,4.24667 -1.3847,7.55641 -4.24419,10.37119 -0.96269,0.94763 -2.44502,2.13056 -3.29406,2.62872 -4.24511,2.49073 -10.90643,3.67074 -17.90316,3.17145 z m -128.38772,-25.57459 -0.0675,-25.06927 -9.85573,-0.0694 -9.855727,-0.0694 v -3.56865 -3.56866 h 23.812497 23.8125 v 3.57188 3.57187 h -9.78958 -9.78958 v 25.13542 25.13542 h -4.0997 -4.0997 z m 48.48355,-3.63802 v -28.7073 h 20.24063 20.24062 v 3.57188 3.57187 h -16.13958 -16.13958 v 8.86355 8.86354 h 14.2875 14.2875 v 3.43958 3.43958 h -14.2875 -14.2875 v 9.26042 9.26042 h 16.66875 16.66875 v 3.57187 3.57188 h -20.7698 -20.76979 z m 120.89145,27.58933 c 0.45877,-1.05289 24.42243,-53.95795 25.17325,-55.57551 l 0.34074,-0.73409 4.07077,0.0726 4.07078,0.0726 12.94942,28.51055 c 7.12219,15.68081 12.94943,28.57227 12.94943,28.6477 0,0.0754 -1.93361,0.10443 -4.29691,0.0644 l -4.29691,-0.0727 -3.07782,-7.01146 -3.07781,-7.01146 h -15.30415 -15.30415 l -3.08049,7.01146 -3.08049,7.01146 -4.26424,0.0727 -4.26424,0.0727 z m 41.4704,-20.64402 c -0.52947,-1.25078 -11.88197,-27.04245 -11.93461,-27.11414 -0.0348,-0.0474 -11.91558,26.81445 -12.27064,27.74331 -0.0494,0.1292 5.33651,0.23072 12.24053,0.23072 h 12.32872 z m 38.4569,-6.94531 v -28.7073 h 4.10104 4.10105 v 28.7073 28.70729 h -4.10105 -4.10104 z m -46.84318,-33.89281 c -0.66141,-0.22727 -2.14969,-1.11381 -3.30729,-1.97008 -3.76777,-2.78701 -4.06041,-2.9604 -5.20875,-3.08618 -1.95759,-0.21443 -3.85289,1.50813 -4.10324,3.72926 l -0.13761,1.22085 h -2.21455 -2.21454 v -1.03047 c 0,-1.41863 0.88198,-4.14547 1.81795,-5.6206 1.94583,-3.0667 6.14874,-4.19885 9.42684,-2.53933 0.58208,0.29468 2.23466,1.44127 3.6724,2.54798 2.56599,1.9752 2.64232,2.01221 4.14982,2.01221 1.34516,0 1.63834,-0.0983 2.36249,-0.79207 0.5237,-0.50174 0.99074,-1.35022 1.27414,-2.31474 l 0.4474,-1.52267 2.18594,-3.6e-4 2.18594,-3.7e-4 -0.16184,1.12448 c -0.41387,2.87577 -1.14538,4.61398 -2.63621,6.26415 -1.70186,1.88374 -5.16715,2.79292 -7.53889,1.97794 z"
         id="path61" /><path
         style="fill:#b0b3c3;fill-opacity:1"
         d="m 31.740931,-621.26192 c -2.085515,-0.17912 -2.666932,-0.47373 -3.589685,-1.81896 -0.61735,-0.89999 -0.647015,-1.14276 -0.726053,-5.94173 -0.07532,-4.57343 -0.120798,-4.98764 -0.529167,-4.82002 -2.023226,0.83045 -9.280641,3.25363 -11.956136,3.99204 -3.693637,1.01939 -8.3566846,1.84692 -11.9252132,2.11631 -2.06646065,0.156 -2.43558299,0.11809 -2.8945594,-0.29728 -0.61744029,-0.55877 -0.679168,-1.26053 -0.14954165,-1.70009 0.20708576,-0.17186 1.72513265,-0.66468 3.37343755,-1.09516 18.1923297,-4.75113 34.2764117,-13.90181 48.0329987,-27.3273 9.31218,-9.08805 17.663301,-20.25225 24.453441,-32.6906 0.986224,-1.80658 1.947037,-3.38234 2.13514,-3.50167 0.627599,-0.39816 1.276413,-0.23161 1.564973,0.40171 0.549129,1.20521 -1.411139,7.30875 -4.293372,13.36795 -0.857893,1.80352 -1.559804,3.30784 -1.559804,3.34295 0,0.0351 0.648835,0.14491 1.441856,0.24399 1.56154,0.1951 2.820091,0.90485 3.693191,2.08275 0.539319,0.7276 0.555288,1.04607 0.623541,12.43542 0.07866,13.12573 0.13385,12.70547 -1.880054,14.31572 l -1.016258,0.81256 -9.963951,0.13242 c -5.480173,0.0728 -10.175617,0.23567 -10.434321,0.36186 -0.258704,0.12619 -0.586126,0.44572 -0.727605,0.71008 -0.1476,0.27579 -0.257233,3.40202 -0.257233,7.33514 0,3.76997 -0.07858,8.67002 -0.174627,10.889 -0.201113,4.64645 -0.450943,5.28564 -2.463258,6.30223 -1.157887,0.58494 -1.332921,0.59457 -10.052031,0.55253 -4.880494,-0.0235 -9.707063,-0.11436 -10.725709,-0.20185 z M 15.73364,-636.62771 c -0.355782,-0.66478 -0.171231,-1.03308 1.988705,-3.96875 2.005899,-2.7263 4.096711,-5.94797 4.096711,-6.31249 0,-0.17138 -2.813723,-0.29668 -7.871354,-0.35055 -7.6814379,-0.0818 -7.8949714,-0.0985 -8.8502049,-0.69248 -0.5383679,-0.33476 -1.2229773,-1.00365 -1.5213542,-1.48644 -0.5256635,-0.85054 -0.5425034,-1.24313 -0.5425034,-12.64753 v -11.76975 l 0.5953125,-0.8747 c 0.9144823,-1.34365 1.8998332,-1.93495 3.5727291,-2.14394 0.836275,-0.10448 5.4092129,-0.20001 10.1620849,-0.21229 l 8.641584,-0.0223 0.684978,-0.81405 0.684978,-0.81405 0.0014,-10.36459 c 0.0013,-10.27384 0.0066,-10.37319 0.595561,-11.34609 0.326813,-0.53982 1.004178,-1.28396 1.505256,-1.65365 l 0.91105,-0.67215 H 40.96926 c 10.040084,0 10.636539,0.027 11.673847,0.52919 0.728766,0.35279 1.303428,0.90331 1.723946,1.65152 0.624632,1.11138 0.632404,1.2204 0.796897,11.17862 0.105293,6.37431 0.270696,10.25113 0.45175,10.58842 0.1571,0.29267 0.532307,0.75536 0.833794,1.02821 0.611529,0.55342 0.586239,0.58613 1.102902,-1.42655 0.648704,-2.52707 2.142631,-4.62298 3.954204,-5.54759 0.509323,-0.25995 2.533386,-0.95524 4.497917,-1.54508 1.964531,-0.58984 3.760612,-1.14583 3.99129,-1.23554 0.235275,-0.0915 0.699926,0.0673 1.058334,0.3616 0.606004,0.49767 0.618007,0.56301 0.232995,1.26835 -0.416601,0.76321 -1.811854,1.77248 -5.271375,3.81311 -2.416438,1.42535 -3.436948,2.70716 -4.358586,5.47459 -1.004431,3.01603 -2.138345,4.77017 -3.706548,5.73394 l -1.307014,0.80325 -5.042986,0.0147 c -2.773642,0.008 -5.247202,0.0379 -5.496799,0.0661 -0.837167,0.0949 -2.270358,1.62726 -2.715791,2.90367 -0.239693,0.68686 -0.659656,2.52863 -0.93325,4.09283 -1.087457,6.21725 -2.887818,8.19716 -9.415776,10.35477 -2.902653,0.95938 -4.0618,1.88346 -5.868342,4.67825 -0.833311,1.28917 -2.085617,3.23021 -2.782903,4.31342 -1.582772,2.45878 -2.951848,4.02204 -5.269077,6.01642 -1.936243,1.66647 -2.889056,1.95628 -3.385005,1.02959 z m 229.26146,-0.18216 c -3.80774,-0.49354 -8.49584,-1.8754 -11.55024,-3.40454 -2.06429,-1.03346 -5.2508,-3.17661 -5.2508,-3.53152 0,-0.11678 0.65365,-1.59811 1.45257,-3.29186 l 1.45258,-3.07953 1.39169,1.0724 c 3.11136,2.39752 8.52608,4.51991 13.5049,5.29348 2.53343,0.39362 8.09975,0.17593 10.48287,-0.40997 4.58924,-1.12829 7.34344,-3.78586 7.62725,-7.35964 0.23935,-3.01394 -0.81888,-5.14624 -3.40156,-6.85399 -1.88887,-1.24899 -4.05679,-1.99816 -10.54989,-3.64574 -9.69554,-2.46018 -12.89128,-3.70269 -15.89435,-6.17976 -2.97434,-2.45337 -4.43688,-5.42143 -4.67865,-9.49476 -0.39269,-6.61626 2.84231,-11.97971 8.98521,-14.89696 3.32245,-1.57782 6.60219,-2.27226 11.4555,-2.42553 4.75008,-0.15001 7.88479,0.21057 11.90625,1.36956 2.57091,0.74094 7.80521,3.14855 7.80521,3.59015 0,0.26346 -2.34533,6.10401 -2.53026,6.30108 -0.051,0.0543 -1.13968,-0.44032 -2.41926,-1.09927 -8.55932,-4.40781 -19.6507,-4.48999 -24.48481,-0.18141 -3.18205,2.83612 -3.72794,7.30813 -1.23746,10.13746 2.15301,2.44596 4.5967,3.52765 12.11373,5.36209 6.19849,1.51267 11.01081,3.05568 13.39868,4.29611 2.12296,1.10282 5.32073,4.08353 6.162,5.74373 1.3408,2.64596 1.79188,7.40349 0.98828,10.42317 -1.70401,6.4031 -7.2455,10.70141 -15.52836,12.04473 -2.266,0.3675 -9.03842,0.50083 -11.20108,0.22052 z m -126.60313,-25.48242 v -25.13542 h -9.92955 -9.929556 l 0.07382,-3.50573 0.07383,-3.50572 23.746356,-0.0676 23.74635,-0.0676 v 3.57006 3.57007 l -9.85573,0.0694 -9.85573,0.0694 -0.0675,25.06927 -0.0675,25.06927 h -3.96741 -3.96741 z m 48.41875,-3.57353 v -28.70894 l 20.17448,0.0678 20.17448,0.0678 0.0738,3.50572 0.0738,3.50573 h -16.14726 -16.14726 v 8.86355 8.86354 h 14.2875 14.2875 v 3.43958 3.43958 h -14.2875 -14.2875 v 9.26042 9.26042 h 16.66875 16.66875 v 3.57187 3.57188 h -20.7698 -20.76979 z m 122.5993,23.88679 c 1.20291,-2.65932 7.05191,-15.58052 12.9978,-28.71378 l 10.81071,-23.87865 h 4.02365 4.02366 l 12.89014,28.37657 c 7.08957,15.60711 12.95138,28.5284 13.02623,28.71399 0.1077,0.26701 -0.76309,0.32223 -4.17265,0.26458 l -4.30876,-0.0728 -3.08123,-7.01146 -3.08123,-7.01146 -15.32891,-0.0624 -15.32892,-0.0624 -3.08538,7.07384 -3.08539,7.07384 -4.24341,0.0726 -4.2434,0.0726 z m 40.03993,-16.41066 c -0.43393,-1.05415 -12.15148,-27.59532 -12.20909,-27.65454 -0.0568,-0.0584 -11.68068,26.17785 -12.21593,27.57269 -0.14202,0.3701 1.11447,0.41258 12.20142,0.41258 9.78401,0 12.33137,-0.0689 12.2236,-0.33073 z m 38.17952,-7.47447 v -28.7073 h 4.10104 4.10105 v 28.7073 28.70729 h -4.10105 -4.10104 z m -47.75729,-34.3703 c -0.7276,-0.34692 -2.08039,-1.20896 -3.0062,-1.91565 -3.68699,-2.81438 -4.70377,-3.2147 -6.20546,-2.44318 -1.50483,0.77312 -2.18666,1.793 -2.67587,4.00256 -0.15959,0.72082 -0.18114,0.72761 -2.31041,0.72761 h -2.14932 l 0.16292,-1.55868 c 0.36253,-3.46851 2.11852,-6.39501 4.55143,-7.58532 1.21577,-0.59482 1.85801,-0.73336 3.39135,-0.73158 2.17762,0.003 3.06433,0.37174 5.69977,2.37323 3.70898,2.81679 4.04379,3.00443 5.36087,3.00443 1.92267,0 3.36155,-1.43024 3.80227,-3.77945 l 0.18442,-0.98305 h 2.19433 2.19434 l -0.13026,1.12448 c -0.43153,3.72537 -2.1696,6.59435 -4.71225,7.7784 -1.8558,0.8642 -4.5226,0.85841 -6.35193,-0.0138 z"
         id="path60" /><path
         style="fill:#b0b3c3;fill-opacity:1"
         d="m 29.21004,-621.99853 c -1.583164,-1.33215 -1.822409,-2.30268 -1.828923,-7.41928 -0.0032,-2.51023 -0.05117,-4.56406 -0.106601,-4.56406 -0.05543,0 -0.918638,0.31066 -1.91823,0.69035 -7.963181,3.02483 -15.992323,5.00608 -22.4565347,5.54132 -1.8763161,0.15536 -2.19254559,0.11524 -2.76861034,-0.35122 -0.56769217,-0.45969 -0.6120479,-0.61068 -0.34900057,-1.18801 0.2294567,-0.5036 0.6374638,-0.73977 1.71027701,-0.98995 0.7749117,-0.18072 3.3373557,-0.90578 5.6943199,-1.61125 24.7761147,-7.4158 45.8184167,-23.57438 61.6413717,-47.33499 2.432025,-3.65206 6.472618,-10.40471 7.770529,-12.98613 0.585572,-1.16464 1.249403,-2.12354 1.532241,-2.21331 0.713847,-0.22657 1.34969,0.086 1.510828,0.74268 0.324105,1.32083 -2.513109,9.44245 -5.077657,14.53496 -0.506343,1.00546 -0.883216,1.8573 -0.837496,1.89298 0.04572,0.0357 0.785788,0.2017 1.644596,0.36895 1.808493,0.3522 3.077049,1.21562 3.692964,2.51356 0.381328,0.80359 0.434109,2.28622 0.434109,12.19427 0,8.9279 -0.07524,11.45953 -0.360899,12.1432 -0.460128,1.10124 -1.759493,2.19691 -3.020755,2.54719 -0.59083,0.16409 -4.71516,0.27387 -10.32256,0.27476 l -9.338589,10e-4 -0.60993,0.60993 -0.60993,0.60993 -0.184687,10.70101 c -0.106766,6.18615 -0.30195,11.07113 -0.462623,11.57825 -0.167333,0.52816 -0.704445,1.18621 -1.349721,1.65365 l -1.071785,0.7764 H 41.114242 30.06174 Z m -13.4764,-14.62918 c -0.352981,-0.65955 -0.150478,-1.06296 1.866905,-3.71911 1.403094,-1.84736 4.483095,-6.45294 4.483095,-6.70365 0,-0.0599 -3.610485,-0.15025 -8.0233,-0.20085 -7.9211186,-0.0908 -8.0348434,-0.1 -8.9296878,-0.71511 -2.0690458,-1.42236 -1.9554081,-0.67719 -2.0434652,-13.39982 -0.043309,-6.25739 -0.00881,-11.76053 0.076674,-12.22919 0.08548,-0.46866 0.4725431,-1.22899 0.8601404,-1.68962 1.3016277,-1.5469 1.6167164,-1.59191 12.2913116,-1.75604 l 9.746924,-0.14986 0.656534,-0.65654 0.656535,-0.65653 0.0015,-10.08423 c 8.78e-4,-6.0009 0.110137,-10.47545 0.269827,-11.05037 0.292147,-1.05181 1.975085,-2.7601 2.963172,-3.00781 0.331091,-0.083 5.314396,-0.11579 11.074012,-0.0729 l 10.472029,0.078 0.971479,0.74128 c 1.793573,1.36858 1.772128,1.2334 2.006498,12.64832 l 0.211789,10.31509 0.750406,0.78325 c 0.412724,0.43079 0.828889,0.69318 0.924812,0.58308 0.09592,-0.1101 0.329735,-0.7955 0.519584,-1.5231 0.693325,-2.65719 2.170036,-4.77223 3.974807,-5.69295 0.541631,-0.27632 2.219779,-0.8568 3.729217,-1.28996 1.509439,-0.43316 3.314358,-0.96959 4.010932,-1.19208 1.196747,-0.38224 1.294764,-0.37625 1.779714,0.1087 1.022799,1.0228 0.190923,1.82553 -5.530369,5.33662 -1.915476,1.1755 -2.979029,2.57215 -3.754856,4.93083 -0.832509,2.53101 -1.638903,4.00783 -2.800107,5.12811 -1.770644,1.70823 -2.39427,1.84169 -8.171966,1.74878 l -5.112627,-0.0822 -0.936484,0.90565 c -1.097242,1.06111 -1.788626,2.95445 -2.405237,6.5867 -0.94286,5.55407 -2.744927,7.64804 -8.147742,9.46752 -4.538994,1.52858 -5.423876,2.27751 -8.252948,6.98492 -2.204737,3.66856 -3.943744,5.85598 -6.424324,8.08087 -2.322049,2.0827 -3.235488,2.43309 -3.76476,1.44413 z m 228.73229,-0.29445 c -5.79929,-0.83997 -12.28063,-3.40186 -15.58474,-6.16021 l -0.76808,-0.64122 1.42954,-3.0562 c 0.78624,-1.68091 1.51641,-3.0609 1.6226,-3.06664 0.10619,-0.006 0.78958,0.44104 1.51864,0.99284 4.37897,3.31432 11.10925,5.35464 17.60287,5.33642 7.00909,-0.0197 11.53572,-1.95524 13.26692,-5.67288 1.27436,-2.73662 0.5833,-6.36511 -1.57281,-8.2582 -2.20928,-1.93978 -4.01686,-2.62659 -12.70741,-4.82836 -2.88566,-0.73108 -6.33847,-1.70037 -7.67292,-2.15397 -7.22012,-2.45424 -10.91431,-6.08198 -11.82552,-11.61282 -1.07153,-6.50397 1.99667,-12.89602 7.67309,-15.98552 7.52431,-4.09524 20.20988,-4.05999 28.97678,0.0805 1.16497,0.5502 2.39211,1.22698 2.72698,1.50395 l 0.60886,0.50358 -1.243,3.04253 c -0.68364,1.67339 -1.2666,3.07369 -1.29545,3.11177 -0.0289,0.0381 -1.05836,-0.44404 -2.28779,-1.07137 -7.29827,-3.72403 -16.6677,-4.45854 -22.36161,-1.75303 -5.21152,2.4763 -6.7536,8.56311 -3.09607,12.22065 2.22068,2.22068 4.62928,3.17944 13.39993,5.33395 5.74499,1.41126 10.19072,2.91637 12.29375,4.16208 0.81917,0.48523 2.27899,1.65614 3.24405,2.60202 2.64796,2.59533 3.69157,5.21226 3.69721,9.27097 0.0118,8.51668 -5.87218,14.34705 -16.13644,15.98932 -2.71997,0.43519 -8.85857,0.49377 -11.50938,0.10984 z m -126.07396,-25.37013 v -25.13542 h -9.78958 -9.789584 v -3.57329 -3.5733 l 23.614064,0.0676 23.61406,0.0676 0.0738,3.50572 0.0738,3.50573 h -9.92955 -9.92956 v 25.13542 25.13542 h -3.96875 -3.96875 z m 48.41875,-3.57187 v -28.7073 h 20.10834 20.10833 v 3.57188 3.57187 H 191.0201 175.01281 v 8.86355 8.86354 h 14.2875 14.2875 v 3.43958 3.43958 h -14.2875 -14.2875 v 9.26042 9.26042 h 16.66875 16.66875 v 3.57187 3.57188 h -20.7698 -20.76979 z m 124.72734,19.24843 c 2.35858,-5.20237 8.20871,-18.12065 13.0003,-28.70729 l 8.71197,-19.24844 h 3.98557 3.98558 l 12.93511,28.50886 c 7.11431,15.67987 12.98108,28.60114 13.03726,28.71394 0.0562,0.1128 -1.82622,0.17233 -4.18312,0.13229 l -4.28528,-0.0728 -3.07664,-7.07012 -3.07663,-7.07011 -15.35641,-0.007 -15.3564,-0.007 -0.88152,2.05052 c -0.48483,1.12778 -1.89133,4.34247 -3.12555,7.14375 l -2.24405,5.09323 h -4.17926 -4.17925 z m 37.91262,-11.79609 c -1.13413,-2.95549 -12.2288,-27.65303 -12.35506,-27.50326 -0.20602,0.24438 -12.1724,27.47846 -12.1724,27.70295 0,0.0842 5.54915,0.15317 12.33144,0.15317 10.16902,0 12.30768,-0.0619 12.19602,-0.35286 z m 38.17879,-7.45924 v -28.71418 l 4.0349,0.073 4.03489,0.073 0.0673,28.64114 0.0673,28.64115 h -4.10222 -4.10223 z m -47.75729,-34.35931 c -0.7276,-0.34466 -2.43533,-1.47511 -3.79495,-2.5121 -2.64991,-2.0211 -3.26887,-2.29435 -4.67885,-2.06554 -1.69458,0.27499 -3.03353,1.82608 -3.4121,3.9527 l -0.17662,0.99219 h -2.10468 c -2.4088,0 -2.38493,0.0356 -1.80977,-2.69896 0.45464,-2.16155 1.43908,-3.99733 2.85261,-5.31952 1.43294,-1.34035 2.79567,-1.83903 4.98467,-1.82408 2.08667,0.0142 3.07269,0.45667 6.03508,2.70797 3.35801,2.55195 3.51795,2.63667 4.97733,2.63667 0.90528,0 1.39026,-0.17042 2.03942,-0.71666 0.91271,-0.76799 1.81944,-2.47867 1.82893,-3.45053 0.006,-0.56726 0.10552,-0.59531 2.12247,-0.59531 h 2.11667 v 1.05278 c 0,1.56559 -0.97883,4.25692 -2.07638,5.70908 -1.41278,1.86926 -3.25772,2.76389 -5.6929,2.76056 -1.4333,-0.002 -2.20662,-0.15351 -3.21093,-0.62925 z"
         id="path59" /><path
         style="fill:#b0b3c3;fill-opacity:1"
         d="m 29.491454,-621.86987 c -1.756647,-1.1838 -1.949977,-1.86227 -2.071773,-7.2707 -0.05996,-2.66271 -0.124244,-4.84128 -0.142845,-4.84126 -0.0186,2e-5 -2.296009,0.78313 -5.060905,1.74024 -7.624504,2.63933 -13.1005466,3.88703 -19.601542,4.46615 -1.6118931,0.14359 -1.96264584,0.0956 -2.50402697,-0.34281 -0.53797075,-0.43562 -0.5874953,-0.60213 -0.34039253,-1.14446 0.23791848,-0.52218 0.72866227,-0.74581 2.7686103,-1.26167 10.4877242,-2.65213 21.2317052,-7.22936 30.3929762,-12.94826 13.809006,-8.62023 26.45287,-21.22429 36.070372,-35.9568 2.854381,-4.37246 5.92498,-9.46938 7.209441,-11.96702 1.011272,-1.96642 1.953384,-3.175 2.474978,-3.175 0.148781,0 0.449722,0.27352 0.668759,0.60781 0.361435,0.55162 0.338194,0.83221 -0.251416,3.03539 -0.912965,3.41145 -2.328706,7.08666 -4.12055,10.69679 l -1.536264,3.0952 1.239736,0.15076 c 1.965595,0.23902 3.52232,1.17506 4.224228,2.53997 l 0.603242,1.17304 -0.07408,11.50938 c -0.0739,11.48223 -0.07549,11.51136 -0.674123,12.35061 -0.330025,0.46269 -1.0444,1.11753 -1.5875,1.45521 -0.976385,0.60709 -1.099322,0.61545 -10.968623,0.74626 -9.950602,0.13189 -9.983013,0.13414 -10.583233,0.73485 l -0.602064,0.60257 -0.09174,10.77452 c -0.08632,10.13779 -0.122561,10.82924 -0.613319,11.70056 -0.28687,0.50932 -0.840945,1.16417 -1.231278,1.45521 -0.679018,0.50629 -1.184995,0.53238 -11.704729,0.60353 l -10.995032,0.0744 z m -13.597937,-14.79874 c -0.483452,-0.69023 -0.339803,-1.0179 1.431935,-3.26639 1.285193,-1.63101 4.758188,-6.8232 4.758188,-7.11357 0,-0.0894 -2.827735,-0.16889 -6.283855,-0.17674 -3.456119,-0.008 -7.2152426,-0.11194 -8.3536067,-0.23132 -1.8329434,-0.19222 -2.1714787,-0.31565 -2.9588514,-1.0788 -0.4890041,-0.47396 -1.0197863,-1.17726 -1.1795159,-1.56288 -0.1998343,-0.48244 -0.2672525,-4.33618 -0.2161487,-12.35541 l 0.074269,-11.65429 0.762482,-0.99938 c 0.4193651,-0.54966 1.1337401,-1.15087 1.5875,-1.33602 0.5869562,-0.2395 3.6880095,-0.38775 10.7468927,-0.51378 l 9.921875,-0.17714 0.551897,-0.61305 c 0.522984,-0.58094 0.561101,-1.01221 0.727604,-8.23244 0.09664,-4.19067 0.175708,-9.06687 0.175708,-10.83602 v -3.21662 l 0.915415,-1.06945 c 0.503479,-0.58821 1.258066,-1.21139 1.676862,-1.38486 0.557263,-0.23083 3.557678,-0.29383 11.189272,-0.23494 9.872342,0.0762 10.475682,0.10865 11.32621,0.60963 0.494112,0.29104 1.148955,0.86515 1.455209,1.27581 0.528276,0.70836 0.566955,1.18311 0.75446,9.26041 0.271764,11.70707 0.363824,12.80346 1.140256,13.57989 0.342336,0.34234 0.720533,0.62243 0.840437,0.62243 0.119904,0 0.429252,-0.82003 0.68744,-1.82229 0.569508,-2.21077 1.650762,-3.9858 3.041717,-4.9934 1.116528,-0.80881 9.115061,-3.36393 10.002864,-3.1954 0.313014,0.0594 0.524783,0.36258 0.578396,0.828 0.113238,0.98303 -0.785102,1.7878 -4.048523,3.62684 -3.374787,1.9018 -4.527573,3.17626 -5.524626,6.10774 -1.302113,3.82841 -2.409888,5.2987 -4.782852,6.34802 -1.240731,0.54865 -1.541869,0.56884 -5.953125,0.39918 -4.264699,-0.16402 -4.722341,-0.13737 -5.572329,0.32452 -1.355042,0.73634 -2.273725,2.73395 -2.934589,6.38106 -0.67929,3.7488 -1.296917,5.43299 -2.513699,6.85453 -1.212515,1.41655 -2.641888,2.24371 -5.856827,3.38928 -4.491556,1.60046 -5.284602,2.2537 -7.865797,6.47913 -2.359653,3.86276 -2.988876,4.71162 -5.143409,6.93878 -2.131409,2.20324 -3.852157,3.60901 -4.417666,3.60901 -0.188195,0 -0.521857,-0.25653 -0.741469,-0.57007 z M 244.706,-636.90525 c -5.66261,-0.73922 -12.48306,-3.40497 -15.68931,-6.1321 l -0.84779,-0.72111 1.45931,-3.07006 c 1.05488,-2.21924 1.55331,-3.01215 1.79851,-2.86109 0.18657,0.11493 1.07336,0.72185 1.97065,1.3487 4.37082,3.05349 10.50152,4.84567 16.62481,4.85993 7.36196,0.0172 11.72147,-1.82213 13.53142,-5.70889 1.17885,-2.53153 0.66942,-5.96154 -1.1715,-7.88776 -1.92555,-2.01475 -4.33802,-3.01158 -11.96304,-4.94312 -11.09085,-2.80948 -13.76491,-3.94785 -17.07267,-7.268 -2.46972,-2.47897 -3.17292,-3.94902 -3.61424,-7.55562 -0.35623,-2.9112 0.15555,-6.07357 1.39912,-8.64548 1.21301,-2.5087 4.17571,-5.43297 6.85237,-6.76347 7.83854,-3.89634 19.76007,-3.71145 28.70729,0.44522 1.01865,0.47324 2.12451,1.08688 2.45748,1.36365 l 0.6054,0.5032 -1.25117,3.04271 c -0.68814,1.67349 -1.2719,3.07622 -1.29724,3.11719 -0.0253,0.041 -0.92536,-0.39874 -2.00006,-0.97712 -5.72792,-3.08264 -13.81488,-4.29471 -19.5236,-2.92619 -2.84431,0.68186 -4.5092,1.59785 -6.13249,3.37399 -3.07336,3.36274 -2.72428,8.17505 0.77959,10.74713 2.22742,1.63508 4.48014,2.48348 10.88974,4.10125 9.82683,2.48026 13.14232,3.73915 16.03388,6.08807 3.22789,2.62212 4.59806,5.42353 4.79963,9.81318 0.4782,10.41396 -8.24067,17.03491 -22.25464,16.89978 -1.91369,-0.0185 -4.20484,-0.12825 -5.09145,-0.24399 z m -126.31403,-25.38704 v -25.13542 h -9.78958 -9.789584 v -3.43958 -3.43958 h 23.547914 23.54792 v 3.43958 3.43958 h -9.78958 -9.78959 v 25.13542 25.13542 h -3.96875 -3.96875 z m 48.41875,-3.43958 v -28.575 h 20.10834 20.10833 v 3.43958 3.43958 h -16.13958 -16.13959 v 8.86355 8.86354 h 14.41979 14.4198 v 3.43958 3.43958 h -14.4198 -14.41979 v 9.26042 9.26042 h 16.80104 16.80105 v 3.57187 3.57188 h -20.7698 -20.76979 z m 120.72523,28.11198 c 0.0753,-0.25466 5.86074,-13.08365 12.85648,-28.50886 l 12.71953,-28.04583 h 4.1351 4.1351 l 12.66592,27.91354 c 6.96625,15.35245 12.78678,28.18438 12.9345,28.5154 l 0.26859,0.60185 -4.24501,-0.0727 -4.24501,-0.0727 -3.13192,-7.14375 -3.13192,-7.14375 h -15.29282 -15.29282 l -3.16048,7.20989 -3.16049,7.2099 h -4.09585 c -3.77659,0 -4.08517,-0.0361 -3.9589,-0.46302 z m 41.99352,-20.58467 c 0,-0.18441 -11.57252,-26.47898 -12.0463,-27.37106 l -0.35129,-0.66146 -0.39267,0.92604 c -0.21596,0.50932 -2.91573,6.64104 -5.99947,13.62604 -3.08375,6.985 -5.66788,12.90836 -5.74252,13.16302 -0.12788,0.43629 0.57631,0.46302 12.19827,0.46302 6.78369,0 12.33398,-0.0655 12.33398,-0.1456 z m 38.1,-7.52731 v -28.575 h 3.96875 3.96875 v 28.575 28.575 h -3.96875 -3.96875 z m -47.23726,-34.27406 c -0.5871,-0.21585 -2.35959,-1.36262 -3.93885,-2.54839 -2.48224,-1.86376 -3.04604,-2.17273 -4.16003,-2.27977 -2.20481,-0.21185 -3.83646,1.28574 -4.33493,3.97878 l -0.18365,0.99219 h -2.08722 c -2.3748,0 -2.28732,0.12128 -1.80284,-2.49955 0.41573,-2.24887 1.45324,-4.22767 2.89739,-5.52609 1.47473,-1.32591 2.72472,-1.76395 5.03362,-1.76395 2.01749,0 3.09476,0.475 5.67523,2.50237 2.8205,2.21594 3.97756,2.85339 5.15001,2.8372 2.04304,-0.0282 3.22722,-1.12211 3.79299,-3.50388 l 0.31035,-1.30652 h 2.05406 2.05405 l -0.003,0.8599 c -0.007,1.90166 -1.14722,4.88013 -2.47026,6.45247 -1.56135,1.85557 -5.45566,2.73579 -7.98678,1.80524 z"
         id="path58" /><path
         style="fill:#b0b3c3;fill-opacity:1"
         d="m 29.687399,-621.69937 c -0.401838,-0.21797 -1.026916,-0.86568 -1.389062,-1.43936 -0.613425,-0.97172 -0.658447,-1.27594 -0.658447,-4.44907 0,-3.97407 -0.240459,-6.7048 -0.57234,-6.49968 -0.569956,0.35225 -7.008717,2.57415 -10.54016,3.63721 -4.987299,1.50132 -10.9295472,2.55381 -14.418493,2.55381 -1.66434078,0 -2.00861511,-0.0776 -2.23710838,-0.50459 -0.48069576,-0.89819 0.40847261,-1.48735 3.42643428,-2.27034 12.3845971,-3.21309 24.6829941,-8.93129 34.9250001,-16.23853 6.803275,-4.85385 15.625659,-12.94844 20.51424,-18.82195 1.150626,-1.38245 2.16695,-2.57308 2.258498,-2.64584 0.09155,-0.0728 1.474265,-1.86985 3.072704,-3.99353 2.651774,-3.52314 4.373003,-6.02229 6.907499,-10.02938 0.506233,-0.80037 1.14251,-1.77781 1.413949,-2.1721 0.27144,-0.39429 0.493527,-0.78255 0.493527,-0.86279 0,-0.0802 0.570924,-1.06733 1.26872,-2.19353 0.697797,-1.12619 1.726793,-2.94059 2.286658,-4.032 1.310151,-2.55402 1.426042,-2.68801 2.242808,-2.59306 0.641075,0.0745 0.682002,0.16439 0.650672,1.4288 -0.05377,2.16992 -2.35078,8.60638 -4.83389,13.54504 -0.583123,1.15978 -0.986604,2.18231 -0.896624,2.27229 0.08998,0.09 0.605466,0.1636 1.145524,0.1636 1.887045,0 4.001284,1.37867 4.425345,2.88571 0.106193,0.37739 0.193078,5.80585 0.193078,12.06325 0,11.26278 -0.0058,11.38648 -0.58224,12.3132 -0.320232,0.51486 -1.094138,1.22924 -1.719791,1.5875 l -1.137552,0.65138 -9.8303,0.0882 -9.830299,0.0882 -0.620742,0.66035 -0.620742,0.66034 -0.132292,10.94042 c -0.12792,10.57891 -0.150582,10.96509 -0.685786,11.6869 -0.304422,0.41057 -0.947108,1.01437 -1.42819,1.34179 -0.872309,0.59369 -0.904008,0.59529 -11.617339,0.58472 -9.026289,-0.009 -10.859374,-0.0739 -11.473259,-0.4069 z m -13.54533,-14.75488 c -0.686314,-0.50184 -0.411045,-1.32727 1.075012,-3.22357 1.400497,-1.78711 4.866559,-6.95158 4.866559,-7.25122 0,-0.10817 -3.577191,-0.27509 -7.949313,-0.37094 -8.791487,-0.19273 -8.911265,-0.21546 -10.2271145,-1.9408 l -0.7412813,-0.97197 v -11.79446 c 0,-11.32534 0.021047,-11.82938 0.5291667,-12.67263 0.2910416,-0.48299 0.9458854,-1.13783 1.4552083,-1.4552 0.8981165,-0.55964 1.2270659,-0.58103 10.9084628,-0.70933 l 9.982421,-0.13229 0.733204,-0.7333 0.733204,-0.73329 0.132292,-10.77608 c 0.09809,-7.9904 0.218705,-10.9272 0.466574,-11.36064 0.183855,-0.32151 0.762778,-0.91139 1.286496,-1.31085 l 0.952213,-0.72629 10.752046,-0.0121 10.752046,-0.0121 1.000412,0.62198 c 1.901793,1.18238 2.041328,1.80131 2.049501,9.09092 0.004,3.53468 0.115604,8.19705 0.248093,10.36083 0.215823,3.52479 0.302463,3.99969 0.832666,4.56406 0.856231,0.91142 1.152942,0.78718 1.517544,-0.63542 1.102841,-4.30306 2.832702,-5.92233 7.845534,-7.34398 0.873125,-0.24762 2.217044,-0.67401 2.986487,-0.94753 1.993491,-0.70865 2.651357,-0.65914 2.871021,0.21607 0.152264,0.60667 0.01995,0.85404 -0.884454,1.65365 -0.584926,0.51714 -2.062214,1.49506 -3.282862,2.17315 -3.467009,1.92599 -4.451185,3.10825 -5.764621,6.92485 -0.771033,2.24048 -1.764481,3.79474 -2.995498,4.68649 -1.650207,1.1954 -2.803646,1.40769 -6.291532,1.15795 -5.734231,-0.41058 -6.845363,-0.17835 -8.046538,1.68176 -0.627212,0.97128 -1.521295,4.22578 -1.86966,6.80564 -0.09825,0.7276 -0.591276,2.18736 -1.095612,3.2439 -1.139717,2.38761 -2.644888,3.65831 -5.571855,4.70391 -1.138203,0.4066 -2.723426,0.97693 -3.522718,1.2674 -2.042768,0.74237 -3.946007,2.76537 -6.436667,6.84167 -2.086761,3.41526 -4.738,6.55339 -7.148938,8.46179 -1.439781,1.13968 -1.474218,1.15023 -2.147499,0.65791 z m 228.985321,-0.44583 c -2.09917,-0.24758 -5.66223,-1.08127 -7.95459,-1.86124 -2.53436,-0.8623 -6.68775,-3.05788 -7.88273,-4.167 l -1.05094,-0.97543 1.42921,-2.9924 1.42921,-2.9924 1.70228,1.21473 c 7.61155,5.43148 20.28591,6.94896 27.211,3.25793 2.77902,-1.48121 4.188,-3.7739 4.19766,-6.83043 0.007,-2.29383 -0.59966,-3.71871 -2.21522,-5.20077 -2.15191,-1.97409 -4.03824,-2.70672 -12.42648,-4.82633 -9.50317,-2.40134 -12.80953,-3.77178 -15.81636,-6.55564 -2.38489,-2.20805 -3.57463,-4.52012 -3.9562,-7.68827 -1.00616,-8.35416 3.61988,-14.79594 12.46642,-17.35957 2.8473,-0.82512 8.06129,-1.34374 11.2605,-1.12005 5.41886,0.37887 10.93583,1.87177 14.41967,3.90198 l 1.77906,1.03674 -0.50195,1.24912 c -1.45392,3.61807 -2.05693,4.94721 -2.21894,4.89093 -0.0987,-0.0343 -1.40182,-0.65939 -2.89581,-1.3891 -4.00397,-1.95567 -7.06662,-2.67501 -12.10577,-2.84335 -3.55438,-0.11875 -4.39705,-0.0648 -6.23144,0.3991 -2.82449,0.71425 -4.39024,1.48295 -5.78834,2.84175 -1.64063,1.59451 -2.31746,3.05597 -2.46559,5.32393 -0.17173,2.62904 0.60909,4.3338 2.76109,6.02829 2.02885,1.59751 4.61045,2.57039 11.06659,4.17044 9.07247,2.24847 12.53309,3.53063 15.45493,5.72606 2.71798,2.04225 4.30439,4.42456 4.93846,7.41609 1.84575,8.70823 -3.34097,16.21299 -12.84739,18.58909 -3.70123,0.92511 -9.58309,1.24822 -13.75833,0.7558 z m -126.73542,-25.39221 v -25.13542 h -9.78958 -9.789584 v -3.43958 -3.43958 h 23.547914 23.54792 v 3.43958 3.43958 h -9.78958 -9.78959 v 25.13542 25.13542 h -3.96875 -3.96875 z m 48.41875,-3.43958 v -28.575 h 20.10834 20.10833 v 3.43958 3.43958 h -16.13958 -16.13959 v 8.86355 8.86354 h 14.41979 14.4198 v 3.43958 3.43958 h -14.4198 -14.41979 v 9.26042 9.26042 h 16.80104 16.80105 v 3.57187 3.57188 h -20.7698 -20.76979 z M 287.58,-637.61989 c 0.0967,-0.25466 5.90261,-13.11341 12.90193,-28.575 l 12.72604,-28.11198 h 4.03178 4.03178 l 12.76212,28.11198 c 7.01917,15.46159 12.86999,28.32034 13.00182,28.575 0.22344,0.4316 -0.0456,0.46302 -3.96584,0.46302 h -4.20554 l -3.16739,-7.2099 -3.16739,-7.20989 h -15.3244 -15.3244 l -3.16781,7.20989 -3.16782,7.2099 h -4.07038 c -3.76718,0 -4.05729,-0.0345 -3.8945,-0.46302 z m 41.94787,-20.6375 c -0.004,-0.48906 -12.10294,-27.62464 -12.32032,-27.63198 -0.13423,-0.005 -1.62418,3.13007 -3.31101,6.96578 -1.68683,3.8357 -4.44318,10.0994 -6.12523,13.91932 l -3.05827,6.94531 h 12.40822 c 6.82452,0 12.40749,-0.0893 12.40661,-0.19843 z m 38.1016,-7.47448 v -28.575 h 3.96875 3.96875 v 28.575 28.575 h -3.96875 -3.96875 z m -47.54496,-34.5121 c -0.75634,-0.35215 -2.05043,-1.15466 -2.87575,-1.78336 -3.41756,-2.60338 -3.88342,-2.86292 -5.13689,-2.86189 -2.15644,0.002 -3.77355,1.52669 -4.1284,3.893 l -0.16991,1.1331 h -2.10284 -2.10284 l 0.17268,-1.25677 c 0.7614,-5.54164 3.49166,-8.52765 7.79725,-8.52765 2.21971,0 3.62688,0.65308 6.74687,3.13126 1.30969,1.04028 2.79797,2.00567 3.30729,2.14531 1.11984,0.30704 2.72974,-0.0126 3.4963,-0.69417 0.70646,-0.62814 1.51754,-2.39966 1.52498,-3.3308 l 0.006,-0.7276 h 2.11666 2.11667 l -0.003,0.8599 c -0.009,2.4167 -1.36998,5.31979 -3.28431,7.00486 -2.03948,1.79522 -4.95479,2.19072 -7.48043,1.01481 z"
         id="path57" /></g></g></svg>
